<svg width="242" height="236" viewBox="0 0 242 236" fill="none" xmlns="http://www.w3.org/2000/svg">
<path d="M7.39695 140.174C24.8113 135.066 31.246 127.507 33.8542 121.393C38.7817 109.843 31.4412 100.105 38.118 92.8035C44.459 85.8847 57.2737 87.8682 61.5921 88.5398C71.5409 90.1016 71.416 95.115 81.2164 97.4968C94.6559 100.761 100.263 93.4283 107.674 97.9263C115.764 102.823 111.024 113.607 119.2 119.69C128.946 126.937 144.97 110.319 154.458 117.145C160.573 121.525 160.393 132.161 162.431 131.896C164.469 131.63 162.712 121.244 168.147 117.941C171.599 115.84 174.207 118.894 178.783 116.879C183.789 114.669 185.741 108.781 187.022 104.915C188.552 100.2 188.916 95.184 188.084 90.2968C192.574 102.791 190.966 109.648 188.35 113.685C186.265 116.91 184.586 116.699 177.417 122.463C165.859 131.794 165.828 135.933 161.205 136.285C153.287 136.878 150.686 124.626 141.268 124.719C135.334 124.782 133.967 129.131 126.431 132.528C113.554 138.26 95.8507 135.254 92.7192 128.265C89.2754 120.573 106.455 106.243 104.667 104.369C102.879 102.495 89.049 119.206 77.3353 115.887C66.59 112.818 64.9579 94.8027 56.4225 94.9745C53.1349 95.0291 50.1752 97.692 48.7384 100.097C42.0772 111.295 61.8186 128.53 56.4225 137.518C51.4794 145.765 29.8325 139.666 29.0906 142.774C28.3097 146.194 55.2824 150.583 78.2177 169.223C83.8949 173.831 108.259 193.635 104.542 209.3C98.0528 236.874 6.46767 242.176 1.13405 226.605C-2.16139 217.023 29.6139 206.137 31.0351 181.148C31.9956 164.296 18.6655 149.748 7.39695 140.174Z" fill="#8591FF"/>
<path d="M162.297 83.1126C168.545 81.8007 173.925 87.3217 176.775 84.8463C178.517 83.3391 177.056 80.8246 179.017 79.1534C181.25 77.248 185.967 78.0445 189.168 80.192C193.909 83.386 193.854 88.618 197.149 88.9616C197.426 89.0057 197.708 89.0057 197.985 88.9616C199.486 88.6763 200.916 88.0978 202.194 87.2593C205.513 84.9165 221.03 94.1235 223.068 92.0462C224.918 90.1564 213.267 81.1604 215.087 72.9061C217.43 62.3795 239.467 62.848 241.13 52.6025C241.911 47.7452 237.679 43.2784 235.125 40.592C224.739 29.6593 211.104 33.4467 207.91 27.0589C206.114 23.4589 207.489 16.3448 223.068 0.742188C206.278 9.63676 202.873 17.1413 202.725 22.2797C202.358 35.6801 223.981 44.7153 220.959 54.297C219.015 60.5053 208.988 59.8337 206.645 67.838C204.693 74.4992 210.042 80.0827 208.309 81.6679C205.357 84.3777 184.405 62.6762 178.001 66.9166C174.448 69.2593 177.658 78.1617 174.019 79.8094C170.762 81.2853 167.256 74.1087 161.391 74.343C155.269 74.6007 149.943 82.7534 148.499 89.4927C145.719 102.456 156.761 112.717 157.534 113.42C151.974 107.953 149.865 100.144 152.216 93.4831C152.388 93.0224 155.511 84.5417 162.297 83.1126Z" fill="#8591FF"/>
</svg>
