<svg width="1440" height="1370" viewBox="0 0 1440 1370" fill="none" xmlns="http://www.w3.org/2000/svg">
<g clip-path="url(#clip0_801_1091)">
<g clip-path="url(#clip1_801_1091)">
<rect width="1440" height="2148" fill="#001092"/>
<g filter="url(#filter0_f_801_1091)">
<rect x="862" y="626.181" width="1178.8" height="583.632" transform="rotate(-10.6662 862 626.181)" fill="#7C89FD"/>
</g>
<g filter="url(#filter1_f_801_1091)">
<path fill-rule="evenodd" clip-rule="evenodd" d="M-183.45 123.868C-272.875 101.426 -370.019 159.796 -426.127 232.957C-477.619 300.101 -450.703 391.057 -453.22 475.635C-455.878 564.947 -498.707 664.969 -441.016 733.201C-381.769 803.271 -274.505 806.047 -183.45 794.69C-103.362 784.702 -35.6503 737.253 16.9947 676.079C65.3004 619.947 102.783 548.766 91.1212 475.635C80.5088 409.083 3.32658 383.45 -38.14 330.325C-91.9697 261.361 -98.5955 145.163 -183.45 123.868Z" fill="#7CDEFD"/>
</g>
<g filter="url(#filter2_f_801_1091)">
<path fill-rule="evenodd" clip-rule="evenodd" d="M1171.85 -307.755C1267.02 -312.969 1382.49 -345.071 1440.95 -269.799C1499.2 -194.805 1450.24 -86.9143 1410.27 -0.778564C1381.23 61.8198 1322.46 98.9522 1258.19 124.085C1201.37 146.303 1143.49 141.277 1084.25 126.712C993.115 104.308 873.178 108.085 838.459 20.8973C801.993 -70.682 867.144 -173.01 937.342 -242.211C998.155 -302.16 1086.58 -303.084 1171.85 -307.755Z" fill="#7C99FD"/>
</g>
<g filter="url(#filter3_f_801_1091)">
<path fill-rule="evenodd" clip-rule="evenodd" d="M1123.01 -191.049C1206.04 -178.576 1251.38 -96.4372 1307.47 -33.9637C1358.69 23.0863 1426.88 73.8784 1429.65 150.497C1432.47 228.744 1386.51 305.451 1321.29 348.773C1264.03 386.803 1191.68 357.043 1123.01 354.174C1059.44 351.519 992.268 370.054 940.635 332.873C882.084 290.71 851.272 221.789 840.166 150.497C826.731 64.2563 817.658 -31.9644 873.327 -99.187C932.128 -170.191 1031.84 -204.746 1123.01 -191.049Z" fill="#7C99FD"/>
</g>
<g filter="url(#filter4_f_801_1091)">
<path fill-rule="evenodd" clip-rule="evenodd" d="M451.592 -576.028C515.942 -569.855 568.647 -526.731 619.062 -486.266C665.09 -449.322 717.679 -410.493 729.796 -352.73C741.487 -297 701.424 -245.758 680.633 -192.747C664.626 -151.934 652.151 -109.847 622.041 -77.9832C592.743 -46.9801 549.395 -38.312 513.266 -15.6356C460.166 17.6929 422.402 91.6441 359.917 86.5389C300.116 81.6531 275.084 6.65543 235.391 -38.3383C195.285 -83.7986 144.099 -121.041 125.802 -178.836C105.883 -241.75 105.059 -311.473 129.513 -372.766C154.542 -435.5 205 -484.458 262.118 -520.505C318.926 -556.356 384.725 -582.442 451.592 -576.028Z" fill="#7CDEFD"/>
</g>
<g filter="url(#filter5_f_801_1091)">
<path fill-rule="evenodd" clip-rule="evenodd" d="M-158.285 -337.023C-90.9211 -344.264 -24.3413 -418.587 34.8385 -385.601C92.805 -353.291 67.3606 -260.878 90.1462 -198.549C110.551 -142.734 166.001 -98.3737 161.504 -39.116C156.957 20.7907 107.512 65.7641 66.7363 109.887C27.102 152.776 -13.5104 201.769 -70.9316 212.404C-127.01 222.79 -175.686 175.523 -231.771 165.175C-297.047 153.132 -380.064 194.795 -426.011 146.892C-471.354 99.6192 -426.896 19.6573 -433.824 -45.4781C-440.401 -107.307 -486.489 -166.878 -465.615 -225.448C-444.529 -284.615 -385.491 -325.328 -326.449 -346.763C-272.58 -366.32 -215.266 -330.897 -158.285 -337.023Z" fill="#7CDEFD"/>
</g>
<g opacity="0.8" filter="url(#filter6_f_801_1091)">
<path fill-rule="evenodd" clip-rule="evenodd" d="M1227.42 432.491C1293.21 426.963 1358.24 370.233 1416.04 395.411C1472.65 420.073 1447.8 490.612 1470.06 538.188C1489.98 580.792 1544.14 614.652 1539.75 659.884C1535.31 705.61 1487.02 739.939 1447.19 773.618C1408.48 806.355 1368.82 843.751 1312.74 851.869C1257.97 859.797 1210.42 823.718 1155.65 815.819C1091.9 806.627 1010.81 838.428 965.939 801.863C921.654 765.78 965.075 704.745 958.309 655.027C951.886 607.833 906.872 562.363 927.259 517.656C947.854 472.494 1005.51 441.418 1063.18 425.056C1115.79 410.128 1171.77 437.166 1227.42 432.491Z" fill="#7CDEFD"/>
</g>
</g>
</g>
<defs>
<filter id="filter0_f_801_1091" x="162" y="-292" width="2666.46" height="2191.73" filterUnits="userSpaceOnUse" color-interpolation-filters="sRGB">
<feFlood flood-opacity="0" result="BackgroundImageFix"/>
<feBlend mode="normal" in="SourceGraphic" in2="BackgroundImageFix" result="shape"/>
<feGaussianBlur stdDeviation="350" result="effect1_foregroundBlur_801_1091"/>
</filter>
<filter id="filter1_f_801_1091" x="-921" y="-331" width="1464.27" height="1580.75" filterUnits="userSpaceOnUse" color-interpolation-filters="sRGB">
<feFlood flood-opacity="0" result="BackgroundImageFix"/>
<feBlend mode="normal" in="SourceGraphic" in2="BackgroundImageFix" result="shape"/>
<feGaussianBlur stdDeviation="225" result="effect1_foregroundBlur_801_1091"/>
</filter>
<filter id="filter2_f_801_1091" x="378" y="-769" width="1539.77" height="1358.21" filterUnits="userSpaceOnUse" color-interpolation-filters="sRGB">
<feFlood flood-opacity="0" result="BackgroundImageFix"/>
<feBlend mode="normal" in="SourceGraphic" in2="BackgroundImageFix" result="shape"/>
<feGaussianBlur stdDeviation="225" result="effect1_foregroundBlur_801_1091"/>
</filter>
<filter id="filter3_f_801_1091" x="380" y="-644" width="1499.77" height="1461.96" filterUnits="userSpaceOnUse" color-interpolation-filters="sRGB">
<feFlood flood-opacity="0" result="BackgroundImageFix"/>
<feBlend mode="normal" in="SourceGraphic" in2="BackgroundImageFix" result="shape"/>
<feGaussianBlur stdDeviation="225" result="effect1_foregroundBlur_801_1091"/>
</filter>
<filter id="filter4_f_801_1091" x="-339" y="-1027" width="1520.89" height="1563.79" filterUnits="userSpaceOnUse" color-interpolation-filters="sRGB">
<feFlood flood-opacity="0" result="BackgroundImageFix"/>
<feBlend mode="normal" in="SourceGraphic" in2="BackgroundImageFix" result="shape"/>
<feGaussianBlur stdDeviation="225" result="effect1_foregroundBlur_801_1091"/>
</filter>
<filter id="filter5_f_801_1091" x="-921" y="-844" width="1532.76" height="1507.89" filterUnits="userSpaceOnUse" color-interpolation-filters="sRGB">
<feFlood flood-opacity="0" result="BackgroundImageFix"/>
<feBlend mode="normal" in="SourceGraphic" in2="BackgroundImageFix" result="shape"/>
<feGaussianBlur stdDeviation="225" result="effect1_foregroundBlur_801_1091"/>
</filter>
<filter id="filter6_f_801_1091" x="578.506" y="45.5059" width="1304.99" height="1150.99" filterUnits="userSpaceOnUse" color-interpolation-filters="sRGB">
<feFlood flood-opacity="0" result="BackgroundImageFix"/>
<feBlend mode="normal" in="SourceGraphic" in2="BackgroundImageFix" result="shape"/>
<feGaussianBlur stdDeviation="171.747" result="effect1_foregroundBlur_801_1091"/>
</filter>
<clipPath id="clip0_801_1091">
<rect width="1440" height="1370" fill="white"/>
</clipPath>
<clipPath id="clip1_801_1091">
<rect width="1440" height="2148" fill="white"/>
</clipPath>
</defs>
</svg>
