<svg width="665" height="531" viewBox="0 0 665 531" fill="none" xmlns="http://www.w3.org/2000/svg">
<path d="M191.981 297.187C234.782 284.634 250.597 266.056 257.007 251.028C269.118 222.641 251.076 198.708 267.486 180.762C283.071 163.758 314.566 168.633 325.18 170.283C349.632 174.122 349.325 186.444 373.412 192.297C406.443 200.32 420.223 182.298 438.438 193.353C458.321 205.387 446.671 231.892 466.766 246.844C490.719 264.655 530.103 223.812 553.422 240.587C568.45 251.354 568.009 277.495 573.018 276.842C578.028 276.19 573.709 250.663 587.067 242.544C595.551 237.382 601.961 244.886 613.208 239.934C625.511 234.503 630.309 220.031 633.457 210.531C637.216 198.941 638.111 186.613 636.067 174.602C647.103 205.31 643.149 222.162 636.719 232.084C631.595 240.011 627.468 239.493 609.849 253.657C581.444 276.593 581.367 286.765 570.005 287.629C550.543 289.087 544.152 258.974 521.005 259.204C506.419 259.357 503.06 270.048 484.539 278.397C452.89 292.484 409.379 285.095 401.683 267.917C393.219 249.012 435.443 213.793 431.048 209.187C426.653 204.581 392.662 245.654 363.873 237.497C337.464 229.954 333.452 185.676 312.474 186.098C304.394 186.232 297.12 192.777 293.589 198.689C277.217 226.211 325.737 268.57 312.474 290.661C300.325 310.929 247.123 295.939 245.299 303.578C243.38 311.984 309.672 322.771 366.042 368.584C379.995 379.908 439.877 428.581 430.741 467.082C414.792 534.852 189.697 547.884 176.589 509.614C168.489 486.064 246.585 459.309 250.078 397.892C252.439 356.473 219.677 320.717 191.981 297.187Z" fill="#2A3FFF"/>
<path d="M437.285 159.373C449.373 156.834 459.783 167.517 465.298 162.727C468.667 159.811 465.842 154.946 469.634 151.712C473.955 148.026 483.081 149.567 489.276 153.722C498.448 159.901 498.342 170.025 504.718 170.689C505.253 170.775 505.799 170.775 506.335 170.689C509.239 170.137 512.007 169.018 514.478 167.396C520.9 162.863 550.922 180.677 554.866 176.658C558.447 173.001 535.903 155.595 539.424 139.625C543.957 119.258 586.595 120.164 589.813 100.341C591.324 90.9427 583.135 82.3002 578.194 77.1026C558.099 55.9496 531.718 63.2777 525.538 50.9183C522.063 43.9529 524.723 30.1883 554.866 0C522.381 17.2095 515.793 31.7295 515.506 41.6714C514.796 67.5989 556.633 85.0804 550.786 103.619C547.024 115.631 527.624 114.332 523.091 129.819C519.313 142.707 529.663 153.51 526.309 156.577C520.598 161.82 480.06 119.832 467.67 128.036C460.795 132.569 467.005 149.793 459.964 152.981C453.664 155.837 446.88 141.952 435.533 142.405C423.687 142.904 413.382 158.678 410.587 171.717C405.208 196.798 426.573 216.652 428.069 218.012C417.311 207.435 413.231 192.326 417.779 179.438C418.112 178.546 424.155 162.138 437.285 159.373Z" fill="#2A3FFF"/>
<g clip-path="url(#clip0_3604_2215)">
<path d="M584.661 -428.712C554.687 -464.628 485.425 -444.095 480.221 -424.186C475.799 -407.246 517.278 -388.905 511.206 -366.671C507.337 -352.558 488.391 -351.899 486.679 -338.744C484.326 -320.649 518.403 -307.343 515.623 -298.495C511.215 -284.479 425.079 -316.536 403.543 -287.841C388.862 -268.288 404.414 -221.459 433.959 -203.107C462.6 -185.291 487.827 -204.756 504.511 -187.822C528.894 -163.112 489.711 -106.625 512.024 -86.7198C528.194 -72.2507 553.974 -97.5974 604.272 -87.0774C619.939 -83.7772 645.32 -78.4658 660.454 -58.3135C680.291 -31.8394 660.376 -9.49871 678.229 25.1162C694.865 57.3604 720.53 50.739 728.379 77.01C738.253 110.059 709.835 158.414 676.679 167.504C661.084 171.738 652.114 165.342 643.538 172.948C625.749 188.711 650.872 228.578 638.162 238.024C622.54 249.625 567.284 202.266 552.554 173.184C543.436 155.203 543.091 148.656 539.236 121.316C530.044 56.3637 488.296 -13.0594 447.516 -16.9358C431.708 -18.4464 430.709 -8.69946 406.196 -0.775032C356.531 15.3278 328.893 -14.4022 226.787 -28.6785C202.717 -32.0284 152.273 -36.0546 144.453 -17.7521C136.894 -0.0688583 182.663 26.7602 175.031 43.93C168.999 57.5015 138.68 45.4364 106.249 57.8638C48.481 79.992 32.7944 161.176 31.386 168.903C29.3109 180.287 18.3587 249.626 66.2263 304.79C81.0826 321.891 103.607 347.854 134.61 348.745C192.764 350.323 213.871 261.662 326.529 197.005C347.234 185.071 372.692 173.077 393.742 182.934C414.226 192.54 499.956 282.168 504.5 300.242C515.318 343.467 512.524 387 433 375C406 368 383.641 364.902 360 359.5C304.69 346.696 273.548 375.754 175.116 406.586C130.683 420.513 123.275 414.291 87.4644 431.029C44.6874 451.018 -1.81138 486.648 4.35349 502.943C6.32755 508.174 13.6422 511.045 93.897 509.798C178.363 508.522 195.156 504.933 198.806 494.873C204.316 479.688 173.372 467.898 175.349 447.085C178.617 412.486 260.624 405.782 349 416.5C402.296 422.973 451.405 444.973 468.76 426C504 406.586 573.573 437.5 570 406.586C565.902 371.126 483.588 312 468.76 284.5C458.588 236.818 494.363 210.647 483.588 176.341C474.685 148.025 423.709 129.231 381.904 137.078C346.374 143.736 338.965 164.762 256.649 234.653C195.267 286.779 165.089 304.026 148.376 294.571C139.223 289.383 142.171 280.733 128.9 266.422C106.646 242.434 83.9061 251.2 72.3946 236.079C51.8405 209.067 82.6922 126.517 138.327 101.759C163.233 90.6641 181.431 96.6486 196.938 78.7655C215.749 56.8905 200.722 34.2197 217.607 15.18C241.58 -11.941 299.909 2.39553 310.191 4.84389C362.052 17.464 375.335 47.4672 408.567 40.9097C434.701 35.7814 437.351 15.1472 453.159 16.6577C484.442 19.6738 484.693 100.743 532.332 186.54C545.488 210.222 596.425 305.272 651.558 300.242C666.88 298.83 686.247 289.357 691.36 274.414C698.126 254.678 674.309 242.316 673.566 216.302C672.847 190.868 694.95 178.577 736.22 134.325C783.069 84.0699 807.157 58.2479 800.525 38.9229C789.475 6.7335 704.357 24.5992 687.474 -15.7479C676.994 -40.7944 705.266 -58.6663 694.345 -82.515C679.312 -115.319 622.47 -94.0043 567.799 -136.034C545.751 -153.019 555.902 -157.374 519.834 -192.697C483.767 -228.02 457.943 -238.322 461.809 -251.195C467.353 -269.616 520.251 -264.012 531.837 -294.132C536.058 -305.088 530.671 -309.997 536.638 -320.469C546.853 -338.39 567.899 -333.294 582.942 -347.002C601.351 -364.133 604.458 -405.172 584.661 -428.712Z" fill="white"/>
</g>
<defs>
<clipPath id="clip0_3604_2215">
<rect width="881" height="158" fill="white" transform="translate(0 352)"/>
</clipPath>
</defs>
</svg>
