<svg width="390" height="496" viewBox="0 0 390 496" fill="none" xmlns="http://www.w3.org/2000/svg">
<path d="M301.469 10.1654C285.977 -8.3978 250.18 2.21467 247.49 12.5046C245.205 21.2599 266.643 30.7394 263.505 42.2305C261.505 49.5251 251.713 49.8657 250.828 56.6646C249.612 66.0168 267.224 72.894 265.787 77.4669C263.509 84.7108 218.991 68.1427 207.86 82.9735C200.272 93.0791 208.31 117.282 223.58 126.767C238.383 135.976 251.421 125.915 260.044 134.668C272.647 147.438 252.395 176.634 263.927 186.921C272.285 194.399 285.609 181.299 311.605 186.736C319.702 188.442 332.82 191.187 340.642 201.603C350.895 215.286 340.602 226.832 349.829 244.723C358.427 261.388 371.692 257.966 375.748 271.544C380.852 288.625 366.165 313.616 349.028 318.315C340.968 320.503 336.332 317.197 331.9 321.129C322.705 329.276 335.69 349.88 329.121 354.762C321.047 360.758 292.488 336.281 284.875 321.251C280.162 311.957 279.984 308.573 277.992 294.443C273.241 260.873 251.664 224.992 230.587 222.988C222.417 222.208 221.901 227.245 209.231 231.341C183.562 239.664 169.278 224.298 116.505 216.919C104.064 215.188 77.993 213.107 73.9512 222.567C70.0445 231.706 93.6996 245.572 89.755 254.446C86.6378 261.461 70.9674 255.225 54.2058 261.648C24.349 273.085 16.2414 315.044 15.5135 319.038C14.4411 324.921 8.7805 360.759 33.5204 389.27C41.1988 398.108 52.8402 411.527 68.8643 411.987C98.9203 412.803 109.83 366.98 168.056 333.562C178.757 327.394 191.915 321.195 202.794 326.29C213.381 331.254 216.595 343.941 218.943 353.283C224.534 375.623 221.434 407.025 206.666 412.653C199.245 415.484 195.55 409.277 183.331 406.485C154.745 399.867 140.673 425.947 89.799 441.883C66.8343 449.08 63.0056 445.864 44.4972 454.516C22.3882 464.847 -9.6847 486.805 -6.49844 495.227C-2.49844 496 6.34278 495.871 47.8218 495.227C91.4775 494.567 100.157 492.712 102.043 487.513C104.891 479.664 88.8977 473.571 89.9198 462.814C91.6087 444.931 139.175 424.707 184.852 430.247C212.397 433.592 232.597 445.507 241.566 435.701C246.497 430.3 245.44 421.175 244.607 413.766C242.489 395.439 232.998 391.708 230.293 379.018C225.036 354.374 254.799 340.613 249.23 322.882C244.629 308.247 218.282 298.533 196.676 302.589C178.313 306.03 174.483 316.898 131.939 353.02C100.214 379.961 84.6168 388.875 75.9788 383.988C71.2482 381.307 72.7718 376.836 65.9128 369.439C54.4109 357.041 42.6581 361.572 36.7085 353.757C26.0852 339.796 42.0307 297.131 70.7851 284.335C83.6574 278.601 93.0629 281.694 101.078 272.451C110.8 261.145 103.033 249.428 111.76 239.587C124.151 225.57 154.298 232.98 159.612 234.245C186.416 240.768 193.281 256.275 210.456 252.885C223.964 250.235 225.333 239.57 233.503 240.351C249.672 241.91 249.801 283.81 274.423 328.153C281.223 340.393 307.549 389.519 336.044 386.919C343.963 386.189 353.973 381.293 356.616 373.57C360.113 363.37 347.803 356.98 347.419 343.536C347.047 330.39 358.471 324.038 379.801 301.167C404.014 275.192 416.464 261.847 413.037 251.859C407.326 235.222 363.333 244.455 354.607 223.602C349.191 210.657 363.803 201.42 358.158 189.094C350.389 172.14 321.011 183.156 292.754 161.434C281.359 152.655 286.605 150.404 267.964 132.148C249.323 113.891 235.976 108.567 237.974 101.913C240.839 92.3928 268.18 95.2891 274.168 79.722C276.349 74.0593 273.565 71.522 276.649 66.11C281.928 56.8474 292.806 59.4812 300.581 52.3967C310.095 43.5422 311.701 22.3319 301.469 10.1654Z" fill="white"/>
<g clip-path="url(#clip0_3618_1108)">
<path d="M37.2057 40.1937C30.5806 52.047 13.7543 82.0753 24.6052 99.3392C35.209 116.321 64.2872 107.986 68.5782 122.02C71.7412 132.358 59.4633 148.263 47.4432 155.338C40.9965 159.107 38.2554 158.24 31.1704 163.173C27.5007 165.727 15.1636 174.323 14.6928 184.672C13.9916 199.762 38.8866 211.034 43.4248 213.087C68.989 224.662 94.5691 219.523 102.927 217.732C132.882 211.304 138.061 197.941 164.918 197.626C177.132 197.486 194.893 200.026 196.868 207.69C199.078 216.227 179.417 222.35 175.381 238.35C171.345 254.35 182.606 273.115 196.062 282.521C221.831 300.502 262.698 288.659 270.189 270.109C276.076 255.531 257.94 245.245 262.527 221.478C265.921 203.897 279.108 192.595 285.703 186.94C292.201 181.377 304.791 172.352 333.487 166.638C362.648 160.815 420.769 155.963 428.25 176.046C432.634 187.791 417.916 203.316 413.991 207.457C398.856 223.43 381.501 225.797 358.718 232.517C331.625 240.496 304.834 248.384 282.32 266.624C272.108 274.903 232.125 307.291 239.566 349.717C243.872 374.552 263.785 398.931 288.248 404.677C324.614 413.273 362.22 378.612 365.916 383.944C368.88 388.226 340.205 404.235 340.93 427.281C341.502 445.798 360.737 458.908 368.027 463.916C383.928 474.774 409.781 483.607 431.691 475.941C484.56 457.376 480.184 354.741 475.331 353.568C471.741 352.704 468.565 407.633 430.041 427.757C410.385 438.026 385.156 437.673 371.823 428.769C368.209 426.353 364.849 423.19 363.486 419.056C360.792 410.893 366.996 402.118 374.617 398.141C382.239 394.165 391.09 393.43 399.372 391.142C407.653 388.854 416.224 384.109 418.874 375.915C419.364 374.72 419.405 373.388 418.989 372.165C416.834 367.282 407.578 373.129 404.405 368.829C410.471 366.699 407.351 356.262 401.054 354.92C394.758 353.578 388.727 357.565 383.279 360.992C363.92 373.152 341.886 380.404 319.089 382.116C308.757 382.871 284.81 385.226 270.79 370.425C251.71 350.263 265.172 313.385 267.228 307.745C276.997 280.969 297.603 266.626 304.767 261.778C310.454 257.816 316.585 254.533 323.036 251.997C349.511 241.866 368.22 239.047 382.643 236.132C419.057 228.792 464.158 203.334 464.157 178.522C464.153 166.361 453.325 153.812 442.431 149.37C436.586 146.964 428.899 147.561 413.534 148.718C399.774 149.747 389.766 151.86 386.947 152.707C379.799 154.856 372.881 157.861 365.538 159.219C353.403 161.458 340.888 159.066 328.587 160.006C307.721 161.595 288.895 172.561 270.904 183.259C260.141 189.658 242.182 205.24 244.699 219.093C245.827 225.231 251.915 235.568 256.083 242.64C258.538 246.813 261.204 250.91 259.978 255.495C259.029 258.935 255.961 262.551 253.131 262.324C249.265 261.971 249.7 254.822 243.574 249.762C238.589 245.651 230.046 243.546 226.173 246.75C221.319 250.809 227.877 260.078 222.013 268.083C218.176 273.365 211.737 274.236 210.773 274.342C200.77 275.544 193.259 266.226 189.249 260.418C184.304 253.235 183.244 243.033 188.172 235.832C191.971 230.286 198.442 227.347 204.396 224.211C213.659 219.372 222.652 213.071 227.465 203.817C232.279 194.563 231.673 181.824 223.664 175.142C216.095 168.82 204.912 169.704 195.376 172.201C155.695 182.563 120.257 214.597 79.6114 209.211C73.7705 208.431 67.7849 206.739 63.4819 202.714C59.179 198.688 57.0855 191.856 59.935 186.673C61.5337 183.754 64.5896 180.523 62.8042 177.715C61.6596 175.917 59.1679 175.697 57.2937 174.704C52.4033 172.117 52.6768 164.464 56.3608 160.336C60.0448 156.208 65.6986 154.622 70.9622 152.928C79.2736 150.255 87.342 146.879 95.0797 142.835C104.512 137.9 114.7 129.02 112.042 118.718C110.08 111.122 101.773 106.958 94.018 105.816C84.1151 104.359 74.0868 106.228 64.0594 106.227C54.032 106.225 43.1816 103.864 36.8937 96.0883C28.3004 85.4642 28.3526 56.2185 37.2057 40.1937Z" fill="#001092"/>
</g>
<defs>
<clipPath id="clip0_3618_1108">
<rect width="634" height="452" fill="white" transform="translate(-54 40)"/>
</clipPath>
</defs>
</svg>
