<svg width="662" height="1014" viewBox="0 0 662 1014" fill="none" xmlns="http://www.w3.org/2000/svg">
<path d="M581.66 74.2878C551.685 38.3712 482.423 58.9045 477.219 78.8139C472.798 95.7537 514.277 114.095 508.205 136.328C504.335 150.442 485.389 151.101 483.677 164.256C481.324 182.351 515.401 195.657 512.621 204.505C508.214 218.52 422.078 186.464 400.542 215.159C385.86 234.712 401.413 281.54 430.957 299.892C459.599 317.709 484.826 298.244 501.51 315.178C525.893 339.887 486.71 396.375 509.023 416.28C525.193 430.749 550.973 405.402 601.271 415.922C616.938 419.222 642.318 424.534 657.452 444.686C677.289 471.16 657.375 493.501 675.227 528.116C691.863 560.36 717.529 553.739 725.377 580.01C735.251 613.059 706.834 661.413 673.677 670.504C658.082 674.737 649.113 668.342 640.537 675.948C622.748 691.711 647.87 731.578 635.161 741.024C619.538 752.625 564.282 705.265 549.553 676.184C540.434 658.203 540.089 651.656 536.234 624.316C527.042 559.363 485.294 489.94 444.514 486.064C428.706 484.553 427.708 494.3 403.195 502.225C353.529 518.327 325.892 488.597 223.785 474.321C199.715 470.971 149.271 466.945 141.451 485.247C133.892 502.931 179.661 529.76 172.029 546.93C165.998 560.501 135.678 548.436 103.247 560.863C45.4795 582.992 29.7928 664.175 28.3844 671.902C26.3094 683.287 15.3572 752.625 63.2247 807.789C78.0811 824.89 100.605 850.854 131.609 851.744C189.762 853.323 210.87 764.662 323.528 700.005C344.232 688.071 369.691 676.077 390.741 685.934C411.225 695.539 417.442 720.087 421.986 738.161C432.803 781.385 509.523 890 429.998 878C402.998 871 380.639 867.902 356.998 862.5C301.688 849.695 270.547 878.754 172.114 909.586C127.681 923.512 120.273 917.29 84.4628 934.029C41.6858 954.018 -4.81292 989.648 1.35195 1005.94C3.32601 1011.17 10.6406 1014.04 90.8955 1012.8C175.362 1011.52 192.155 1007.93 195.804 997.873C201.314 982.687 170.37 970.897 172.348 950.085C175.616 915.485 257.622 908.782 345.998 919.5C399.294 925.972 448.403 947.972 465.758 929C500.998 909.586 570.571 940.5 566.998 909.586C562.9 874.125 480.586 815 465.758 787.5C455.586 739.818 491.361 713.647 480.586 679.34C471.684 651.025 420.708 632.23 378.902 640.078C343.373 646.735 335.964 667.762 253.648 737.653C192.265 789.779 162.087 807.026 145.374 797.57C136.222 792.382 139.169 783.732 125.898 769.421C103.644 745.433 80.9045 754.199 69.393 739.079C48.8389 712.067 79.6907 629.517 135.325 604.758C160.231 593.664 178.429 599.648 193.937 581.765C212.747 559.89 197.72 537.219 214.606 518.18C238.578 491.059 296.908 505.395 307.19 507.844C359.05 520.464 372.333 550.467 405.566 543.909C431.7 538.781 434.349 518.147 450.157 519.657C481.441 522.673 481.691 603.742 529.33 689.54C542.487 713.222 593.424 808.271 648.557 803.242C663.878 801.83 683.245 792.356 688.359 777.413C695.125 757.678 671.307 745.315 670.564 719.302C669.845 693.867 691.949 681.577 733.219 637.325C780.067 587.07 804.155 561.248 797.523 541.923C786.473 509.733 701.355 527.599 684.473 487.252C673.992 462.205 702.264 444.333 691.343 420.485C676.31 387.68 619.469 408.995 564.797 366.966C542.749 349.98 552.9 345.625 516.833 310.302C480.765 274.979 454.941 264.678 458.807 251.805C464.351 233.384 517.25 238.988 528.836 208.868C533.056 197.912 527.67 193.002 533.636 182.531C543.851 164.609 564.898 169.705 579.941 155.998C598.35 138.866 601.457 97.8279 581.66 74.2878Z" fill="white"/>
<path d="M135.304 -48.8247C155.928 -31.3065 192.367 4.6566 187.75 46.2197C184.166 78.4822 159.631 80.0225 130.36 132.388C117.542 155.322 84.9858 213.422 105.98 246.824C126.497 279.681 182.758 263.554 191.061 290.708C197.18 310.71 173.425 341.484 150.168 355.172C137.695 362.465 132.391 360.787 118.683 370.331C111.583 375.273 87.7124 391.905 86.8015 411.929C85.4449 441.126 133.612 462.934 142.393 466.907C191.855 489.302 241.349 479.36 257.52 475.894C315.478 463.457 325.498 437.603 377.461 436.992C401.094 436.721 435.458 441.636 439.279 456.464C443.554 472.982 405.514 484.828 397.705 515.786C389.896 546.744 411.684 583.05 437.719 601.249C487.579 636.039 566.649 613.126 581.143 577.234C592.533 549.028 557.443 529.128 566.318 483.141C572.885 449.126 598.4 427.258 611.16 416.317C623.732 405.554 648.092 388.091 703.613 377.036C760.036 365.77 872.49 356.381 886.963 395.239C895.445 417.963 866.969 448.002 859.374 456.013C830.092 486.918 796.512 491.498 752.432 504.5C700.011 519.938 648.175 535.2 604.614 570.492C584.855 586.51 507.496 649.175 521.893 731.263C530.224 779.314 568.753 826.483 616.083 837.6C686.447 854.231 759.207 787.168 766.359 797.486C772.093 805.771 716.611 836.745 718.014 881.335C719.122 917.162 756.338 942.527 770.442 952.218C801.208 973.226 851.23 990.316 893.622 975.483C995.915 939.563 987.447 740.983 978.058 738.713C971.112 737.041 964.965 843.32 890.429 882.255C852.398 902.126 803.584 901.443 777.787 884.214C770.795 879.539 764.294 873.419 761.656 865.421C756.445 849.627 768.447 832.648 783.194 824.955C797.94 817.262 815.066 815.839 831.089 811.412C847.111 806.985 863.694 797.805 868.822 781.95C869.77 779.638 869.849 777.062 869.046 774.696C864.875 765.247 846.966 776.561 840.827 768.241C852.563 764.119 846.527 743.925 834.345 741.329C822.163 738.733 810.493 746.448 799.951 753.078C762.496 776.606 719.863 790.636 675.755 793.949C655.766 795.41 609.431 799.966 582.306 771.328C545.389 732.319 571.435 660.966 575.413 650.054C594.315 598.247 634.184 570.495 648.046 561.116C659.049 553.449 670.912 547.097 683.393 542.191C734.617 522.588 770.815 517.136 798.722 511.495C869.176 497.292 956.439 448.036 956.438 400.03C956.43 376.5 935.479 352.22 914.4 343.625C903.093 338.97 888.219 340.125 858.491 342.364C831.867 344.355 812.503 348.443 807.05 350.082C793.219 354.239 779.834 360.054 765.628 362.682C742.147 367.013 717.933 362.385 694.133 364.205C653.76 367.278 617.336 388.497 582.527 409.195C561.702 421.576 526.953 451.723 531.824 478.528C534.006 490.403 545.786 510.404 553.85 524.087C558.6 532.161 563.758 540.088 561.386 548.958C559.549 555.614 553.615 562.611 548.138 562.172C540.658 561.488 541.5 547.656 529.648 537.866C520.003 529.912 503.473 525.84 495.98 532.039C486.588 539.891 499.276 557.826 487.93 573.314C480.508 583.535 468.049 585.219 466.182 585.424C446.828 587.751 432.296 569.721 424.539 558.485C414.97 544.586 412.919 524.848 422.455 510.915C429.804 500.183 442.324 494.498 453.845 488.43C471.767 479.067 489.166 466.876 498.48 448.971C507.793 431.066 506.622 406.418 491.126 393.49C476.481 381.257 454.843 382.969 436.393 387.799C359.616 407.849 291.05 469.827 212.408 459.408C201.107 457.899 189.526 454.625 181.2 446.836C172.875 439.047 168.824 425.828 174.337 415.801C177.431 410.152 183.343 403.9 179.889 398.468C177.674 394.989 172.853 394.563 169.227 392.642C159.765 387.637 160.294 372.829 167.422 364.843C174.55 356.856 185.489 353.787 195.673 350.509C211.754 345.338 227.365 338.805 242.336 330.982C260.586 321.433 280.298 304.251 275.155 284.32C271.36 269.622 255.286 261.565 240.282 259.356C221.122 256.536 201.719 260.153 182.317 260.15C162.916 260.148 141.923 255.58 129.757 240.534C113.13 219.979 120.367 187.927 137.764 168.02C155.16 148.114 180.108 136.856 203.128 123.916C235.551 105.749 249.821 90.9457 258.341 69.4169C273.848 30.185 250.737 -10.2743 246.976 -16.5424C234.748 -37.1417 218.838 -47.9598 198.304 -61.9715C193.463 -65.2709 175.939 -76.964 146.286 -88.999L135.304 -48.8247Z" fill="#001092"/>
</svg>
