<svg width="984" height="1103" viewBox="0 0 984 1103" fill="none" xmlns="http://www.w3.org/2000/svg">
<path d="M581.662 163.288C551.687 127.371 482.425 147.905 477.221 167.814C472.8 184.754 514.279 203.095 508.207 225.328C504.337 239.442 485.391 240.101 483.679 253.256C481.326 271.351 515.403 284.657 512.623 293.505C508.216 307.52 422.08 275.464 400.544 304.159C385.862 323.712 401.415 370.54 430.959 388.892C459.601 406.709 484.827 387.244 501.512 404.178C525.895 428.887 486.712 485.375 509.025 505.28C525.195 519.749 550.975 494.402 601.273 504.922C616.94 508.222 642.32 513.534 657.454 533.686C677.291 560.16 657.377 582.501 675.229 617.116C691.865 649.36 717.531 642.739 725.379 669.01C735.253 702.059 706.836 750.413 673.679 759.504C658.084 763.737 649.115 757.342 640.539 764.948C622.75 780.711 647.872 820.578 635.163 830.024C619.54 841.625 564.284 794.265 549.555 765.184C540.436 747.203 540.091 740.656 536.236 713.316C527.044 648.363 485.296 578.94 444.516 575.064C428.708 573.553 427.71 583.3 403.197 591.225C353.531 607.327 325.894 577.597 223.787 563.321C199.717 559.971 149.273 555.945 141.453 574.247C133.894 591.931 179.663 618.76 172.031 635.93C166 649.501 135.68 637.436 103.249 649.863C45.4815 671.992 29.7948 753.175 28.3864 760.902C26.3114 772.287 15.3592 841.625 63.2267 896.789C78.083 913.89 100.607 939.854 131.611 940.744C189.764 942.323 210.872 853.662 323.53 789.005C344.234 777.071 369.693 765.077 390.743 774.934C411.227 784.539 417.444 809.087 421.988 827.161C432.805 870.385 509.525 979 430 967C403 960 380.641 956.902 357 951.5C301.69 938.695 270.548 967.754 172.116 998.586C127.683 1012.51 120.275 1006.29 84.4648 1023.03C41.6878 1043.02 -4.81096 1078.65 1.35391 1094.94C3.32795 1100.17 10.6426 1103.04 90.8974 1101.8C175.364 1100.52 192.157 1096.93 195.806 1086.87C201.316 1071.69 170.372 1059.9 172.35 1039.08C175.617 1004.49 257.624 997.782 346 1008.5C399.296 1014.97 448.405 1036.97 465.76 1018C501 998.586 570.573 1029.5 567 998.586C562.902 963.125 480.588 904 465.76 876.5C455.588 828.818 491.363 802.647 480.588 768.34C471.685 740.025 420.709 721.23 378.904 729.078C343.374 735.735 335.966 756.762 253.65 826.653C192.267 878.779 162.089 896.026 145.376 886.57C136.223 881.382 139.171 872.732 125.9 858.421C103.646 834.433 80.9065 843.199 69.395 828.079C48.8409 801.067 79.6926 718.517 135.327 693.758C160.233 682.664 178.431 688.648 193.939 670.765C212.749 648.89 197.722 626.219 214.608 607.18C238.58 580.059 296.91 594.395 307.192 596.844C359.052 609.464 372.335 639.467 405.567 632.909C431.702 627.781 434.351 607.147 450.159 608.657C481.442 611.673 481.693 692.742 529.332 778.54C542.489 802.222 593.426 897.271 648.559 892.242C663.88 890.83 683.247 881.356 688.361 866.413C695.126 846.678 671.309 834.315 670.566 808.302C669.847 782.868 691.95 770.577 733.221 726.325C780.069 676.07 804.157 650.248 797.525 630.922C786.475 598.733 701.357 616.599 684.475 576.252C673.994 551.205 702.266 533.333 691.345 509.485C676.312 476.68 619.471 497.995 564.799 455.966C542.751 438.98 552.902 434.625 516.835 399.302C480.767 363.979 454.943 353.678 458.809 340.805C464.353 322.384 517.252 327.988 528.838 297.868C533.058 286.912 527.672 282.002 533.638 271.531C543.853 253.609 564.9 258.705 579.943 244.998C598.352 227.866 601.459 186.828 581.662 163.288Z" fill="white"/>
<path d="M135.304 40.1743C155.929 57.6926 192.367 93.6556 187.75 135.219C184.167 167.481 159.631 169.021 130.36 221.387C117.542 244.321 84.9862 302.421 105.981 335.823C126.497 368.68 182.759 352.553 191.061 379.707C197.181 399.709 173.425 430.483 150.168 444.171C137.695 451.464 132.392 449.785 118.683 459.33C111.583 464.272 87.7129 480.904 86.802 500.928C85.4453 530.125 133.613 551.933 142.394 555.906C191.856 578.301 241.349 568.359 257.52 564.893C315.478 552.456 325.498 526.602 377.461 525.991C401.094 525.72 435.459 530.635 439.28 545.463C443.555 561.981 405.515 573.827 397.706 604.785C389.896 635.743 411.685 672.049 437.72 690.248C487.579 725.038 566.65 702.125 581.143 666.233C592.533 638.027 557.444 618.126 566.318 572.141C572.886 538.125 598.4 516.257 611.16 505.316C623.732 494.553 648.092 477.09 703.613 466.035C760.036 454.769 872.49 445.38 886.964 484.238C895.445 506.962 866.97 537.001 859.375 545.012C830.092 575.917 796.512 580.497 752.432 593.499C700.011 608.937 648.176 624.199 604.615 659.491C584.856 675.509 507.497 738.174 521.893 820.262C530.224 868.313 568.753 915.482 616.084 926.599C686.447 943.23 759.207 876.167 766.359 886.485C772.094 894.77 716.611 925.744 718.015 970.334C719.122 1006.16 756.338 1031.53 770.443 1041.22C801.208 1062.22 851.23 1079.31 893.622 1064.48C995.915 1028.56 987.447 829.982 978.059 827.712C971.112 826.04 964.966 932.319 890.43 971.254C852.399 991.125 803.584 990.442 777.788 973.213C770.796 968.538 764.295 962.418 761.656 954.42C756.445 938.626 768.448 921.647 783.194 913.954C797.94 906.261 815.066 904.838 831.089 900.411C847.112 895.984 863.695 886.804 868.823 870.949C869.77 868.637 869.85 866.061 869.046 863.695C864.875 854.246 846.967 865.56 840.828 857.24C852.564 853.118 846.528 832.924 834.345 830.328C822.163 827.732 810.494 835.447 799.952 842.077C762.496 865.605 719.864 879.635 675.756 882.948C655.766 884.409 609.432 888.965 582.306 860.327C545.39 821.318 571.435 749.965 575.414 739.053C594.315 687.246 634.185 659.494 648.047 650.115C659.049 642.448 670.912 636.096 683.393 631.19C734.617 611.587 770.816 606.135 798.722 600.494C869.177 586.291 956.439 537.035 956.439 489.029C956.431 465.499 935.48 441.219 914.401 432.624C903.094 427.969 888.22 429.124 858.491 431.363C831.868 433.355 812.503 437.442 807.051 439.081C793.219 443.238 779.835 449.053 765.628 451.681C742.147 456.012 717.934 451.384 694.134 453.204C653.761 456.277 617.336 477.496 582.527 498.194C561.702 510.575 526.954 540.722 531.825 567.527C534.007 579.402 545.787 599.403 553.85 613.086C558.6 621.161 563.759 629.087 561.387 637.957C559.55 644.613 553.615 651.61 548.138 651.171C540.658 650.487 541.501 636.655 529.648 626.865C520.003 618.911 503.473 614.839 495.98 621.038C486.589 628.89 499.276 646.825 487.931 662.313C480.508 672.534 468.049 674.218 466.183 674.423C446.829 676.75 432.296 658.72 424.539 647.484C414.971 633.585 412.919 613.847 422.455 599.914C429.804 589.182 442.324 583.497 453.846 577.429C471.768 568.066 489.167 555.875 498.48 537.97C507.794 520.065 506.622 495.417 491.126 482.489C476.481 470.256 454.843 471.968 436.393 476.798C359.616 496.848 291.051 558.826 212.408 548.407C201.107 546.898 189.526 543.624 181.201 535.835C172.875 528.046 168.825 514.827 174.338 504.8C177.431 499.151 183.344 492.899 179.889 487.467C177.675 483.988 172.854 483.562 169.227 481.641C159.765 476.636 160.295 461.828 167.422 453.842C174.55 445.855 185.49 442.786 195.673 439.508C211.755 434.337 227.366 427.804 242.337 419.981C260.586 410.432 280.298 393.25 275.156 373.319C271.36 358.621 255.286 350.564 240.283 348.355C221.122 345.535 201.719 349.152 182.318 349.149C162.917 349.147 141.923 344.579 129.757 329.533C113.13 308.978 120.367 276.926 137.764 257.019C155.161 237.113 180.109 225.855 203.129 212.915C235.551 194.748 249.822 179.945 258.341 158.416C273.848 119.184 250.737 78.7247 246.976 72.4566C234.748 51.8573 218.839 41.0392 198.305 27.0275C193.464 23.7281 175.94 12.035 146.286 0L135.304 40.1743Z" fill="#001092"/>
</svg>
