<svg width="216" height="28" viewBox="0 0 216 28" fill="none" xmlns="http://www.w3.org/2000/svg">
<path d="M2.37348 18.7929L2.31448 18.7625C2.29554 18.7516 2.28037 18.7351 2.27095 18.7154C2.26154 18.6956 2.25832 18.6735 2.26173 18.6519C2.28458 18.3556 2.2879 17.6131 1.82835 17.118C1.36539 16.6196 1.34581 15.886 1.3289 15.2386C1.32537 15.1074 1.32224 14.9836 1.31558 14.8648C1.28728 14.3738 1.19571 14.3126 0.892581 14.1095C0.801015 14.0481 0.687075 13.9717 0.555886 13.8694C-0.0967252 13.3602 -0.0367913 11.0767 0.0583702 10.3025C0.224853 8.95283 0.472712 8.05835 0.795488 7.64315C1.27496 7.02656 1.49698 6.51986 1.43924 6.44168C1.43343 6.43952 1.42732 6.43828 1.42113 6.43801C1.02324 6.40745 1.04754 6.04145 1.05926 5.86565C1.06113 5.83694 1.06299 5.81071 1.06299 5.78846C1.06299 5.61845 1.36612 4.91423 1.45909 4.7024C2.15978 3.11229 4.17735 0.635697 4.19766 0.610858L4.30181 0.483398L4.36681 0.634631C5.66191 3.6507 6.58708 4.11219 7.33053 4.48298C7.39985 4.5176 7.46778 4.55143 7.53437 4.58646L7.62993 4.63667L7.57199 4.7285C6.7523 6.03193 4.57491 7.60159 4.1942 7.68097L4.16017 7.68803L4.16683 7.69336L4.20119 7.71946C4.37992 7.85438 4.62465 8.03911 4.63857 8.56786C4.65082 9.03401 3.92223 10.0129 3.21761 10.9603C3.09281 11.128 2.97195 11.2905 2.86127 11.4424C2.27891 12.2415 2.41729 12.3926 2.64657 12.6426C2.67068 12.6692 2.69552 12.6958 2.72043 12.7245C3.04007 13.0895 3.03961 13.1665 2.71463 14.3715C2.46824 15.2856 2.5307 15.5451 2.6553 16.0621C2.69093 16.21 2.73128 16.3777 2.77044 16.5857C2.93026 17.4339 2.54049 18.6735 2.42502 18.7566L2.37348 18.7929ZM4.24847 0.865709C3.82813 1.39219 2.24036 3.42361 1.64129 4.78291C1.45895 5.19852 1.26211 5.70129 1.26211 5.78846C1.26211 5.81444 1.26011 5.84527 1.25791 5.8789C1.24173 6.12183 1.2629 6.22558 1.43585 6.2389C1.47541 6.2398 1.51392 6.25188 1.54691 6.27374C1.57991 6.2956 1.60605 6.32635 1.62231 6.36243C1.77094 6.69853 1.03689 7.65753 0.952714 7.76581C0.656642 8.14646 0.415775 9.03214 0.256151 10.327C0.186605 10.9664 0.1788 11.611 0.232844 12.2519C0.300635 13.0221 0.458861 13.5406 0.678351 13.7119C0.803812 13.8099 0.909762 13.8808 1.00333 13.9435C1.34295 14.1709 1.48186 14.2858 1.51456 14.8533C1.52162 14.9751 1.52495 15.1006 1.52848 15.2334C1.54479 15.8452 1.56331 16.5386 1.97465 16.9821C2.2933 17.3252 2.41323 17.7674 2.45252 18.1305C2.56147 17.7177 2.66722 17.1158 2.57419 16.6222C2.53596 16.4192 2.49621 16.2542 2.46098 16.1085C2.33266 15.5757 2.26193 15.2827 2.52171 14.3191C2.8347 13.1582 2.82484 13.1471 2.56999 12.8556C2.54615 12.8283 2.52238 12.8024 2.49927 12.7772C2.2028 12.454 2.05383 12.2112 2.69972 11.3244C2.81079 11.1719 2.93206 11.009 3.05725 10.8407C3.67743 10.007 4.44905 8.96941 4.43879 8.57265C4.42741 8.14026 4.24328 8.00115 4.08079 7.87849L4.04496 7.85132C4.013 7.82674 3.98436 7.80737 3.96112 7.79138C3.90119 7.75063 3.83866 7.70848 3.85417 7.6295C3.87115 7.54346 3.93655 7.52961 4.15311 7.48466C4.44405 7.42406 6.49052 5.98365 7.34291 4.71285C7.30909 4.69576 7.27488 4.67865 7.24029 4.66151C6.48093 4.28293 5.53864 3.81298 4.24847 0.865709Z" fill="#FAFAFA"/>
<path d="M5.51681 3.05626C5.51681 3.05626 5.91357 3.75043 5.42671 6.6989C4.61514 7.33007 4.48894 7.42023 4.48894 7.42023C4.48894 7.42023 4.79527 5.92349 4.75944 4.60708C4.72362 3.29067 4.19141 0.748013 4.19141 0.748013L4.27398 0.673828L5.51681 3.05626Z" fill="#FAFAFA"/>
<path d="M3.36216 1.875C3.36216 1.875 4.11958 4.17426 3.93019 7.60953C4.10201 7.76332 4.25625 7.9357 4.39008 8.12349C4.3057 8.04006 4.20327 7.97715 4.0907 7.93962C3.97813 7.90209 3.85843 7.89095 3.74087 7.90706C3.33512 7.9612 3.01054 8.15053 2.9564 7.36606C2.90226 6.5816 3.30808 4.63408 2.36133 3.30868C3.03758 2.25371 3.36216 1.875 3.36216 1.875Z" fill="#FAFAFA"/>
<path d="M1.60377 4.58008C1.60377 4.58008 2.22588 5.17515 2.36113 6.23005C2.49638 7.28495 2.41527 8.44813 3.25381 8.55635C4.09235 8.66456 4.53865 8.56967 4.53865 8.56967L4.06525 9.69222C4.06525 9.69222 2.92917 9.90859 2.49638 8.88072C2.06359 7.85286 2.30706 6.50035 1.42796 6.33807C1.03573 6.20282 1.16192 5.78808 1.16192 5.78808L1.60377 4.58008Z" fill="#FAFAFA"/>
<path d="M1.30554 7.0957C1.30554 7.0957 1.7924 7.42034 1.90061 8.77278C2.00882 10.1252 3.36126 10.5851 3.36126 10.5851L2.6039 11.6401C2.6039 11.6401 1.92765 10.9909 1.76536 10.3958C1.60307 9.80071 1.65715 8.52938 0.466797 8.63773C0.575144 8.12363 1.11615 7.3662 1.30554 7.0957Z" fill="#FAFAFA"/>
<path d="M0.279168 9.31445C0.279168 9.31445 0.95542 10.1802 1.25296 10.8563C1.55049 11.5324 2.47021 12.6686 2.47021 12.6686L2.82182 13.0203L2.84893 13.4801C2.84893 13.4801 2.44317 13.2366 2.06446 12.9932C1.68575 12.7497 1.49642 12.4251 1.25296 12.1008C1.00949 11.7765 0.684919 11.4787 0.0898438 11.1812C0.114997 10.5557 0.178222 9.93228 0.279168 9.31445V9.31445Z" fill="#FAFAFA"/>
<path d="M0.117188 11.9648C0.117188 11.9648 0.766403 12.8572 1.00987 12.9927C1.25333 13.1282 2.06477 13.3714 2.28119 13.7772C2.49762 14.1829 2.63281 14.4534 2.63281 14.4534L2.44348 15.4272C2.44348 15.4272 2.20002 14.6427 1.8213 14.3993C1.44259 14.1558 0.522739 13.8312 0.414725 13.5878C0.306711 13.3445 0.117188 11.9648 0.117188 11.9648Z" fill="#FAFAFA"/>
<path d="M1.36133 14.7783C1.36133 14.7783 1.82115 15.5357 2.06462 15.8603C2.30808 16.1849 2.71383 16.8341 2.71383 16.8341L2.63266 17.7538C2.63266 17.7538 2.57858 17.0775 2.25394 16.8614C1.9293 16.6453 1.46954 16.4286 1.46954 16.3204C1.46954 16.2123 1.36133 14.7783 1.36133 14.7783Z" fill="#FAFAFA"/>
<path d="M15.5072 20.8113C14.0838 20.8113 12.6924 20.3892 11.509 19.5984C10.3255 18.8076 9.40306 17.6837 8.85836 16.3686C8.31367 15.0536 8.17115 13.6066 8.44883 12.2106C8.72652 10.8146 9.41193 9.53229 10.4184 8.52582C11.4249 7.51935 12.7072 6.83394 14.1032 6.55625C15.4992 6.27857 16.9462 6.42109 18.2612 6.96578C19.5762 7.51048 20.7002 8.43289 21.491 9.61637C22.2818 10.7999 22.7038 12.1913 22.7038 13.6146C22.7017 15.5226 21.9428 17.3519 20.5936 18.701C19.2444 20.0502 17.4152 20.8091 15.5072 20.8113V20.8113ZM15.5072 6.8176C14.1629 6.8176 12.8487 7.21624 11.7309 7.96312C10.6132 8.70999 9.74195 9.77156 9.2275 11.0136C8.71305 12.2556 8.57844 13.6222 8.84072 14.9407C9.10299 16.2593 9.75036 17.4704 10.701 18.421C11.6515 19.3716 12.8627 20.0189 14.1812 20.2812C15.4997 20.5434 16.8664 20.4088 18.1084 19.8943C19.3504 19.3799 20.4119 18.5087 21.1588 17.3909C21.9057 16.2731 22.3043 14.959 22.3043 13.6146C22.3022 11.8125 21.5855 10.0849 20.3112 8.81063C19.0369 7.53639 17.3093 6.81962 15.5072 6.8176V6.8176Z" fill="#FAFAFA"/>
<path d="M15.5259 20.1339C14.2403 20.1339 12.9834 19.7527 11.9144 19.0384C10.8454 18.3241 10.0122 17.3088 9.52022 16.121C9.02821 14.9332 8.89947 13.6261 9.1503 12.3652C9.40112 11.1042 10.0202 9.9459 10.9294 9.03678C11.8385 8.12766 12.9968 7.50855 14.2577 7.25772C15.5187 7.0069 16.8258 7.13563 18.0136 7.62764C19.2014 8.11965 20.2167 8.95284 20.9309 10.0219C21.6452 11.0909 22.0265 12.3477 22.0265 13.6334C22.0245 15.3568 21.339 17.0091 20.1204 18.2278C18.9017 19.4465 17.2494 20.132 15.5259 20.1339ZM15.5259 7.266C14.2666 7.266 13.0355 7.63944 11.9884 8.33909C10.9413 9.03875 10.1252 10.0332 9.64327 11.1967C9.16134 12.3602 9.03524 13.6404 9.28093 14.8756C9.52661 16.1107 10.133 17.2453 11.0235 18.1358C11.914 19.0263 13.0486 19.6327 14.2837 19.8784C15.5189 20.1241 16.7991 19.998 17.9626 19.516C19.1261 19.0341 20.1205 18.218 20.8202 17.1709C21.5199 16.1238 21.8933 14.8927 21.8933 13.6334C21.8914 11.9452 21.22 10.3267 20.0263 9.13302C18.8326 7.9393 17.2141 7.26784 15.5259 7.26593V7.266Z" fill="#FAFAFA"/>
<path d="M30.1473 19.8479L29.9609 19.7856C29.9655 19.7548 30.4158 16.6938 29.6844 15.4139C29.3859 14.8915 28.9883 14.3832 28.6037 13.8915C28.0105 13.1333 27.4983 12.4784 27.4983 11.9561C27.5072 11.5976 27.554 11.241 27.6381 10.8923C27.7084 10.556 27.7692 10.2656 27.7169 10.0302C27.6858 9.89476 27.6477 9.76104 27.6028 9.62957C27.5208 9.37758 27.4279 9.09196 27.3364 8.39859C27.1925 7.304 27.105 6.85883 26.3775 6.83532C25.4989 6.80702 24.9477 6.60591 23.3574 4.79991L23.2695 4.70002L23.3897 4.64335C23.4035 4.63669 24.7719 3.98294 25.5046 2.90147C26.6561 1.20155 26.7134 0.674469 26.7139 0.669342L26.7396 0.37207L26.8981 0.623193C27.2816 1.23525 28.4031 2.82802 28.981 2.8486L28.99 2.84893C29.8024 2.87797 29.9623 2.92292 30.1849 4.1752C30.2315 4.43651 30.2831 4.76721 30.3431 5.15019C30.5629 6.5541 30.8642 8.47684 31.2679 9.33469C31.5482 9.93037 31.2909 10.7958 31.073 11.3949L31.0657 11.4149C30.5549 12.7891 30.9699 13.6896 31.1723 14.0131C31.6471 14.7728 31.6171 15.9888 31.0832 17.6275C30.83 18.391 30.5171 19.1334 30.1473 19.8479V19.8479ZM23.593 4.76501C25.0714 6.42984 25.563 6.60924 26.3839 6.63568C27.31 6.66558 27.3994 7.34463 27.5346 8.37256C27.6234 9.04768 27.7133 9.32397 27.7927 9.56777C27.8396 9.70531 27.8794 9.84521 27.9117 9.9869C27.9734 10.2643 27.9086 10.5743 27.8335 10.9333C27.7525 11.2685 27.707 11.6114 27.6978 11.9561C27.6978 12.4095 28.2141 13.0696 28.7607 13.7685C29.1497 14.2657 29.5519 14.7799 29.8576 15.3147C30.4287 16.3142 30.3259 18.2548 30.2287 19.2301C30.7536 18.1034 31.8304 15.4436 31.0025 14.1189C30.7848 13.7705 30.3366 12.8027 30.8784 11.3453L30.885 11.3269C31.0036 11.001 31.3645 10.0093 31.087 9.41993C30.6711 8.53618 30.3673 6.59712 30.1455 5.18129C30.0856 4.79937 30.0341 4.46961 29.988 4.21036C29.7865 3.07748 29.7105 3.07475 28.9824 3.04878H28.9734C28.6287 3.03652 28.1439 2.6381 27.5326 1.86469C27.2442 1.49976 26.9932 1.1331 26.8512 0.919065C26.7446 1.22266 26.4557 1.8535 25.6695 3.01415C25.0265 3.96343 23.9512 4.57822 23.593 4.76501Z" fill="#FAFAFA"/>
<path d="M29.0273 6.47951C28.9969 6.33967 28.963 6.19982 28.919 6.06377C28.8985 5.98078 28.8596 5.90342 28.8054 5.83735C28.7505 5.77759 28.6781 5.73671 28.5985 5.72055C28.3075 5.67194 28.1654 6.00856 28.1742 6.24996C28.1791 6.37453 28.2047 6.49742 28.25 6.61356C28.2861 6.72498 28.3488 6.82595 28.4326 6.90777C28.4873 6.95651 28.5561 6.98646 28.629 6.99324C28.702 7.00002 28.7752 6.98328 28.8379 6.94546C28.9796 6.85223 29.0243 6.67909 29.0327 6.51927C29.0324 6.47961 29.0165 6.44165 28.9885 6.41361C28.9604 6.38556 28.9225 6.36969 28.8828 6.36943C28.8434 6.37028 28.8057 6.38634 28.7778 6.41426C28.7499 6.44217 28.7338 6.47979 28.733 6.51927C28.7323 6.53325 28.7312 6.54717 28.73 6.56109C28.73 6.56368 28.7263 6.58553 28.7294 6.56775C28.7326 6.5485 28.7277 6.57481 28.7268 6.57933C28.7219 6.60437 28.7124 6.62781 28.7068 6.65259C28.7121 6.63048 28.7135 6.63927 28.705 6.65525C28.6999 6.66524 28.6924 6.67449 28.6877 6.68455C28.6811 6.69787 28.6952 6.67316 28.6974 6.67276C28.6954 6.67276 28.6902 6.68122 28.6886 6.68282C28.6855 6.68575 28.6819 6.68895 28.6795 6.69214C28.6646 6.70939 28.687 6.68255 28.6903 6.68495C28.6903 6.68495 28.6711 6.6968 28.6695 6.69827C28.6504 6.71159 28.7028 6.68715 28.6715 6.69654C28.6707 6.69654 28.6597 6.69967 28.6596 6.69933C28.6587 6.69627 28.6946 6.6988 28.679 6.69667C28.6768 6.69667 28.6491 6.69667 28.6492 6.69667C28.6503 6.69314 28.6868 6.7044 28.6532 6.69574C28.6453 6.69374 28.6093 6.68082 28.6374 6.69174C28.663 6.70173 28.6412 6.69174 28.6347 6.68835C28.6097 6.6743 28.6541 6.70832 28.639 6.69201C28.627 6.67922 28.6148 6.66597 28.6025 6.65345C28.5922 6.64293 28.6125 6.6655 28.6124 6.66624C28.6124 6.66397 28.6057 6.65691 28.6044 6.65492C28.5983 6.64559 28.5921 6.6364 28.5863 6.62688C28.5748 6.60803 28.5643 6.58859 28.5547 6.56874C28.5499 6.55916 28.5459 6.54917 28.5413 6.53971C28.5337 6.52486 28.5454 6.54963 28.5457 6.55037C28.543 6.54371 28.5401 6.53665 28.5375 6.52979C28.5198 6.48363 28.5052 6.4363 28.494 6.38814C28.4883 6.36404 28.4837 6.33973 28.4796 6.31529C28.4784 6.30978 28.4776 6.30419 28.4771 6.29858C28.4771 6.29904 28.4797 6.32808 28.4789 6.3107C28.4784 6.29798 28.4764 6.28519 28.4756 6.27247C28.4741 6.2497 28.4736 6.22686 28.4743 6.20401C28.4743 6.19396 28.4754 6.18404 28.4761 6.17398C28.4783 6.13909 28.471 6.19496 28.4761 6.17092C28.4807 6.1488 28.4866 6.12696 28.4938 6.10552C28.496 6.0992 28.5098 6.06557 28.5039 6.07795C28.498 6.09034 28.5144 6.05798 28.5179 6.05178C28.524 6.04093 28.5316 6.03107 28.5379 6.02028C28.5459 6.00623 28.5306 6.03201 28.5291 6.03174C28.53 6.03174 28.537 6.02282 28.5381 6.02188C28.5428 6.01755 28.5647 5.99878 28.5442 6.01442C28.5237 6.03007 28.5486 6.01363 28.5539 6.00996C28.5724 5.99718 28.5176 6.02282 28.5463 6.01416C28.571 6.0067 28.5245 6.01416 28.5314 6.01529C28.5376 6.01612 28.5438 6.01612 28.55 6.01529C28.5607 6.01323 28.5261 6.01189 28.5254 6.01156C28.5293 6.01259 28.5333 6.01337 28.5373 6.01389C28.544 6.01632 28.5509 6.01834 28.5578 6.01995C28.5655 6.02122 28.5224 6.00184 28.5445 6.01436C28.5557 6.02102 28.5669 6.02701 28.5778 6.03394C28.6018 6.04912 28.563 6.02062 28.5678 6.02595C28.5714 6.02974 28.576 6.03294 28.5799 6.03653C28.5876 6.04319 28.594 6.05178 28.6016 6.05884C28.6161 6.07216 28.5794 6.02195 28.5895 6.04326C28.5915 6.04752 28.5946 6.05165 28.5969 6.05578C28.5992 6.05991 28.6019 6.06583 28.6045 6.0709C28.6155 6.09254 28.6055 6.07822 28.6011 6.06191C28.6101 6.0952 28.6255 6.1281 28.636 6.16133C28.677 6.29218 28.7097 6.42617 28.7389 6.56015C28.7497 6.59832 28.7751 6.6307 28.8096 6.65029C28.8441 6.66988 28.8849 6.67511 28.9232 6.66484C28.9612 6.65343 28.9932 6.62775 29.0127 6.59319C29.0321 6.55862 29.0373 6.51788 29.0273 6.47951V6.47951Z" fill="#FAFAFA"/>
<path d="M29.5197 8.16021C29.5023 8.00584 29.4813 7.85155 29.4552 7.69845C29.4281 7.53956 29.406 7.30176 29.2207 7.24768C28.9399 7.16577 28.8596 7.54735 28.8411 7.74167C28.8313 7.84991 28.8295 7.95872 28.8355 8.06724C28.8371 8.19858 28.8591 8.32888 28.9007 8.45348C28.9221 8.53193 28.9716 8.59975 29.0398 8.644C29.0782 8.66343 29.1209 8.67243 29.1638 8.67009C29.2067 8.66775 29.2482 8.65416 29.2842 8.63069C29.4397 8.53399 29.5093 8.33435 29.5197 8.16054C29.5197 8.1208 29.5039 8.08269 29.4758 8.05459C29.4477 8.02649 29.4096 8.0107 29.3699 8.0107C29.3301 8.0107 29.292 8.02649 29.2639 8.05459C29.2358 8.08269 29.22 8.1208 29.22 8.16054C29.22 8.16014 29.2141 8.21195 29.2185 8.18451C29.2159 8.20004 29.2126 8.21542 29.2084 8.23059C29.2045 8.24544 29.1995 8.2599 29.1951 8.27448C29.1818 8.31643 29.2077 8.25543 29.1871 8.29286C29.1761 8.31284 29.1652 8.33281 29.1523 8.35186C29.1704 8.32522 29.1485 8.35572 29.1445 8.36005C29.1392 8.3656 29.1337 8.37093 29.1281 8.37603C29.1445 8.36418 29.1463 8.36271 29.1333 8.3719L29.1249 8.37703C29.1134 8.38289 29.1137 8.38296 29.126 8.37703L29.1355 8.37284C29.1195 8.37677 29.1246 8.3765 29.1507 8.3719C29.1281 8.37337 29.1809 8.37903 29.1877 8.38323L29.2039 8.39654C29.1932 8.38569 29.1945 8.38842 29.2079 8.40487C29.1988 8.38982 29.1905 8.37426 29.1832 8.35825C29.1996 8.39435 29.1845 8.35892 29.1821 8.35199C29.177 8.33681 29.1725 8.32136 29.1684 8.30584C29.1624 8.2832 29.1576 8.26029 29.1533 8.23725C29.1512 8.2264 29.1496 8.21548 29.1477 8.20456C29.1399 8.16087 29.1504 8.23539 29.1457 8.19071C29.1399 8.13603 29.1356 8.08136 29.1338 8.02642C29.1305 7.93706 29.1325 7.84759 29.1396 7.75845C29.1409 7.74333 29.1442 7.72762 29.1443 7.7125C29.1443 7.77483 29.1437 7.71809 29.1463 7.70278C29.1492 7.6858 29.1524 7.66882 29.156 7.65197C29.1612 7.62799 29.1671 7.60415 29.1744 7.58071C29.1781 7.56879 29.1825 7.55721 29.1866 7.54542C29.1739 7.58211 29.1887 7.54202 29.1933 7.53396C29.1974 7.52799 29.2012 7.52181 29.2047 7.51545C29.2122 7.49807 29.1799 7.54402 29.1981 7.52491C29.2078 7.51445 29.2247 7.50706 29.1869 7.53157C29.2003 7.52291 29.2115 7.52351 29.1704 7.53643C29.2011 7.52677 29.1285 7.53583 29.1589 7.53736C29.1099 7.5349 29.1229 7.5307 29.1372 7.53523C29.158 7.54142 29.0966 7.51379 29.1227 7.5299C29.1419 7.54182 29.0906 7.50287 29.1078 7.51798C29.1109 7.52066 29.1139 7.52353 29.1166 7.52657C29.1347 7.54702 29.0916 7.48822 29.11 7.51918C29.1245 7.54402 29.0966 7.47796 29.11 7.52025C29.1144 7.5345 29.1189 7.54875 29.1227 7.56313C29.1427 7.63732 29.156 7.71343 29.1689 7.78908C29.1769 7.83643 29.1841 7.88384 29.1911 7.93133C29.1946 7.95537 29.1977 7.97941 29.2013 8.00345C29.2027 8.0131 29.2096 8.04706 29.2013 8.00191C29.2029 8.01077 29.2036 8.01989 29.2048 8.02855C29.2105 8.0723 29.216 8.11612 29.221 8.16001C29.2221 8.19938 29.2383 8.23684 29.2661 8.26469C29.294 8.29255 29.3314 8.3087 29.3708 8.30984C29.4103 8.30935 29.448 8.29341 29.4758 8.26543C29.5036 8.23745 29.5194 8.19967 29.5197 8.16021V8.16021Z" fill="#FAFAFA"/>
<path d="M28.6561 6.79635C28.6606 6.80115 28.6649 6.80614 28.6691 6.81113C28.6733 6.81613 28.6785 6.82226 28.683 6.82792C28.6861 6.83178 28.6891 6.83577 28.6923 6.83957C28.7063 6.85648 28.667 6.80547 28.6807 6.82472C28.7193 6.87768 28.7552 6.93255 28.7882 6.98914C28.8097 7.02687 28.8296 7.06539 28.8482 7.10468C28.8545 7.11799 28.8607 7.13131 28.8667 7.14463C28.8701 7.15216 28.8839 7.18459 28.8699 7.15129C28.8809 7.17748 28.8912 7.2039 28.901 7.23054C28.944 7.34904 28.9758 7.4713 28.996 7.59573C29.0067 7.63397 29.0321 7.66642 29.0666 7.68602C29.1011 7.70561 29.142 7.71077 29.1803 7.70035C29.218 7.68884 29.2499 7.66333 29.2693 7.62905C29.2888 7.59478 29.2944 7.55435 29.2849 7.51609C29.2461 7.27773 29.1654 7.04812 29.0467 6.83784C28.9971 6.7467 28.937 6.66165 28.8677 6.58439C28.8395 6.55659 28.8014 6.54102 28.7618 6.54102C28.7222 6.54102 28.6841 6.55659 28.6558 6.58439C28.6285 6.6129 28.6133 6.65085 28.6133 6.69033C28.6133 6.72982 28.6285 6.76777 28.6558 6.79628L28.6561 6.79635Z" fill="#FAFAFA"/>
<path d="M28.2953 7.70488C28.2953 7.70488 28.2354 7.55019 28.1481 7.55645C28.1715 7.7786 28.174 7.80198 28.1888 7.94215C28.2036 8.08233 28.2049 8.34278 28.2621 8.80167C28.3193 9.26056 28.5197 10.4088 28.3191 11.4974C28.1869 11.6588 28.0906 11.7411 28.0976 11.3931C28.1046 11.0451 28.1823 9.3753 28.0876 9.14163C27.9929 8.90795 27.8146 8.79468 27.7168 8.78642C27.8641 8.99018 27.9477 9.23301 27.9571 9.48425C27.9617 9.60991 27.9399 11.2301 27.9548 11.3704C27.9696 11.5106 27.9906 11.9578 28.2126 11.7348C28.2489 11.9949 28.2593 12.0094 28.3598 12.1319C28.4602 12.2543 28.3757 12.5324 28.3047 12.6906C28.2338 12.8489 28.525 13.3945 28.5725 13.5113C28.6199 13.6281 28.9173 13.8697 29.0863 13.5519C29.1904 13.2912 28.8488 13.5017 28.8294 13.4843C28.8099 13.4669 28.6333 13.471 28.4253 13C28.6179 12.6659 28.6917 12.2824 28.6494 12.1335C28.6071 11.9846 28.4134 11.8099 28.4134 11.8099C28.4134 11.8099 28.6469 11.613 28.7076 11.6887C28.7682 11.7645 28.835 11.8988 28.7624 12.1243C28.8671 12.2028 29.0873 12.2954 29.1294 12.4444C29.1714 12.5933 29.3095 12.4905 29.3118 12.3445C29.3071 12.2705 29.2825 12.1991 29.2405 12.138C29.1985 12.0769 29.1407 12.0284 29.0733 11.9975C28.9644 11.9629 28.9946 11.916 29.0267 11.7228C29.0588 11.5297 28.9838 10.9863 28.4955 11.5087C28.533 11.2834 28.9188 10.039 28.7367 9.14469C28.8571 8.95703 28.9859 8.61861 28.9984 8.48689C29.0108 8.35516 28.9309 7.88508 28.9309 7.88508C28.9309 7.88508 28.8478 8.78456 28.696 9.00744C28.6388 8.79708 28.5362 8.57246 28.5311 8.52564C28.526 8.47883 28.5007 8.15439 28.5007 8.15439C28.5007 8.15439 28.7189 7.89621 28.7531 7.80537C28.7873 7.71454 28.8563 7.45389 28.7923 7.51236C28.7283 7.57083 28.6119 7.71507 28.5654 7.6889C28.5188 7.66273 28.4556 7.56391 28.2953 7.70488Z" fill="#FAFAFA"/>
<path d="M29.6904 5.95194C29.7016 5.81108 29.7312 5.67229 29.7783 5.53906C29.8017 5.76122 29.8043 5.78459 29.8191 5.9249C29.8339 6.06521 29.8821 6.27258 29.9237 6.74899C29.9653 7.2254 30.0245 8.53235 30.3883 8.98698C30.5227 8.84887 30.6142 8.72001 30.5429 8.45997C30.4716 8.19992 30.1532 7.0408 30.1254 6.66622C30.0998 6.36208 30.142 6.05605 30.2489 5.77021C30.2129 6.33825 30.2727 6.56613 30.2929 6.67434C30.3131 6.78255 30.6362 8.01499 30.6511 8.1553C30.6659 8.29561 30.7339 8.69011 30.5168 8.96015C30.5374 9.23784 30.5321 9.27 30.476 9.56847C30.4198 9.86694 30.5391 9.91615 30.6249 9.89824C30.7106 9.88033 30.694 10.8016 30.6787 10.9888C30.6633 11.1761 30.5928 11.7523 30.2959 11.9291C30.1647 11.9327 30.3809 11.5721 30.3928 11.5192C30.5275 11.1561 30.5938 10.7712 30.5884 10.3839C30.3735 10.5076 30.2432 10.3533 30.2483 10.1514C30.2533 9.94958 30.3729 9.42317 30.3729 9.42317C30.3729 9.42317 30.1517 9.73695 30.1182 9.91842C30.0847 10.0999 30.0576 10.3399 30.1574 10.3716C30.0897 10.6438 29.9337 11.1591 29.9288 11.3609C29.924 11.5627 29.7956 11.7591 29.7662 11.6481C29.7368 11.5372 29.8092 11.142 29.8885 10.896C29.9678 10.65 29.9351 10.6737 29.8731 10.5863C29.8111 10.4988 29.7678 9.91982 30.2511 9.35058C30.179 9.24863 29.6401 9.04319 29.6146 7.97304C29.4842 8.06727 29.3382 8.17888 29.3035 8.10016C29.2726 8.00095 29.2502 7.89933 29.2363 7.79637C29.2363 7.79637 29.459 7.9123 29.6207 7.78305C29.6261 7.50229 29.6645 7.11898 29.6596 7.0723C29.6547 7.02562 29.6135 6.71862 29.6135 6.71862C29.6135 6.71862 29.3928 6.95343 29.3487 6.9507C29.3046 6.94797 29.2009 6.88124 29.2624 6.79907C29.324 6.71689 29.4428 6.59643 29.4745 6.48229C29.5094 6.29258 29.5828 6.11206 29.6904 5.95194V5.95194Z" fill="#FAFAFA"/>
<path d="M28.9788 9.31175C28.9788 9.31175 29.5378 8.98937 29.6731 8.86318C29.8083 8.73698 29.7001 9.10657 29.7001 9.10657C29.7614 9.32577 29.7984 9.55102 29.8106 9.7783C29.8172 10.7386 29.655 10.982 29.3485 11.1083C29.3485 11.1083 28.9423 11.2525 28.9067 10.5132C28.8773 9.90003 29.0059 9.58218 29.0059 9.58218C29.0059 9.58218 28.8436 9.36582 28.9788 9.31175Z" fill="#FAFAFA"/>
<path d="M28.722 9.25089C28.722 9.25089 28.9181 9.35904 29.0465 9.35904C29.175 9.35904 29.006 9.5146 29.006 9.5146C28.9032 9.46473 28.8039 9.40826 28.7084 9.34552L28.6543 9.29817L28.7287 9.2168L28.722 9.25089Z" fill="#FAFAFA"/>
<path d="M13.4235 8.13086L13.0326 8.21856L12.6961 8.34183L12.3943 8.48234L12.1279 8.64123L11.9148 8.83481L11.7196 9.04578L11.5601 9.25668L11.4183 9.50327L11.3117 9.76705L11.2228 10.0316L11.17 10.313L11.1346 10.5943L11.1164 10.9112L11.0988 11.2106L11.1164 11.5274L11.1346 11.844L11.1873 12.4952L11.2764 13.1287L11.3647 13.7449L11.4183 14.3431L11.4357 14.6245L11.4535 14.9064L11.4357 15.1528L11.4183 15.3992L11.3826 15.6276L11.3293 15.8387L11.241 16.0148L11.1346 16.1908L11.0455 16.1379L10.9389 16.0675L10.8327 15.9272L10.7079 15.7683L10.6551 15.6451L10.6018 15.5219L10.5661 15.3812L10.5309 15.2404L10.4951 15.0643L10.4778 14.8708V14.6598V14.4307L10.2642 14.4663L10.1581 14.5009L10.0696 14.5366L9.9986 14.5722L9.92767 14.6245L9.87407 14.6953L9.83864 14.7475L9.76772 14.9064L9.73196 15.0643L9.71484 15.2404L9.75014 15.4341L9.78557 15.6276L9.85675 15.8213L9.94506 16.0148L10.0341 16.2257L10.1581 16.4019L10.2823 16.5956L10.4069 16.7541L10.5487 16.8948L11.0274 16.7188L11.4357 16.525L11.6129 16.4374L11.7551 16.3317L11.8975 16.2257L12.0215 16.1206L12.1279 16.0148L12.2343 15.8915L12.3052 15.7863L12.3762 15.6631L12.4297 15.54L12.4652 15.4168L12.5361 15.1528L12.5542 14.8888L12.5361 14.5895L12.5185 14.2901L12.4652 13.9559L12.3588 13.2519L12.3052 12.8648L12.2695 12.4603L12.2524 12.337L12.2167 11.9849L12.1986 11.4569L12.2167 11.1576L12.2343 10.8233L12.2695 10.471L12.3404 10.1195L12.4297 9.74974L12.5542 9.39819L12.7137 9.04578L12.8025 8.88776L12.9089 8.72893L13.0156 8.57091L13.1393 8.41208L13.2817 8.2715L13.4235 8.13086Z" fill="#FAFAFA"/>
<path d="M16.2806 17.1941V16.9476L16.2982 16.7187L16.3688 16.2785L16.4574 15.8564L16.5819 15.4869L16.831 14.7827L16.9542 14.4485L17.0611 14.1319L17.1321 13.7971L17.1494 13.6389V13.4807V13.322L17.1321 13.1459L17.1147 12.9705L17.0611 12.7943L16.9902 12.6181L16.9193 12.4245L16.8123 12.231L16.6888 12.0376L16.5456 11.8265L16.3862 11.6149L16.191 11.3864L15.9606 11.1401L15.4814 11.5272L14.9665 11.9141L14.3636 12.3368L14.3457 11.7206L14.3636 11.0872L14.3991 10.3483L14.4164 9.97851L14.47 9.6263L14.541 9.29207L14.6118 8.99287L14.7183 8.72876L14.7719 8.62368L14.8428 8.53511L14.9137 8.46485L14.9847 8.39453L15.0732 8.35897H15.1623L15.2332 8.43016L15.322 8.50042L15.4279 8.57074L15.5523 8.64106L15.6769 8.69387L15.8188 8.72876L15.9783 8.74614L16.1201 8.76412L16.2806 8.74614L16.4398 8.71145L16.5993 8.64106L16.7774 8.55269L16.9366 8.43016L17.0958 8.27134L17.2566 8.06037L17.3985 7.83129L17.2739 7.88423L17.1494 7.9371L17.0248 7.95449L16.902 7.99005H16.6529L16.4224 7.9718L16.1737 7.90154L15.9433 7.81391L15.7116 7.70816L15.4814 7.58496L15.215 7.69058L14.9847 7.81391L14.7538 7.95449L14.541 8.11331L14.3636 8.28865L14.1862 8.48217L14.0445 8.71145L13.9026 8.94053L13.7953 9.20417L13.6889 9.48559L13.6181 9.80244L13.565 10.1194L13.5117 10.4708L13.4941 10.8587V11.2632L13.5117 11.6852L13.6359 13.4984L13.6716 14.4485L13.7068 15.381V15.8211V16.2436L13.6716 16.6484L13.6359 17.0005L13.5826 17.3348L13.5117 17.6161L13.4231 17.8451L13.3698 17.9328L13.3169 18.0213L13.0861 17.8798L12.8903 17.7567L12.6957 17.6691L12.5357 17.5986L12.3938 17.5456L12.2519 17.5109L12.1275 17.4929H12.021L11.897 17.5109L11.8079 17.5456L11.6125 17.6161L11.2051 17.8095L11.4178 17.8798L11.6125 17.9504L11.7725 18.0562L11.9144 18.1619L12.1453 18.3728L12.2519 18.4607L12.3583 18.549L12.4648 18.6194L12.5709 18.6541L12.7133 18.6722L12.8727 18.6367L13.0504 18.5839L13.246 18.4607L13.4941 18.3026L13.7778 18.0736L13.8844 17.9683L13.9908 17.8625L14.0799 17.7567L14.1681 17.6342L14.31 17.3695L14.4164 17.0882L14.4874 16.7889L14.541 16.4902L14.5767 16.1733V15.8564V15.5571L14.559 15.2577L14.5228 14.6951L14.4519 14.2022L14.4164 13.8499L14.3809 12.8116L14.47 12.724L14.559 12.6181L14.6828 12.5479L14.7894 12.4774L14.9137 12.4245L15.0377 12.4072L15.1623 12.4245L15.2865 12.4601L15.3932 12.5479L15.5176 12.6711L15.606 12.8473L15.7116 13.0756L15.7841 13.3576L15.8535 13.7092L15.9073 14.1319L15.9433 14.6243L15.9606 14.9592V15.2931L15.9259 15.8385L15.8896 16.2965L15.8188 16.701L15.7841 17.0352L15.7478 17.3695V17.5456L15.7655 17.7044L15.7841 17.8798L15.8188 18.0736L15.9259 18.4787L15.9783 18.6722L16.0492 18.8303L16.1201 18.9711L16.2097 19.0942L16.2806 19.2001L16.3862 19.2878L16.4748 19.3583L16.5819 19.3936L16.6888 19.4112H16.7947L16.9193 19.3763L17.0435 19.3233L17.1856 19.2354L17.3275 19.1122L17.487 18.9711L17.558 18.8659L17.5939 18.8303V18.7773V18.7426L17.5753 18.7071L17.523 18.6541L17.4334 18.6194L17.167 18.5137L17.0248 18.4432L16.8657 18.3728L16.7238 18.2669L16.5819 18.1265L16.4574 17.9683L16.4038 17.8625L16.3515 17.7567L16.3156 17.6342L16.2982 17.5109L16.2806 17.3521V17.1941Z" fill="#FAFAFA"/>
<path d="M20.095 13.1818H20.0587L19.7403 12.9353L19.5622 12.7772L19.4027 12.6011L19.2249 12.4248L19.0654 12.2313L18.9235 12.0203L18.799 11.8088L18.6934 11.5978L18.6212 11.3866L18.5689 11.1751V10.9642L18.5862 10.859L18.6038 10.7532L18.6398 10.6647L18.6934 10.5595L18.7644 10.4537L18.835 10.366L18.9235 10.2775L19.0294 10.1899L19.2785 10.3132L19.5273 10.4892L19.775 10.7003L20.024 10.9466L20.2542 11.228L20.3613 11.3866L20.4498 11.5449L20.5382 11.7209L20.6091 11.8971L20.68 12.0725L20.7334 12.2669L20.7869 12.161L20.8405 12.0552L20.8928 11.8441L20.9115 11.6152V11.3866L20.8581 11.1751L20.7869 10.9466L20.68 10.7176L20.5382 10.5065L20.3786 10.2958L20.2196 10.084L20.024 9.89062L19.8113 9.71488L19.5982 9.53881L19.3668 9.38005L19.1366 9.23941L18.9062 9.11621L18.6934 9.41561L18.5152 9.6969L18.3558 9.96081L18.2314 10.2072L18.107 10.4537L18.0187 10.6829L17.929 10.9113L17.8766 11.1228L17.8407 11.3338L17.8058 11.5275L17.7871 11.7035V11.8791L17.8058 12.0379L17.8233 12.1957L17.858 12.3545L17.9116 12.4953L18.0187 12.7417L18.1606 12.9707L18.3025 13.1818L18.4618 13.3579L18.6398 13.4986L18.7817 13.6392L19.0294 13.8328L19.2611 14.0437L19.4563 14.2553L19.6158 14.4837L19.7577 14.6954L19.8635 14.9238L19.9706 15.1529L20.0414 15.3813L20.095 15.6103L20.1297 15.8214V16.0324V16.2258L20.1123 16.4195L20.0774 16.5957L20.024 16.7542L19.9706 16.8949L19.8995 17.0181L19.8113 17.124L19.7216 17.2117L19.6158 17.2646L19.5086 17.2821H19.4027L19.2785 17.2466L19.1539 17.1943L19.0294 17.0885L18.9062 16.9652L18.7817 16.7892L18.6573 16.5781L18.5329 16.3144L18.4081 16.0149L18.2849 15.6806L18.178 15.2761L18.0723 14.836L18.0011 15.0827L17.9479 15.3464L17.929 15.6277V15.9273L17.9652 16.2258L18.0187 16.5252L18.0897 16.8246L18.178 17.106L18.2849 17.3698L18.4081 17.5988L18.5503 17.8098L18.6934 17.986L18.7644 18.0389L18.8527 18.1092L18.9235 18.1448L19.0121 18.1796L19.1004 18.197H19.1899L19.2785 18.1796L19.3668 18.1448L19.5273 18.0565L19.7041 17.9331L19.9172 17.7752L20.1297 17.5815L20.3428 17.3524L20.5558 17.0885L20.751 16.7892L20.929 16.4723L21 16.2968L21.0536 16.1207L21.1058 15.9446L21.1419 15.7511L21.1594 15.5574V15.364L21.1419 15.1702L21.1245 14.9595L21.0709 14.7476L21 14.5368L20.9115 14.3076L20.8046 14.0966L20.6624 13.8682L20.5034 13.6392L20.3078 13.4102L20.095 13.1818Z" fill="#FAFAFA"/>
<path d="M13.1875 25.1141V25.0692C13.255 25.0675 13.3218 25.0554 13.3856 25.0333C13.4321 25.0176 13.4725 24.9878 13.5011 24.948C13.5226 24.9022 13.5342 24.8525 13.5351 24.8019C13.5416 24.7296 13.5448 24.6119 13.5448 24.4487V23.9251C13.547 23.8276 13.5427 23.7301 13.5321 23.6332C13.5281 23.59 13.5128 23.5486 13.4877 23.5133C13.4572 23.483 13.4189 23.4616 13.3771 23.4515C13.3154 23.4331 13.2518 23.4221 13.1875 23.4188V23.3713C13.2191 23.3722 13.254 23.3728 13.2921 23.3732C13.3301 23.3736 13.3865 23.3738 13.461 23.3738C13.5525 23.3738 13.6208 23.3736 13.6658 23.3732C13.7108 23.3728 13.7519 23.3718 13.7891 23.3701C13.7835 23.4555 13.7792 23.5306 13.7764 23.5952C13.7735 23.6598 13.7721 23.7121 13.7721 23.752V24.593C13.7695 24.6873 13.7742 24.7817 13.7861 24.8753C13.7914 24.9159 13.8081 24.9541 13.8341 24.9856C13.8662 25.0147 13.9051 25.0352 13.9473 25.0449C14.0086 25.0603 14.0714 25.0685 14.1345 25.0692V25.1142C14.0058 25.1117 13.9089 25.1103 13.844 25.1099C13.7791 25.1094 13.7188 25.1092 13.6629 25.1093C13.6071 25.1093 13.5467 25.1095 13.4818 25.1099C13.417 25.1102 13.3189 25.1116 13.1875 25.1141Z" fill="#FAFAFA"/>
<path d="M14.4158 25.1761L14.3914 25.1239C14.5742 25.0378 14.7416 24.9222 14.8868 24.7817C15.0077 24.6613 15.0986 24.5141 15.1523 24.3521C15.0951 24.3864 15.0339 24.4136 14.9701 24.4332C14.9121 24.4505 14.8519 24.4593 14.7914 24.4594C14.7226 24.4627 14.6539 24.4516 14.5897 24.4268C14.5255 24.4019 14.4672 24.3639 14.4186 24.3151C14.37 24.2662 14.3323 24.2078 14.3077 24.1435C14.2832 24.0791 14.2724 24.0104 14.2761 23.9416C14.2733 23.8627 14.2869 23.7841 14.3161 23.7107C14.3453 23.6373 14.3894 23.5708 14.4456 23.5154C14.5034 23.4599 14.5717 23.4166 14.6466 23.3882C14.7215 23.3597 14.8013 23.3465 14.8814 23.3495C14.9628 23.3451 15.0442 23.3575 15.1205 23.3861C15.1968 23.4146 15.2665 23.4586 15.3249 23.5154C15.3808 23.5769 15.4239 23.649 15.4517 23.7274C15.4794 23.8057 15.4913 23.8888 15.4866 23.9718C15.4871 24.2385 15.3865 24.4955 15.2052 24.691C14.9899 24.92 14.7174 25.0875 14.4158 25.1761V25.1761ZM15.1778 24.2682C15.1906 24.2174 15.2005 24.1658 15.2076 24.1139C15.2144 24.0643 15.2178 24.0144 15.2179 23.9644C15.225 23.8247 15.1926 23.6859 15.1244 23.5639C15.0994 23.5188 15.0626 23.4813 15.0181 23.4553C14.9736 23.4293 14.9229 23.4158 14.8713 23.4162C14.8229 23.4149 14.7749 23.4253 14.7314 23.4466C14.6879 23.4679 14.6502 23.4993 14.6215 23.5384C14.556 23.6414 14.5232 23.762 14.5277 23.8841C14.5321 24.0061 14.5735 24.124 14.6464 24.222C14.6841 24.2665 14.7313 24.302 14.7845 24.3258C14.8377 24.3496 14.8956 24.3611 14.9539 24.3594C14.9955 24.36 15.0368 24.3523 15.0754 24.3369C15.1137 24.3208 15.1484 24.2975 15.1778 24.2682V24.2682Z" fill="#FAFAFA"/>
<path d="M15.5971 25.1194L15.5801 25.0841C15.8176 24.892 16.0325 24.6735 16.2206 24.4327C16.3559 24.2462 16.4235 24.0777 16.4235 23.927C16.4293 23.8297 16.3995 23.7336 16.3397 23.6566C16.3109 23.6239 16.275 23.5981 16.2348 23.5811C16.1946 23.5642 16.1511 23.5565 16.1076 23.5588C16.0337 23.5597 15.9614 23.58 15.8979 23.6177C15.8204 23.6641 15.7515 23.7235 15.6943 23.7933L15.6567 23.7629C15.7141 23.643 15.7976 23.5373 15.9009 23.4536C15.9894 23.3878 16.097 23.353 16.2073 23.3546C16.2689 23.3532 16.3301 23.365 16.3868 23.3892C16.4435 23.4135 16.4943 23.4495 16.536 23.495C16.6244 23.5899 16.6718 23.7159 16.6678 23.8456C16.6678 23.9956 16.604 24.1566 16.4764 24.3287C16.3016 24.5476 16.1001 24.7438 15.8766 24.9127L16.3191 24.9079C16.3816 24.9095 16.4442 24.9059 16.5062 24.897C16.5379 24.8921 16.5679 24.8795 16.5937 24.8605C16.6244 24.8325 16.6519 24.8012 16.6757 24.7672C16.7106 24.7185 16.7428 24.668 16.7724 24.6159L16.8149 24.6366L16.6277 25.1143C16.5159 25.1126 16.4288 25.1114 16.3664 25.1106C16.304 25.1098 16.2461 25.1094 16.1927 25.1094C16.0832 25.1094 15.9795 25.1102 15.8815 25.1118C15.7835 25.1134 15.6887 25.1159 15.5971 25.1194Z" fill="#FAFAFA"/>
<path d="M17.0331 25.1764L17.0088 25.1242C17.1915 25.0382 17.3589 24.9226 17.504 24.782C17.625 24.6616 17.7159 24.5144 17.7696 24.3524C17.7123 24.3866 17.6511 24.4137 17.5873 24.4332C17.5293 24.4504 17.4691 24.4593 17.4086 24.4593C17.3399 24.4627 17.2712 24.4516 17.2069 24.4267C17.1427 24.4019 17.0844 24.3638 17.0359 24.315C16.9873 24.2662 16.9495 24.2078 16.9249 24.1434C16.9004 24.0791 16.8896 24.0103 16.8933 23.9416C16.8905 23.8627 16.9041 23.784 16.9333 23.7107C16.9625 23.6373 17.0067 23.5708 17.0629 23.5154C17.1844 23.4085 17.3406 23.3496 17.5024 23.3496C17.6642 23.3496 17.8204 23.4085 17.9419 23.5154C17.9978 23.5769 18.0409 23.649 18.0687 23.7273C18.0964 23.8057 18.1083 23.8888 18.1035 23.9718C18.1041 24.2385 18.0035 24.4955 17.8222 24.691C17.607 24.9201 17.3346 25.0876 17.0331 25.1764ZM17.7951 24.2685C17.8079 24.2177 17.8178 24.1662 17.8249 24.1142C17.8317 24.0646 17.8351 24.0147 17.8352 23.9647C17.8423 23.825 17.8099 23.6862 17.7417 23.5642C17.7167 23.5191 17.68 23.4816 17.6354 23.4556C17.5909 23.4296 17.5402 23.4162 17.4886 23.4166C17.4402 23.4152 17.3922 23.4256 17.3487 23.4469C17.3052 23.4682 17.2675 23.4997 17.2388 23.5387C17.1733 23.6418 17.1406 23.7623 17.1451 23.8844C17.1495 24.0065 17.1909 24.1243 17.2638 24.2223C17.3014 24.2669 17.3486 24.3023 17.4019 24.3261C17.4551 24.3499 17.513 24.3614 17.5713 24.3597C17.6129 24.3603 17.6542 24.3526 17.6929 24.3372C17.731 24.3211 17.7658 24.2978 17.7951 24.2685Z" fill="#FAFAFA"/>
<path d="M12.3602 24.2832H10.5625V24.3498H12.3602V24.2832Z" fill="#FAFAFA"/>
<path d="M20.8408 24.2832H19.043V24.3498H20.8408V24.2832Z" fill="#FAFAFA"/>
<path d="M10.5908 22.8391L10.5898 22.8041C10.6593 22.8072 10.7278 22.7863 10.7836 22.7448C10.8158 22.7116 10.8319 22.6339 10.8318 22.5118V21.8248C10.8318 21.7011 10.8163 21.622 10.7852 21.5875C10.7334 21.5447 10.6681 21.5216 10.6008 21.5223V21.4873C10.662 21.4873 10.7467 21.4879 10.8552 21.4892C10.9636 21.4905 11.0414 21.4911 11.0886 21.4911C11.17 21.4911 11.2533 21.4908 11.3387 21.4902C11.4241 21.4895 11.5228 21.4886 11.635 21.4873L11.6057 21.803H11.5774C11.5801 21.7648 11.5743 21.7265 11.5603 21.6908C11.5463 21.6552 11.5245 21.6231 11.4965 21.597C11.4464 21.5592 11.3492 21.5402 11.2049 21.5402H11.014V22.1282H11.2361C11.308 22.1337 11.3798 22.1173 11.4422 22.081C11.4649 22.0628 11.4832 22.0396 11.4955 22.0132C11.5078 21.9868 11.5138 21.9579 11.5131 21.9287L11.5443 21.9297C11.5411 21.9915 11.5387 22.0496 11.5372 22.1042C11.5356 22.1587 11.5348 22.2114 11.5348 22.2624C11.5348 22.3053 11.535 22.3378 11.5353 22.3598C11.5353 22.3819 11.5357 22.4024 11.5357 22.4213H11.5074C11.5103 22.3917 11.5063 22.3618 11.4956 22.3341C11.4849 22.3063 11.4679 22.2815 11.446 22.2614C11.3848 22.224 11.3133 22.2071 11.2418 22.2132H11.014V22.502C11.014 22.6199 11.0329 22.697 11.0707 22.7334C11.1085 22.7698 11.187 22.7933 11.3061 22.8039V22.8389H11.2947C11.1346 22.8364 11.0158 22.8351 10.9383 22.8351C10.8954 22.8351 10.8496 22.8355 10.8008 22.8361L10.5908 22.8391Z" fill="#FAFAFA"/>
<path d="M11.7429 22.1578C11.7387 22.0646 11.7543 21.9715 11.7887 21.8848C11.8232 21.7981 11.8756 21.7197 11.9427 21.6549C12.089 21.5246 12.2807 21.457 12.4764 21.4667C12.5725 21.4622 12.6685 21.477 12.7587 21.5104C12.8489 21.5437 12.9315 21.595 13.0015 21.661C13.068 21.7289 13.1199 21.8099 13.1538 21.8988C13.1877 21.9877 13.203 22.0826 13.1986 22.1776C13.2025 22.2702 13.1866 22.3626 13.1519 22.4486C13.1173 22.5346 13.0647 22.6122 12.9977 22.6763C12.8517 22.8065 12.6604 22.8742 12.4649 22.8649C12.3689 22.8694 12.273 22.8547 12.1828 22.8215C12.0926 22.7883 12.01 22.7374 11.9398 22.6717C11.8734 22.6043 11.8215 22.5238 11.7876 22.4353C11.7538 22.3469 11.7385 22.2524 11.7429 22.1578ZM11.9736 22.1303C11.9659 22.3042 12.0165 22.4757 12.1172 22.6177C12.1585 22.6765 12.2134 22.7245 12.2773 22.7573C12.3412 22.7902 12.4122 22.807 12.484 22.8063C12.5519 22.8083 12.6192 22.7941 12.6805 22.765C12.7418 22.736 12.7953 22.6927 12.8367 22.6389C12.931 22.5099 12.978 22.3523 12.9698 22.1927C12.9701 22.1123 12.9596 22.0322 12.9387 21.9545C12.92 21.8831 12.89 21.8151 12.8498 21.7532C12.8058 21.6826 12.7461 21.6231 12.6754 21.5793C12.5827 21.5278 12.4748 21.5106 12.3707 21.5308C12.2666 21.551 12.173 21.6073 12.1063 21.6898C12.0128 21.8171 11.966 21.9726 11.9736 22.1303V22.1303Z" fill="#FAFAFA"/>
<path d="M13.4491 22.3206V21.8238C13.4511 21.7666 13.4475 21.7093 13.4383 21.6528C13.4331 21.6267 13.4193 21.6031 13.399 21.5857C13.3747 21.5669 13.3471 21.5527 13.3177 21.5436C13.2824 21.5332 13.2458 21.527 13.209 21.5253V21.4903C13.25 21.4916 13.2938 21.4925 13.3404 21.4931C13.387 21.4937 13.4576 21.494 13.5521 21.4941C13.6479 21.4941 13.7196 21.4938 13.7672 21.4931C13.8148 21.4924 13.8592 21.4915 13.9004 21.4903L13.9013 21.5253C13.8245 21.5188 13.7481 21.5414 13.6872 21.5886C13.6503 21.6276 13.6319 21.7053 13.6319 21.8217V22.3015C13.6296 22.3749 13.6368 22.4482 13.6532 22.5198C13.6659 22.5681 13.6904 22.6126 13.7245 22.6492C13.7656 22.6918 13.8161 22.7241 13.872 22.7436C13.9366 22.7665 14.0048 22.7778 14.0734 22.7769C14.1528 22.7801 14.2318 22.7626 14.3026 22.7263C14.3658 22.6885 14.4155 22.6319 14.4449 22.5643C14.4659 22.513 14.4785 22.4586 14.4822 22.4033C14.4895 22.3331 14.4931 22.2212 14.493 22.0675C14.495 21.9631 14.4911 21.8587 14.4812 21.7548C14.4775 21.709 14.4639 21.6645 14.4413 21.6244C14.4182 21.5913 14.3857 21.5658 14.3481 21.5512C14.2993 21.5335 14.2478 21.5247 14.1959 21.5252V21.4902C14.2305 21.4915 14.2674 21.4925 14.3065 21.493C14.3456 21.4936 14.4048 21.4939 14.4842 21.494C14.5641 21.494 14.6238 21.4937 14.6633 21.493C14.7028 21.4924 14.7392 21.4914 14.7725 21.4902V21.5252H14.7687C14.7367 21.5222 14.7046 21.529 14.6766 21.5447C14.6486 21.5604 14.626 21.5843 14.6118 21.6131C14.5835 21.6716 14.5693 21.8193 14.5693 22.0561C14.5693 22.0763 14.569 22.1065 14.5683 22.1468C14.5658 22.3659 14.5475 22.5148 14.5135 22.5935C14.4754 22.6832 14.4067 22.7564 14.3197 22.8C14.2148 22.8501 14.0994 22.8742 13.9832 22.8703C13.8893 22.8726 13.7958 22.8578 13.7072 22.8269C13.6365 22.8021 13.5747 22.757 13.5294 22.6974C13.5004 22.6569 13.4796 22.6109 13.4685 22.5623C13.4534 22.4827 13.4469 22.4016 13.4491 22.3206V22.3206Z" fill="#FAFAFA"/>
<path d="M14.8635 22.8392L14.8625 22.8042C14.902 22.8065 14.9413 22.7988 14.977 22.7818C15.0126 22.7647 15.0433 22.7389 15.0662 22.7067C15.1025 22.6467 15.1206 22.5228 15.1206 22.3348V21.9634C15.1206 21.9465 15.1206 21.9239 15.1215 21.8957C15.1224 21.8674 15.1224 21.8476 15.1224 21.8363C15.1243 21.7884 15.1179 21.7406 15.1035 21.6949C15.09 21.6603 15.0687 21.6293 15.0411 21.6044C15.0153 21.581 14.9853 21.5626 14.9528 21.5502C14.9159 21.5361 14.8772 21.5277 14.8379 21.5252V21.4902C14.8587 21.4902 14.889 21.4909 14.9287 21.4921C14.9683 21.4933 14.9973 21.494 15.0156 21.494C15.0345 21.494 15.062 21.4934 15.0979 21.4921C15.1338 21.4908 15.1599 21.4902 15.1763 21.4902L16.1444 22.5252V22.0795C16.147 21.9665 16.1424 21.8534 16.1306 21.741C16.126 21.6942 16.1092 21.6493 16.0819 21.611C16.0601 21.5842 16.0313 21.564 15.9987 21.5526C15.9558 21.5372 15.911 21.528 15.8656 21.5252V21.4902C15.8997 21.4915 15.9361 21.4924 15.9752 21.493C16.0143 21.4936 16.0714 21.494 16.1464 21.494C16.2214 21.494 16.2757 21.494 16.3113 21.493C16.347 21.492 16.3795 21.4915 16.4092 21.4902V21.5252H16.394C16.3619 21.5242 16.3304 21.5339 16.3043 21.5526C16.2783 21.5713 16.2591 21.5982 16.2498 21.6289C16.2154 21.7543 16.2015 21.8845 16.2087 22.0144V22.4273C16.2087 22.5234 16.2095 22.6087 16.2111 22.683C16.2127 22.7573 16.2148 22.8261 16.2173 22.8894H16.2058C16.1668 22.8442 16.1245 22.7955 16.0788 22.7433C16.0331 22.691 16.0077 22.662 16.0027 22.6563L15.1841 21.79V22.1718C15.1841 22.3596 15.1877 22.4861 15.195 22.5513C15.1976 22.6 15.2103 22.6477 15.2323 22.6912C15.2517 22.7206 15.2793 22.7438 15.3117 22.7578C15.3613 22.7793 15.4134 22.7944 15.4667 22.803V22.8389H15.4611C15.3279 22.8364 15.2286 22.8352 15.1633 22.8352C15.1268 22.8352 15.0874 22.8355 15.0451 22.8361C15.0029 22.8367 14.9423 22.8377 14.8635 22.8392Z" fill="#FAFAFA"/>
<path d="M16.5039 22.8389V22.8039C16.5764 22.8055 16.6473 22.783 16.7058 22.7401C16.7472 22.6819 16.7656 22.6103 16.7573 22.5393V21.7745C16.7644 21.7094 16.7472 21.644 16.7091 21.5909C16.6564 21.5496 16.5917 21.5264 16.5248 21.5249V21.49C16.6332 21.4887 16.7485 21.4869 16.8706 21.4848C16.9928 21.4826 17.0622 21.4815 17.0787 21.4814C17.3609 21.4814 17.5821 21.5429 17.7423 21.6658C17.8201 21.7242 17.8827 21.8007 17.9245 21.8886C17.9663 21.9766 17.9862 22.0733 17.9824 22.1706C17.9864 22.2653 17.9676 22.3595 17.9277 22.4454C17.8878 22.5313 17.828 22.6065 17.7531 22.6645C17.6003 22.7844 17.3896 22.8443 17.1212 22.8443C17.0696 22.8443 16.9743 22.8436 16.8353 22.842C16.6963 22.8405 16.5858 22.8394 16.5039 22.8389ZM16.9434 22.4844C16.9434 22.6099 16.9636 22.6932 17.004 22.7345C17.0443 22.7757 17.1196 22.7963 17.2298 22.7964C17.3002 22.7984 17.3701 22.7848 17.4345 22.7566C17.4989 22.7283 17.5562 22.686 17.6023 22.6328C17.7062 22.4971 17.757 22.3281 17.7453 22.1576C17.7335 21.9871 17.66 21.8267 17.5385 21.7065C17.3995 21.5861 17.2069 21.5259 16.9605 21.5259H16.9434V22.4844Z" fill="#FAFAFA"/>
<path d="M18.0059 22.8391V22.8041C18.0791 22.8022 18.1502 22.7794 18.211 22.7385C18.2443 22.7074 18.261 22.6404 18.261 22.5375V21.7955C18.261 21.6869 18.2445 21.6152 18.2114 21.5803C18.1592 21.5387 18.0933 21.518 18.0266 21.5223V21.4873C18.0896 21.4889 18.1568 21.4899 18.228 21.4904C18.2993 21.4909 18.4026 21.4911 18.5381 21.4911C18.6962 21.4911 18.812 21.4909 18.8854 21.4904C18.9588 21.4899 19.0248 21.4892 19.0835 21.4883C19.0778 21.5311 19.0729 21.5771 19.0688 21.6263C19.0647 21.6755 19.0608 21.7319 19.057 21.7955H19.0277C19.029 21.7587 19.0225 21.722 19.0087 21.6879C18.9949 21.6537 18.974 21.6229 18.9474 21.5974C18.8716 21.5534 18.7841 21.5341 18.6969 21.5422H18.4435V22.0999H18.6382C18.7141 22.1063 18.7903 22.0923 18.8589 22.0592C18.8815 22.0415 18.9001 22.0192 18.9136 21.9938C18.927 21.9684 18.9349 21.9404 18.9369 21.9118H18.9681C18.9681 21.9471 18.9667 22.0026 18.9639 22.0783C18.961 22.1539 18.9596 22.2129 18.9597 22.2551V22.3666H18.9313C18.9312 22.3391 18.9246 22.3119 18.9122 22.2874C18.8997 22.2628 18.8816 22.2415 18.8594 22.2252C18.7911 22.1929 18.7154 22.1792 18.6401 22.1853H18.4435V22.5294C18.4435 22.6347 18.4649 22.704 18.5078 22.7374C18.5506 22.7708 18.6341 22.7875 18.7583 22.7875C18.8552 22.7933 18.9509 22.7633 19.0272 22.7033C19.0989 22.6337 19.1448 22.5416 19.1572 22.4424L19.1884 22.4462C19.1849 22.5164 19.1769 22.5864 19.1643 22.6556C19.1527 22.7194 19.1361 22.7821 19.1146 22.8433C19.0234 22.8407 18.9235 22.8388 18.815 22.8375C18.7065 22.8363 18.5883 22.8356 18.4605 22.8357C18.3414 22.8357 18.25 22.836 18.1863 22.8366C18.1226 22.8372 18.0625 22.8381 18.0059 22.8391Z" fill="#FAFAFA"/>
<path d="M19.2734 22.8389V22.8039C19.3459 22.8055 19.4168 22.7831 19.4752 22.7401C19.5167 22.6819 19.5351 22.6103 19.5268 22.5393V21.7745C19.5339 21.7094 19.5167 21.644 19.4785 21.5909C19.4258 21.5495 19.3612 21.5264 19.2942 21.5249V21.49C19.4026 21.4887 19.518 21.4869 19.6405 21.4848C19.763 21.4826 19.8323 21.4815 19.8484 21.4814C20.1308 21.4814 20.352 21.5429 20.5121 21.6658C20.5899 21.7242 20.6525 21.8007 20.6943 21.8886C20.7361 21.9766 20.7559 22.0733 20.7521 22.1706C20.7561 22.2653 20.7373 22.3595 20.6975 22.4454C20.6576 22.5313 20.5977 22.6065 20.5229 22.6645C20.3701 22.7844 20.1595 22.8443 19.891 22.8443C19.8393 22.8443 19.744 22.8436 19.6051 22.842C19.4662 22.8405 19.3556 22.8394 19.2734 22.8389ZM19.713 22.4844C19.713 22.6099 19.7331 22.6932 19.7735 22.7345C19.8138 22.7757 19.8892 22.7963 19.9994 22.7964C20.0698 22.7984 20.1397 22.7848 20.2041 22.7566C20.2685 22.7283 20.3258 22.686 20.3719 22.6328C20.4757 22.4971 20.5266 22.3281 20.5148 22.1576C20.5031 21.9871 20.4296 21.8267 20.3081 21.7065C20.1691 21.5861 19.9764 21.5259 19.7301 21.5259H19.713V22.4844Z" fill="#FAFAFA"/>
<path d="M11.1828 18.96C11.1549 18.934 11.1394 18.919 11.131 18.9102C11.1232 18.9044 11.114 18.8975 11.1027 18.889C11.0282 18.8324 10.9567 18.7769 10.8877 18.7158L3.87559 27.3018L3.88091 27.3071C3.83854 27.3454 3.8052 27.3926 3.78332 27.4453C3.76144 27.4981 3.75155 27.555 3.75438 27.612C3.75721 27.6691 3.77268 27.7248 3.79968 27.7751C3.82667 27.8254 3.86451 27.8691 3.91047 27.903C3.95642 27.9368 4.00933 27.9601 4.06538 27.971C4.12142 27.982 4.17919 27.9803 4.23451 27.9661C4.28983 27.952 4.34131 27.9257 4.38522 27.8892C4.42914 27.8527 4.4644 27.8069 4.48844 27.7552L11.5516 19.1412C11.4135 19.1184 11.2852 19.0554 11.1828 18.96V18.96Z" fill="#FAFAFA"/>
<path d="M10.8585 8.26972C10.9566 8.17479 11.0807 8.11115 11.215 8.08686L4.6107 0L4.01562 0.513898L10.6731 8.63339C10.6936 8.4952 10.7587 8.36749 10.8585 8.26972V8.26972Z" fill="#FAFAFA"/>
<path d="M20.0894 8.32417C20.1865 8.41784 20.251 8.54027 20.2732 8.67338L26.9411 0.541309L26.346 0.0273438L19.7207 8.14004C19.8591 8.16344 19.9875 8.22754 20.0894 8.32417V8.32417Z" fill="#FAFAFA"/>
<path d="M27.0116 27.3075L27.017 27.3022L20.0326 18.75C20.0191 18.7947 20.0005 18.8377 19.9773 18.8781C19.9278 18.9668 19.8573 19.042 19.7722 19.0973C19.687 19.1526 19.5896 19.1863 19.4884 19.1954C19.4638 19.208 19.4383 19.219 19.4121 19.2281L26.4044 27.7556C26.4284 27.8074 26.4637 27.8532 26.5076 27.8897C26.5515 27.9262 26.603 27.9525 26.6583 27.9666C26.7136 27.9808 26.7714 27.9825 26.8275 27.9715C26.8835 27.9606 26.9365 27.9374 26.9824 27.9035C27.0284 27.8696 27.0662 27.8259 27.0932 27.7755C27.1202 27.7252 27.1357 27.6695 27.1385 27.6125C27.1413 27.5554 27.1314 27.4985 27.1095 27.4457C27.0876 27.393 27.0542 27.3458 27.0118 27.3075H27.0116Z" fill="#FAFAFA"/>
<path d="M48.1958 18.5789C48.1958 19.9966 48.2535 20.9955 48.369 21.5756C48.4844 22.1557 48.6804 22.5791 48.957 22.8459C49.2521 23.1222 49.6487 23.3548 50.1468 23.5435C50.6449 23.7322 51.2814 23.8864 52.0562 24.006L52.0423 24.5179C50.6494 24.4996 49.5887 24.4858 48.8601 24.4764C48.1315 24.467 47.4582 24.4624 46.8401 24.4625C45.6871 24.4625 43.9668 24.481 41.6792 24.5179H41.5961V24.006C42.3801 23.8864 43.0234 23.7323 43.5262 23.5435C44.029 23.3547 44.4233 23.1222 44.7092 22.8459C44.9951 22.5792 45.1957 22.1558 45.311 21.5756C45.4264 20.9954 45.4841 19.9966 45.4842 18.5789V5.72913H43.5197C41.7487 5.72913 40.4574 6.00123 39.6457 6.54543C38.834 7.08962 38.2483 8.04428 37.8886 9.40939L37.4043 9.32635L37.9437 3.86133H38.2757L39.1335 4.77445C40.019 4.77445 41.3243 4.77907 43.0492 4.7883C44.7741 4.79754 46.0654 4.80209 46.9231 4.80195C47.7716 4.80195 49.0445 4.79734 50.7417 4.7881C52.439 4.77887 53.7072 4.77425 54.5465 4.77425L55.487 3.86133H55.7083L56.1926 9.38189L55.736 9.47845C55.404 8.13225 54.8252 7.17082 53.9997 6.59417C53.1741 6.01752 51.9497 5.72917 50.3265 5.72913H48.1955L48.1958 18.5789Z" fill="#FAFAFA"/>
<path d="M56.3303 24.5182L56.3164 24.0063C57.1742 23.9695 57.7438 23.7946 58.0251 23.4817C58.3064 23.1687 58.4471 22.3545 58.4471 21.039L58.4194 7.99875C58.4194 7.41766 58.3664 6.97728 58.2603 6.67761C58.147 6.36707 57.9594 6.08902 57.7138 5.86777L56.9805 5.24519V4.99613L60.4532 3.58496L60.7438 3.72347L60.5778 13.2689C61.5463 12.6145 62.441 12.1213 63.2619 11.7894C64.0827 11.4574 64.8114 11.2914 65.4479 11.2916C66.7669 11.2916 67.7307 11.6645 68.3396 12.4103C68.9484 13.1562 69.2759 14.3717 69.3219 16.0568L69.4464 21.3842C69.4832 22.5252 69.6354 23.2268 69.903 23.489C70.1706 23.7513 70.7148 23.9238 71.5356 24.0065V24.5184C71.1848 24.5002 70.7905 24.4863 70.3526 24.4769C69.9147 24.4675 69.2437 24.4629 68.3396 24.4631C67.4355 24.4631 66.7483 24.4677 66.2781 24.4769C65.8078 24.4862 65.3743 24.5 64.9775 24.5184L64.9636 24.0065C65.8399 23.9147 66.4233 23.7215 66.7138 23.4271C67.0044 23.1328 67.1497 22.5256 67.1497 21.6056C67.1497 21.532 67.1451 21.3939 67.1358 21.1914C67.1266 20.9888 67.122 20.8278 67.122 20.7083L67.0667 17.4234C67.0297 15.8131 66.7322 14.647 66.1743 13.9251C65.6164 13.2031 64.7424 12.8419 63.5524 12.8414C63.0753 12.8439 62.6015 12.9208 62.1481 13.0693C61.6174 13.2469 61.109 13.4854 60.6331 13.7799V21.0119C60.6331 22.2265 60.783 23.0201 61.0827 23.3928C61.3825 23.7655 61.9797 23.9702 62.8745 24.0068L62.8606 24.5187C62.4732 24.5005 62.049 24.4867 61.5878 24.4773C61.1266 24.4678 60.4394 24.4632 59.5263 24.4634C58.6408 24.4634 57.9767 24.468 57.5339 24.4773C57.0912 24.4865 56.6899 24.5001 56.3303 24.5182Z" fill="#FAFAFA"/>
<path d="M82.5114 21.1143L82.9126 21.4602C82.1839 22.5213 81.3584 23.3237 80.436 23.8676C79.5282 24.4079 78.4901 24.6901 77.4337 24.6839C75.7548 24.6839 74.3436 24.0682 73.1999 22.837C72.0563 21.6057 71.4844 20.0676 71.4844 18.2227C71.4844 16.2857 72.0955 14.6461 73.3176 13.304C74.5398 11.9618 76.027 11.2908 77.7793 11.291C79.1906 11.291 80.3274 11.6876 81.1898 12.4809C82.0523 13.2742 82.5204 14.3579 82.5942 15.7322C81.0169 15.6769 79.5203 15.6354 78.1045 15.6077C76.6887 15.5801 75.3443 15.5662 74.0714 15.5662C74.0074 15.821 73.9612 16.0799 73.9331 16.341C73.9048 16.6122 73.8909 16.8847 73.8916 17.1573C73.8916 18.8084 74.3712 20.1782 75.3304 21.2665C76.2897 22.3549 77.4842 22.8991 78.9139 22.8991C79.5993 22.9048 80.2767 22.7509 80.8924 22.4496C81.5248 22.1307 82.0779 21.6744 82.5114 21.1143V21.1143ZM79.7304 14.8606C79.5458 13.9198 79.2368 13.198 78.8034 12.6952C78.37 12.1924 77.8397 11.9411 77.2123 11.9413C76.4928 11.9413 75.8587 12.2157 75.3099 12.7647C74.7611 13.3136 74.3852 14.0583 74.1823 14.999L79.7304 14.8606Z" fill="#FAFAFA"/>
<path d="M112.106 22.3078V22.8189C110.538 23.5283 109.048 24.0559 107.637 24.4014C106.302 24.7374 104.932 24.9114 103.555 24.9198C100.152 24.9198 97.4172 23.9997 95.3511 22.1595C93.2851 20.3192 92.252 17.8958 92.252 14.889C92.252 13.3671 92.5333 11.972 93.0959 10.7036C93.6586 9.43522 94.5026 8.30758 95.6279 7.32067C96.722 6.35812 97.9932 5.61792 99.3704 5.14142C100.777 4.64827 102.306 4.40159 103.957 4.40137C105.102 4.40382 106.245 4.501 107.374 4.69191C108.566 4.89291 109.741 5.18429 110.889 5.56355C110.842 6.32005 110.803 7.11563 110.771 7.95031C110.739 8.78499 110.713 9.67733 110.695 10.6273H110.266C109.841 8.83822 109.06 7.47084 107.921 6.52522C106.782 5.5796 105.336 5.10692 103.583 5.10719C101.167 5.10719 99.2157 5.91662 97.7308 7.5355C96.2458 9.15438 95.5033 11.292 95.5032 13.9484C95.4977 15.2379 95.7347 16.5168 96.2019 17.7187C96.6679 18.9137 97.3556 20.0098 98.2288 20.9492C99.1143 21.9085 100.203 22.6488 101.494 23.1699C102.819 23.6974 104.233 23.9628 105.659 23.9515C106.581 23.9515 107.197 23.8089 107.506 23.5236C107.815 23.2382 107.969 22.6258 107.969 21.6863V18.979C107.969 17.8558 107.702 17.0616 107.167 16.5964C106.632 16.1312 105.636 15.8388 104.178 15.7191V15.2072C104.934 15.222 105.675 15.2348 106.399 15.2458C107.123 15.2567 107.845 15.2623 108.564 15.2626C109.302 15.2626 110.028 15.258 110.743 15.2488C111.458 15.2396 112.157 15.2257 112.839 15.2072L112.853 15.7191C111.995 15.8298 111.421 16.0762 111.131 16.4583C110.84 16.8404 110.695 17.6484 110.695 18.8823V22.3079L112.106 22.3078Z" fill="#FAFAFA"/>
<path d="M116.212 16.9271V9.65515C116.212 8.42025 116.158 7.58619 116.052 7.15298C115.946 6.71977 115.755 6.39251 115.478 6.1712C115.122 5.89614 114.719 5.68773 114.288 5.55602C113.771 5.40191 113.237 5.31134 112.697 5.28631V4.77441C113.297 4.79297 113.938 4.8068 114.62 4.8159C115.303 4.825 116.336 4.82962 117.72 4.82975C119.122 4.82975 120.171 4.82514 120.867 4.8159C121.564 4.80667 122.212 4.79284 122.811 4.77441L122.825 5.28631C121.276 5.33253 120.231 5.64134 119.691 6.21276C119.151 6.78417 118.882 7.92242 118.882 9.62751V16.6507C118.882 18.0334 118.986 19.0979 119.193 19.8443C119.379 20.5523 119.738 21.203 120.238 21.7381C120.8 22.3374 121.52 22.7983 122.396 23.1208C123.272 23.4433 124.255 23.6046 125.343 23.6047C126.708 23.6047 127.826 23.3583 128.698 22.8655C129.57 22.3728 130.264 21.5824 130.781 20.4944C131.038 19.9507 131.22 19.1649 131.327 18.137C131.433 17.109 131.486 15.4709 131.486 13.2224C131.486 11.029 131.428 9.50376 131.312 8.64666C131.197 7.78957 131.001 7.15352 130.725 6.73851C130.385 6.25311 129.908 5.88013 129.355 5.66729C128.774 5.43235 128.031 5.30556 127.128 5.28691V4.77441C127.635 4.79297 128.174 4.8068 128.746 4.8159C129.318 4.825 130.185 4.82962 131.347 4.82975C132.519 4.82975 133.392 4.82514 133.969 4.8159C134.545 4.80667 135.078 4.79284 135.567 4.77441V5.28631H135.512C134.395 5.28631 133.63 5.71493 133.215 6.57216C132.8 7.42939 132.592 9.59089 132.592 13.0567C132.592 13.3514 132.587 13.7937 132.579 14.3837C132.541 17.5915 132.274 19.7715 131.776 20.9236C131.204 22.251 130.258 23.2579 128.939 23.9444C127.62 24.6309 125.979 24.9743 124.014 24.9745C122.437 24.9745 121.09 24.7624 119.974 24.3383C118.858 23.9142 117.991 23.2828 117.373 22.444C116.948 21.8504 116.644 21.1784 116.48 20.4669C116.301 19.7202 116.212 18.5402 116.212 16.9271Z" fill="#FAFAFA"/>
<path d="M136.629 24.5178V24.0059C138.068 23.9232 139.041 23.6264 139.548 23.1155C140.055 22.6045 140.309 21.4702 140.309 19.7126V9.56598C140.309 7.81738 140.06 6.68992 139.562 6.18359C139.064 5.67726 138.086 5.37817 136.629 5.28631V4.77441C137.201 4.77441 138.056 4.78365 139.196 4.80212C140.335 4.82059 141.186 4.8298 141.748 4.82975C142.311 4.82975 143.148 4.82054 144.259 4.80212C145.371 4.78369 146.199 4.77446 146.743 4.77441V5.28631C145.285 5.37848 144.308 5.68219 143.81 6.19744C143.312 6.71269 143.063 7.83554 143.062 9.56598V19.7125C143.062 21.4614 143.314 22.5957 143.817 23.1154C144.32 23.6351 145.295 23.932 146.743 24.0059L146.729 24.5178C145.327 24.4901 144.282 24.474 143.595 24.4695C142.908 24.465 142.265 24.4626 141.665 24.4624C141.065 24.4624 140.422 24.4648 139.735 24.4695C139.048 24.4742 138.012 24.4903 136.629 24.5178Z" fill="#FAFAFA"/>
<path d="M147.865 24.5184V24.0065C149.332 23.8875 150.317 23.5762 150.819 23.0724C151.322 22.5686 151.573 21.5886 151.573 20.1325V8.93945C151.573 7.6345 151.338 6.73862 150.867 6.25183C150.397 5.76503 149.497 5.44337 148.169 5.28683V4.77493C149.756 4.75668 151.444 4.73126 153.233 4.69868C155.023 4.66609 156.037 4.65 156.277 4.6504C160.409 4.6504 163.647 5.54971 165.99 7.34835C168.333 9.14698 169.504 11.6097 169.504 14.7366C169.504 17.799 168.386 20.2086 166.149 21.9656C163.912 23.7225 160.829 24.6011 156.9 24.6014C156.143 24.6014 154.748 24.5898 152.714 24.5666C150.68 24.5435 149.064 24.5274 147.865 24.5184ZM154.299 19.33C154.299 21.1657 154.594 22.3855 155.184 22.9894C155.775 23.5932 156.877 23.8954 158.491 23.8958C160.714 23.8958 162.531 23.0979 163.942 21.5022C165.354 19.9065 166.059 17.822 166.059 15.2485C166.059 12.1402 165.042 9.70512 163.008 7.94329C160.974 6.18146 158.154 5.30059 154.548 5.30068H154.299L154.299 19.33Z" fill="#FAFAFA"/>
<path d="M171.307 14.5426C171.307 11.4711 172.282 9.01753 174.233 7.182C176.184 5.34647 178.787 4.42871 182.043 4.42871C185.244 4.42871 187.805 5.3764 189.729 7.27177C191.652 9.16714 192.614 11.6876 192.614 14.8331C192.614 17.8587 191.633 20.2914 189.673 22.1313C187.713 23.9711 185.114 24.8913 181.877 24.8916C178.676 24.8916 176.114 23.9508 174.192 22.0691C172.269 20.1875 171.307 17.6786 171.307 14.5426ZM174.683 14.1413C174.683 17.0562 175.384 19.4336 176.786 21.2734C178.188 23.1132 179.977 24.0335 182.154 24.0342C184.293 24.0342 186.014 23.2178 187.315 21.5852C188.615 19.9526 189.266 17.7758 189.266 15.0548C189.27 13.8775 189.116 12.7048 188.809 11.5682C188.505 10.4522 188.071 9.46991 187.509 8.62121C186.752 7.47763 185.901 6.62906 184.956 6.07549C184.01 5.5221 182.938 5.24539 181.739 5.24534C179.627 5.24534 177.923 6.06164 176.627 7.69423C175.331 9.32683 174.683 11.4759 174.683 14.1413H174.683Z" fill="#FAFAFA"/>
<path d="M192.547 24.5178L192.534 24.0059C193.991 23.9323 194.985 23.4564 195.515 22.5783C196.045 21.7001 196.311 19.886 196.311 17.1361V11.701C196.311 11.4528 196.315 11.1219 196.325 10.7081C196.334 10.2942 196.338 10.0045 196.338 9.83875C196.338 8.9468 196.246 8.25707 196.062 7.76957C195.864 7.26328 195.551 6.80988 195.148 6.44517C194.77 6.10285 194.331 5.83394 193.855 5.65218C193.316 5.44658 192.749 5.3233 192.174 5.28651V4.77441C192.478 4.77441 192.921 4.78365 193.502 4.80212C194.083 4.82059 194.507 4.8298 194.775 4.82975C195.052 4.82975 195.453 4.82054 195.979 4.80212C196.504 4.78369 196.887 4.77446 197.127 4.77441L211.295 19.9227V13.3975C211.295 10.9514 211.228 9.30061 211.094 8.44529C210.96 7.58997 210.722 6.95549 210.381 6.54186C210.095 6.17387 209.689 5.88872 209.164 5.68641C208.638 5.4841 207.988 5.35073 207.213 5.28631V4.77441C207.711 4.79297 208.246 4.8068 208.817 4.8159C209.389 4.825 210.224 4.82962 211.322 4.82975C212.41 4.82975 213.215 4.82514 213.736 4.8159C214.258 4.80667 214.735 4.79284 215.168 4.77441V5.28631H214.947C213.941 5.28631 213.238 5.79216 212.837 6.80384C212.435 7.81552 212.235 9.69619 212.235 12.4459V18.4878C212.235 19.8952 212.246 21.1427 212.27 22.2304C212.293 23.3181 212.323 24.3249 212.359 25.251H212.193C211.621 24.5892 211.001 23.8763 210.333 23.1123C209.664 22.3484 209.293 21.9243 209.219 21.84L197.238 9.16269V14.7498C197.238 17.4999 197.291 19.3507 197.397 20.3023C197.503 21.2539 197.685 21.9368 197.943 22.3509C198.183 22.746 198.57 23.0725 199.105 23.3302C199.64 23.588 200.397 23.8087 201.375 23.9923V24.5184H201.291C199.345 24.4816 197.892 24.4632 196.933 24.463C196.398 24.463 195.822 24.4677 195.204 24.4769C194.586 24.4861 193.701 24.4998 192.547 24.5178Z" fill="#FAFAFA"/>
</svg>
