<svg width="207" height="27" viewBox="0 0 207 27" fill="none" xmlns="http://www.w3.org/2000/svg">
<path d="M2.27854 18.041L2.2219 18.0118C2.20372 18.0013 2.18915 17.9855 2.18011 17.9666C2.17108 17.9476 2.16799 17.9264 2.17126 17.9056C2.19319 17.6212 2.19639 16.9083 1.75521 16.4331C1.31078 15.9546 1.29198 15.2504 1.27574 14.6289C1.27235 14.5029 1.26935 14.384 1.26296 14.27C1.23579 13.7987 1.14788 13.7399 0.856878 13.5449C0.768975 13.486 0.659592 13.4127 0.533651 13.3144C-0.0928563 12.8256 -0.0353196 10.6335 0.0560354 9.89024C0.215859 8.59452 0.453803 7.73583 0.763669 7.33723C1.22396 6.74531 1.4371 6.25887 1.38167 6.18381C1.3761 6.18174 1.37023 6.18056 1.36428 6.1803C0.982307 6.15096 1.00564 5.7996 1.01689 5.63083C1.01868 5.60327 1.02047 5.57808 1.02047 5.55673C1.02047 5.39352 1.31148 4.71747 1.40072 4.51411C2.07339 2.9876 4.01026 0.610074 4.02975 0.586228L4.12974 0.463867L4.19213 0.609051C5.43543 3.50447 6.3236 3.9475 7.03731 4.30346C7.10386 4.3367 7.16907 4.36918 7.233 4.40281L7.32473 4.45101L7.26912 4.53917C6.48221 5.79046 4.39191 7.29734 4.02643 7.37354L3.99376 7.38032L4.00015 7.38543L4.03314 7.41049C4.20473 7.54001 4.43967 7.71735 4.45303 8.22495C4.46479 8.67245 3.76534 9.61222 3.08891 10.5217C2.9691 10.6827 2.85307 10.8387 2.74682 10.9845C2.18776 11.7517 2.3206 11.8967 2.54071 12.1367C2.56385 12.1622 2.5877 12.1878 2.61161 12.2153C2.91847 12.5657 2.91802 12.6397 2.60605 13.7965C2.36951 14.6739 2.42947 14.9231 2.54909 15.4194C2.58329 15.5614 2.62203 15.7224 2.65962 15.922C2.81305 16.7363 2.43887 17.9263 2.32802 18.0061L2.27854 18.041ZM4.07853 0.830885C3.67501 1.33631 2.15074 3.28647 1.57564 4.5914C1.4006 4.99038 1.21162 5.47305 1.21162 5.55673C1.21162 5.58166 1.2097 5.61126 1.20759 5.64355C1.19206 5.87676 1.21239 5.97636 1.37841 5.98915C1.4164 5.99002 1.45336 6.00161 1.48504 6.0226C1.51671 6.04358 1.5418 6.0731 1.55742 6.10774C1.70011 6.43039 0.995412 7.35104 0.914606 7.45499C0.630376 7.82041 0.399144 8.67066 0.245905 9.91371C0.179141 10.5275 0.171648 11.1463 0.22353 11.7616C0.28861 12.5011 0.440506 12.9988 0.651217 13.1632C0.77166 13.2573 0.873371 13.3254 0.963192 13.3856C1.28923 13.6039 1.42259 13.7142 1.45398 14.259C1.46075 14.3759 1.46395 14.4964 1.46734 14.6238C1.483 15.2112 1.50077 15.8768 1.89567 16.3026C2.20157 16.632 2.3167 17.0565 2.35442 17.4051C2.45901 17.0088 2.56053 16.431 2.47122 15.9571C2.43453 15.7622 2.39636 15.6038 2.36254 15.4639C2.23935 14.9525 2.17146 14.6712 2.42084 13.7461C2.72131 12.6317 2.71185 12.621 2.46719 12.3412C2.44431 12.315 2.42148 12.2901 2.3993 12.2659C2.11469 11.9556 1.97168 11.7225 2.59173 10.8712C2.69836 10.7248 2.81478 10.5684 2.93496 10.4069C3.53034 9.60653 4.27109 8.61044 4.26124 8.22955C4.25031 7.81446 4.07355 7.68091 3.91756 7.56315L3.88316 7.53707C3.85248 7.51348 3.82499 7.49488 3.80268 7.47953C3.74514 7.44041 3.68511 7.39994 3.70001 7.32412C3.71631 7.24153 3.77909 7.22823 3.98698 7.18508C4.26629 7.1269 6.2309 5.74411 7.0492 4.52415C7.01672 4.50774 6.98388 4.49131 6.95068 4.47486C6.2217 4.11142 5.3171 3.66027 4.07853 0.830885Z" fill="#FAFAFA"/>
<path d="M5.29582 2.9346C5.29582 2.9346 5.67671 3.601 5.20933 6.43153C4.43022 7.03745 4.30907 7.12401 4.30907 7.12401C4.30907 7.12401 4.60315 5.68714 4.56875 4.42338C4.53436 3.15963 4.02344 0.718678 4.02344 0.718678L4.10271 0.647461L5.29582 2.9346Z" fill="#FAFAFA"/>
<path d="M3.22837 1.80078C3.22837 1.80078 3.9555 4.00807 3.77369 7.30593C3.93864 7.45357 4.08671 7.61905 4.21518 7.79933C4.13418 7.71924 4.03584 7.65885 3.92777 7.62282C3.8197 7.58679 3.7048 7.5761 3.59194 7.59156C3.20242 7.64354 2.89083 7.82529 2.83885 7.0722C2.78688 6.31911 3.17646 4.4495 2.26758 3.17712C2.91678 2.16435 3.22837 1.80078 3.22837 1.80078Z" fill="#FAFAFA"/>
<path d="M1.5404 4.39746C1.5404 4.39746 2.13763 4.96873 2.26747 5.98144C2.39731 6.99414 2.31944 8.1108 3.12444 8.21468C3.92944 8.31857 4.35789 8.22747 4.35789 8.22747L3.90342 9.30512C3.90342 9.30512 2.81278 9.51283 2.39731 8.52608C1.98183 7.53933 2.21556 6.24093 1.37163 6.08513C0.995081 5.95529 1.11623 5.55714 1.11623 5.55714L1.5404 4.39746Z" fill="#FAFAFA"/>
<path d="M1.25441 6.8125C1.25441 6.8125 1.7218 7.12416 1.82568 8.4225C1.92957 9.72084 3.22791 10.1623 3.22791 10.1623L2.50084 11.1751C2.50084 11.1751 1.85164 10.5519 1.69584 9.98058C1.54004 9.40931 1.59196 8.18883 0.449219 8.29285C0.553232 7.79931 1.07259 7.07218 1.25441 6.8125Z" fill="#FAFAFA"/>
<path d="M0.267689 8.94141C0.267689 8.94141 0.91689 9.77249 1.20253 10.4216C1.48816 11.0706 2.37109 12.1614 2.37109 12.1614L2.70864 12.499L2.73466 12.9404C2.73466 12.9404 2.34514 12.7067 1.98157 12.473C1.618 12.2393 1.43625 11.9277 1.20253 11.6163C0.968801 11.305 0.65721 11.0191 0.0859375 10.7335C0.110085 10.133 0.170781 9.53452 0.267689 8.94141Z" fill="#FAFAFA"/>
<path d="M0.111328 11.4863C0.111328 11.4863 0.734575 12.343 0.9683 12.4731C1.20203 12.6032 1.981 12.8366 2.18878 13.2262C2.39655 13.6157 2.52632 13.8754 2.52632 13.8754L2.34457 14.8102C2.34457 14.8102 2.11085 14.0571 1.74728 13.8234C1.38371 13.5897 0.500658 13.2781 0.396964 13.0444C0.293271 12.8108 0.111328 11.4863 0.111328 11.4863Z" fill="#FAFAFA"/>
<path d="M1.30664 14.1865C1.30664 14.1865 1.74807 14.9137 1.9818 15.2252C2.21552 15.5368 2.60505 16.1601 2.60505 16.1601L2.52712 17.0429C2.52712 17.0429 2.4752 16.3937 2.16355 16.1863C1.85189 15.9788 1.41053 15.7708 1.41053 15.6669C1.41053 15.5631 1.30664 14.1865 1.30664 14.1865Z" fill="#FAFAFA"/>
<path d="M14.8873 19.9787C13.5209 19.9787 12.1851 19.5735 11.049 18.8144C9.91284 18.0552 9.02733 16.9762 8.50442 15.7138C7.98151 14.4514 7.84469 13.0622 8.11127 11.7221C8.37785 10.3819 9.03584 9.15088 10.0021 8.18467C10.9683 7.21846 12.1993 6.56046 13.5395 6.29389C14.8796 6.02731 16.2688 6.16413 17.5312 6.68704C18.7936 7.20994 19.8726 8.09546 20.6317 9.2316C21.3909 10.3677 21.7961 11.7035 21.7961 13.0699C21.794 14.9016 21.0655 16.6577 19.7703 17.9529C18.4751 19.2481 16.719 19.9766 14.8873 19.9787ZM14.8873 6.54478C13.5967 6.54478 12.3351 6.92747 11.2621 7.64447C10.189 8.36148 9.35267 9.38058 8.85879 10.5729C8.36491 11.7652 8.2357 13.0772 8.48748 14.343C8.73926 15.6088 9.36073 16.7715 10.2733 17.684C11.1859 18.5966 12.3486 19.218 13.6143 19.4698C14.8801 19.7216 16.1921 19.5923 17.3844 19.0985C18.5767 18.6046 19.5958 17.7682 20.3128 16.6951C21.0298 15.6221 21.4125 14.3605 21.4125 13.0699C21.4105 11.3399 20.7224 9.68137 19.4991 8.45809C18.2758 7.23481 16.6173 6.54672 14.8873 6.54478Z" fill="#FAFAFA"/>
<path d="M14.9046 19.3287C13.6703 19.3287 12.4638 18.9627 11.4375 18.277C10.4113 17.5913 9.61143 16.6166 9.1391 15.4763C8.66677 14.336 8.54318 13.0813 8.78398 11.8707C9.02477 10.6602 9.61912 9.54822 10.4919 8.67547C11.3646 7.80271 12.4766 7.20836 13.6871 6.96757C14.8977 6.72678 16.1524 6.85036 17.2927 7.32269C18.433 7.79502 19.4077 8.59488 20.0934 9.62113C20.7791 10.6474 21.1451 11.8539 21.1451 13.0882C21.1433 14.7427 20.4852 16.3289 19.3153 17.4988C18.1453 18.6688 16.5591 19.3268 14.9046 19.3287ZM14.9046 6.97552C13.6956 6.97552 12.5138 7.33402 11.5086 8.00569C10.5034 8.67736 9.71988 9.63202 9.25722 10.749C8.79457 11.8659 8.67352 13.095 8.90938 14.2807C9.14524 15.4664 9.72741 16.5556 10.5823 17.4105C11.4372 18.2654 12.5263 18.8475 13.7121 19.0834C14.8978 19.3193 16.1269 19.1982 17.2438 18.7355C18.3607 18.2729 19.3154 17.4894 19.9871 16.4842C20.6588 15.479 21.0173 14.2972 21.0173 13.0882C21.0154 11.4676 20.3709 9.91382 19.2249 8.76785C18.0789 7.62189 16.5252 6.97728 14.9046 6.97545V6.97552Z" fill="#FAFAFA"/>
<path d="M28.9425 19.0542L28.7635 18.9944C28.768 18.9649 29.2003 16.0263 28.4982 14.7976C28.2116 14.2961 27.8298 13.8081 27.4606 13.3361C26.8912 12.6082 26.3994 11.9795 26.3994 11.4781C26.408 11.1339 26.453 10.7916 26.5337 10.4568C26.6012 10.134 26.6595 9.85521 26.6093 9.62922C26.5795 9.49921 26.5429 9.37084 26.4998 9.24462C26.4211 9.00271 26.3318 8.72852 26.2441 8.06289C26.1059 7.01208 26.0219 6.58471 25.3235 6.56215C24.4801 6.53498 23.9509 6.34191 22.4242 4.60815L22.3398 4.51225L22.4552 4.45785C22.4684 4.45146 23.7822 3.82386 24.4855 2.78565C25.591 1.15373 25.6459 0.647725 25.6464 0.642802L25.6711 0.357422L25.8233 0.598499C26.1915 1.18607 27.2681 2.71513 27.8229 2.73489L27.8315 2.73521C28.6114 2.76308 28.7649 2.80623 28.9786 4.00842C29.0233 4.25928 29.0729 4.57676 29.1305 4.94441C29.3414 6.29217 29.6307 8.138 30.0183 8.96154C30.2873 9.53339 30.0404 10.3642 29.8312 10.9394L29.8242 10.9586C29.3338 12.2778 29.7322 13.1423 29.9265 13.4528C30.3823 14.1821 30.3535 15.3495 29.8409 16.9226C29.5979 17.6556 29.2975 18.3683 28.9425 19.0542ZM22.6504 4.57465C24.0696 6.17288 24.5416 6.34511 25.3296 6.37048C26.2187 6.39919 26.3045 7.05108 26.4343 8.03789C26.5196 8.686 26.6059 8.95125 26.6821 9.18529C26.7271 9.31733 26.7653 9.45164 26.7964 9.58766C26.8556 9.85399 26.7934 10.1516 26.7212 10.4962C26.6435 10.818 26.5998 11.1471 26.591 11.4781C26.591 11.9133 27.0866 12.5471 27.6114 13.218C27.9848 13.6953 28.3709 14.1889 28.6644 14.7024C29.2127 15.6619 29.114 17.5249 29.0206 18.4611C29.5245 17.3795 30.5583 14.8261 29.7635 13.5543C29.5545 13.2199 29.1242 12.2908 29.6443 10.8918L29.6507 10.8741C29.7645 10.5612 30.111 9.60915 29.8446 9.04337C29.4453 8.19496 29.1537 6.33347 28.9408 4.97427C28.8833 4.60763 28.8338 4.29106 28.7895 4.04218C28.5962 2.95461 28.5232 2.95199 27.8242 2.92706H27.8156C27.4846 2.9153 27.0193 2.53281 26.4324 1.79033C26.1555 1.44 25.9146 1.08801 25.7782 0.882537C25.6759 1.17399 25.3986 1.77959 24.6438 2.89382C24.0266 3.80513 22.9942 4.39532 22.6504 4.57465Z" fill="#FAFAFA"/>
<path d="M27.8662 6.21947C27.837 6.08522 27.8045 5.95097 27.7622 5.82036C27.7425 5.74069 27.7053 5.66643 27.6532 5.603C27.6005 5.54563 27.531 5.50638 27.4546 5.49087C27.1752 5.4442 27.0387 5.76736 27.0472 5.99911C27.0519 6.11869 27.0765 6.23666 27.12 6.34816C27.1547 6.45512 27.2148 6.55205 27.2953 6.6306C27.3478 6.67739 27.4139 6.70614 27.4839 6.71265C27.5539 6.71916 27.6242 6.70309 27.6844 6.66678C27.8204 6.57728 27.8634 6.41107 27.8714 6.25764C27.8711 6.21957 27.8559 6.18312 27.829 6.1562C27.802 6.12928 27.7656 6.11405 27.7275 6.1138C27.6896 6.11461 27.6535 6.13003 27.6267 6.15683C27.5999 6.18363 27.5845 6.21974 27.5837 6.25764C27.583 6.27106 27.582 6.28442 27.5808 6.29778C27.5808 6.30028 27.5773 6.32125 27.5802 6.30418C27.5833 6.2857 27.5786 6.31095 27.5777 6.3153C27.573 6.33934 27.5639 6.36184 27.5586 6.38562C27.5636 6.3644 27.5649 6.37284 27.5568 6.38818C27.5519 6.39777 27.5447 6.40666 27.5402 6.41631C27.5338 6.4291 27.5474 6.40538 27.5495 6.40499C27.5476 6.40499 27.5426 6.41311 27.541 6.41465C27.5381 6.41746 27.5346 6.42053 27.5323 6.4236C27.518 6.44015 27.5395 6.41439 27.5427 6.41669C27.5427 6.41669 27.5243 6.42807 27.5227 6.42948C27.5043 6.44226 27.5547 6.4188 27.5246 6.42782C27.5238 6.42782 27.5133 6.43082 27.5132 6.4305C27.5123 6.42756 27.5469 6.42999 27.5318 6.42794C27.5297 6.42794 27.5031 6.42794 27.5032 6.42794C27.5043 6.42456 27.5393 6.43536 27.5071 6.42705C27.4995 6.42513 27.465 6.41273 27.4919 6.42321C27.5165 6.4328 27.4955 6.42321 27.4893 6.41995C27.4653 6.40646 27.5079 6.43913 27.4935 6.42347C27.4819 6.41119 27.4702 6.39847 27.4584 6.38645C27.4485 6.37635 27.468 6.39803 27.4679 6.39873C27.4679 6.39655 27.4615 6.38978 27.4602 6.38786C27.4544 6.37891 27.4484 6.37009 27.4428 6.36095C27.4318 6.34285 27.4217 6.32419 27.4125 6.30514C27.4079 6.29593 27.4041 6.28634 27.3997 6.27726C27.3923 6.26301 27.4036 6.28679 27.4038 6.28749C27.4013 6.2811 27.3985 6.27432 27.396 6.26774C27.379 6.22342 27.365 6.17799 27.3542 6.13176C27.3488 6.10862 27.3444 6.08528 27.3404 6.06182C27.3393 6.05652 27.3385 6.05117 27.338 6.04577C27.338 6.04622 27.3406 6.0741 27.3398 6.05741C27.3393 6.0452 27.3373 6.03292 27.3365 6.02071C27.3351 5.99885 27.3346 5.97692 27.3353 5.955C27.3353 5.94534 27.3364 5.93582 27.337 5.92616C27.3391 5.89266 27.3321 5.9463 27.337 5.92322C27.3415 5.90199 27.3472 5.88103 27.354 5.86044C27.3562 5.85437 27.3695 5.82209 27.3638 5.83398C27.3581 5.84587 27.3738 5.8148 27.3772 5.80885C27.383 5.79843 27.3904 5.78897 27.3964 5.77861C27.4041 5.76512 27.3893 5.78987 27.3879 5.78961C27.3888 5.78961 27.3955 5.78104 27.3966 5.78015C27.4011 5.77599 27.4221 5.75796 27.4024 5.77299C27.3828 5.78801 27.4067 5.77222 27.4117 5.7687C27.4295 5.75643 27.3769 5.78104 27.4044 5.77273C27.4282 5.76557 27.3835 5.77273 27.3902 5.77382C27.3961 5.77462 27.4021 5.77462 27.408 5.77382C27.4182 5.77184 27.3851 5.77056 27.3843 5.77024C27.3881 5.77123 27.392 5.77198 27.3959 5.77248C27.4023 5.77481 27.4088 5.77675 27.4155 5.77829C27.4229 5.77951 27.3815 5.76091 27.4027 5.77292C27.4135 5.77932 27.4242 5.78507 27.4347 5.79172C27.4577 5.8063 27.4205 5.77893 27.4251 5.78405C27.4285 5.78769 27.4329 5.79076 27.4367 5.79421C27.4441 5.80061 27.4503 5.80885 27.4575 5.81563C27.4714 5.82842 27.4363 5.78021 27.4459 5.80067C27.4478 5.80476 27.4508 5.80872 27.453 5.81269C27.4552 5.81665 27.4579 5.82234 27.4603 5.8272C27.4708 5.84798 27.4613 5.83423 27.457 5.81857C27.4657 5.85053 27.4805 5.88212 27.4905 5.91402C27.5299 6.03964 27.5613 6.16826 27.5893 6.29689C27.5997 6.33353 27.6241 6.36461 27.6572 6.38342C27.6903 6.40223 27.7295 6.40724 27.7663 6.39739C27.8027 6.38644 27.8335 6.36178 27.8521 6.3286C27.8708 6.29542 27.8758 6.2563 27.8662 6.21947Z" fill="#FAFAFA"/>
<path d="M28.3399 7.83321C28.3231 7.68502 28.303 7.5369 28.278 7.38993C28.2519 7.23739 28.2307 7.0091 28.0528 6.95719C27.7833 6.87856 27.7061 7.24487 27.6884 7.43142C27.679 7.53533 27.6772 7.63979 27.683 7.74397C27.6845 7.87006 27.7057 7.99514 27.7456 8.11476C27.7661 8.19007 27.8137 8.25517 27.8792 8.29766C27.916 8.31631 27.957 8.32495 27.9982 8.3227C28.0394 8.32046 28.0793 8.30741 28.1138 8.28487C28.263 8.19205 28.3299 8.00039 28.3399 7.83353C28.3399 7.79538 28.3247 7.7588 28.2977 7.73182C28.2707 7.70484 28.2342 7.68969 28.196 7.68969C28.1579 7.68969 28.1213 7.70484 28.0943 7.73182C28.0673 7.7588 28.0522 7.79538 28.0522 7.83353C28.0522 7.83315 28.0465 7.88288 28.0507 7.85655C28.0482 7.87145 28.045 7.88622 28.041 7.90079C28.0373 7.91504 28.0325 7.92891 28.0283 7.94291C28.0155 7.98319 28.0403 7.92463 28.0206 7.96056C28.01 7.97974 27.9995 7.99892 27.9872 8.0172C28.0045 7.99163 27.9835 8.02091 27.9796 8.02506C27.9745 8.03039 27.9693 8.0355 27.9639 8.04041C27.9797 8.02903 27.9814 8.02762 27.9689 8.03644L27.9608 8.04136C27.9498 8.04699 27.9501 8.04705 27.9619 8.04136L27.971 8.03734C27.9557 8.04111 27.9606 8.04085 27.9856 8.03644C27.9639 8.03785 28.0146 8.04328 28.0212 8.04731L28.0367 8.0601C28.0264 8.04968 28.0277 8.0523 28.0405 8.06809C28.0318 8.05364 28.0238 8.0387 28.0168 8.02334C28.0325 8.05799 28.018 8.02398 28.0158 8.01733C28.0109 8.00275 28.0065 7.98792 28.0026 7.97302C27.9969 7.95129 27.9922 7.9293 27.9881 7.90718C27.9861 7.89676 27.9846 7.88627 27.9827 7.87579C27.9753 7.83385 27.9854 7.90539 27.9808 7.86249C27.9753 7.81001 27.9711 7.75752 27.9694 7.70478C27.9662 7.61899 27.9681 7.5331 27.9749 7.44753C27.9762 7.43301 27.9794 7.41793 27.9794 7.40341C27.9794 7.46325 27.9789 7.40878 27.9814 7.39408C27.9841 7.37778 27.9872 7.36148 27.9907 7.3453C27.9957 7.32229 28.0013 7.2994 28.0084 7.2769C28.012 7.26546 28.0162 7.25433 28.0201 7.24302C28.0079 7.27824 28.0221 7.23976 28.0265 7.23202C28.0304 7.22629 28.0341 7.22036 28.0375 7.21425C28.0446 7.19756 28.0136 7.24167 28.0311 7.22333C28.0405 7.21329 28.0566 7.20619 28.0204 7.22972C28.0332 7.22141 28.044 7.22198 28.0045 7.23439C28.034 7.22512 27.9643 7.23381 27.9935 7.23528C27.9464 7.23292 27.959 7.22889 27.9726 7.23324C27.9926 7.23918 27.9337 7.21265 27.9587 7.22812C27.9772 7.23956 27.928 7.20217 27.9444 7.21668C27.9474 7.21925 27.9503 7.222 27.9529 7.22492C27.9703 7.24455 27.9289 7.1881 27.9465 7.21783C27.9605 7.24167 27.9337 7.17826 27.9465 7.21885C27.9508 7.23253 27.9551 7.24621 27.9588 7.26002C27.9779 7.33124 27.9907 7.40431 28.0031 7.47693C28.0107 7.52239 28.0177 7.5679 28.0244 7.61349C28.0277 7.63656 28.0308 7.65964 28.0341 7.68272C28.0355 7.69199 28.0421 7.7246 28.0341 7.68125C28.0357 7.68975 28.0364 7.69851 28.0375 7.70682C28.043 7.74882 28.0483 7.79089 28.0531 7.83302C28.0542 7.87082 28.0697 7.90678 28.0964 7.93352C28.1231 7.96026 28.1591 7.97577 28.1969 7.97686C28.2348 7.97639 28.271 7.96109 28.2977 7.93423C28.3244 7.90737 28.3396 7.8711 28.3399 7.83321Z" fill="#FAFAFA"/>
<path d="M27.5099 6.52442C27.5141 6.52902 27.5183 6.53382 27.5223 6.53861C27.5264 6.54341 27.5313 6.54929 27.5357 6.55472C27.5387 6.55843 27.5415 6.56226 27.5446 6.56591C27.5581 6.58215 27.5203 6.53318 27.5335 6.55165C27.5706 6.60249 27.605 6.65517 27.6367 6.70949C27.6573 6.74572 27.6765 6.78269 27.6942 6.82041C27.7003 6.8332 27.7062 6.84598 27.7121 6.85877C27.7153 6.86599 27.7286 6.89713 27.7151 6.86516C27.7256 6.89031 27.7356 6.91567 27.7449 6.94124C27.7862 7.055 27.8168 7.17237 27.8362 7.29183C27.8464 7.32853 27.8708 7.35968 27.9039 7.3785C27.9371 7.39731 27.9763 7.40226 28.0131 7.39226C28.0493 7.38121 28.0799 7.35672 28.0986 7.32381C28.1172 7.29091 28.1226 7.2521 28.1135 7.21537C28.0762 6.98655 27.9988 6.76612 27.8848 6.56425C27.8372 6.47676 27.7795 6.3951 27.713 6.32093C27.6859 6.29425 27.6494 6.2793 27.6113 6.2793C27.5733 6.2793 27.5367 6.29425 27.5096 6.32093C27.4834 6.3483 27.4688 6.38474 27.4688 6.42264C27.4688 6.46055 27.4834 6.49698 27.5096 6.52435L27.5099 6.52442Z" fill="#FAFAFA"/>
<path d="M27.1647 7.39606C27.1647 7.39606 27.1072 7.24756 27.0234 7.25356C27.0459 7.46683 27.0483 7.48927 27.0625 7.62384C27.0767 7.75841 27.0779 8.00844 27.1328 8.44898C27.1877 8.88952 27.3802 9.99185 27.1876 11.0369C27.0607 11.1919 26.9682 11.2708 26.9749 10.9367C26.9816 10.6026 27.0562 8.99967 26.9653 8.77534C26.8744 8.55101 26.7032 8.44227 26.6094 8.43434C26.7508 8.62995 26.8311 8.86306 26.8401 9.10425C26.8445 9.22489 26.8236 10.7803 26.8379 10.9149C26.8521 11.0496 26.8723 11.4789 27.0854 11.2647C27.1202 11.5145 27.1301 11.5284 27.2266 11.646C27.3231 11.7635 27.2419 12.0305 27.1738 12.1824C27.1057 12.3343 27.3853 12.8581 27.4308 12.9703C27.4763 13.0824 27.7619 13.3143 27.9241 13.0092C28.024 12.759 27.6961 12.961 27.6774 12.9443C27.6588 12.9276 27.4892 12.9315 27.2895 12.4793C27.4744 12.1586 27.5452 11.7905 27.5046 11.6476C27.464 11.5046 27.2781 11.3369 27.2781 11.3369C27.2781 11.3369 27.5023 11.1478 27.5605 11.2206C27.6188 11.2933 27.6829 11.4223 27.6132 11.6387C27.7136 11.714 27.9251 11.803 27.9654 11.946C28.0058 12.089 28.1384 11.9902 28.1405 11.8501C28.1361 11.779 28.1124 11.7106 28.0721 11.6519C28.0318 11.5932 27.9763 11.5466 27.9116 11.517C27.8071 11.4838 27.836 11.4387 27.8669 11.2533C27.8977 11.0679 27.8257 10.5462 27.3569 11.0478C27.393 10.8314 27.7633 9.63679 27.5885 8.77828C27.7041 8.59813 27.8277 8.27324 27.8397 8.14679C27.8516 8.02033 27.7749 7.56906 27.7749 7.56906C27.7749 7.56906 27.6951 8.43255 27.5494 8.64652C27.4945 8.44457 27.396 8.22893 27.3911 8.18399C27.3862 8.13905 27.3619 7.82759 27.3619 7.82759C27.3619 7.82759 27.5714 7.57973 27.6042 7.49253C27.6371 7.40533 27.7033 7.15511 27.6419 7.21124C27.5805 7.26737 27.4687 7.40584 27.424 7.38072C27.3793 7.3556 27.3187 7.26072 27.1647 7.39606Z" fill="#FAFAFA"/>
<path d="M28.5042 5.71374C28.515 5.57852 28.5434 5.44528 28.5886 5.31738C28.6111 5.53065 28.6136 5.55309 28.6278 5.68779C28.642 5.82249 28.6883 6.02156 28.7282 6.47891C28.7682 6.93626 28.825 8.19094 29.1742 8.62739C29.3033 8.4948 29.3911 8.37109 29.3227 8.12145C29.2542 7.87181 28.9486 6.75905 28.9219 6.39945C28.8973 6.10748 28.9378 5.81369 29.0405 5.53928C29.0059 6.0846 29.0633 6.30336 29.0827 6.40725C29.102 6.51113 29.4123 7.69427 29.4265 7.82897C29.4408 7.96367 29.506 8.34239 29.2977 8.60162C29.3174 8.86821 29.3123 8.89909 29.2584 9.18562C29.2045 9.47215 29.319 9.51939 29.4013 9.50219C29.4837 9.485 29.4677 10.3694 29.453 10.5492C29.4383 10.7289 29.3705 11.2821 29.0855 11.4518C28.9596 11.4552 29.1671 11.1091 29.1786 11.0584C29.3079 10.7097 29.3716 10.3402 29.3664 9.96843C29.1601 10.0871 29.035 9.93902 29.0398 9.74525C29.0447 9.55148 29.1594 9.04612 29.1594 9.04612C29.1594 9.04612 28.9471 9.34736 28.915 9.52157C28.8828 9.69577 28.8568 9.92617 28.9526 9.9566C28.8876 10.2179 28.7378 10.7126 28.7332 10.9063C28.7285 11.1 28.6053 11.2886 28.577 11.1821C28.5488 11.0756 28.6183 10.6962 28.6944 10.46C28.7706 10.2239 28.7392 10.2467 28.6797 10.1627C28.6201 10.0788 28.5786 9.52291 29.0426 8.97644C28.9733 8.87856 28.456 8.68134 28.4315 7.654C28.3063 7.74446 28.1662 7.8516 28.1328 7.77604C28.1032 7.6808 28.0817 7.58324 28.0684 7.48439C28.0684 7.48439 28.2821 7.5957 28.4374 7.47161C28.4425 7.20208 28.4794 6.83411 28.4747 6.78929C28.47 6.74448 28.4305 6.44976 28.4305 6.44976C28.4305 6.44976 28.2185 6.67518 28.1762 6.67256C28.1339 6.66994 28.0343 6.60588 28.0934 6.52699C28.1525 6.4481 28.2665 6.33245 28.297 6.22288C28.3305 6.04076 28.401 5.86746 28.5042 5.71374Z" fill="#FAFAFA"/>
<path d="M27.8195 8.93924C27.8195 8.93924 28.3561 8.62976 28.486 8.50861C28.6158 8.38746 28.5119 8.74227 28.5119 8.74227C28.5708 8.9527 28.6063 9.16894 28.618 9.38713C28.6244 10.309 28.4687 10.5427 28.1744 10.6639C28.1744 10.6639 27.7844 10.8024 27.7503 10.0926C27.7221 9.50399 27.8455 9.19885 27.8455 9.19885C27.8455 9.19885 27.6897 8.99115 27.8195 8.93924Z" fill="#FAFAFA"/>
<path d="M27.5728 8.88136C27.5728 8.88136 27.761 8.98519 27.8844 8.98519C28.0077 8.98519 27.8454 9.13452 27.8454 9.13452C27.7468 9.08665 27.6514 9.03243 27.5598 8.97221L27.5078 8.92675L27.5792 8.84863L27.5728 8.88136Z" fill="#FAFAFA"/>
<path d="M12.8865 7.80566L12.5113 7.88986L12.1882 8.00819L11.8984 8.14308L11.6427 8.29562L11.4381 8.48146L11.2508 8.68399L11.0977 8.88645L10.9615 9.12318L10.8591 9.37641L10.7739 9.6304L10.7232 9.90056L10.6891 10.1705L10.6717 10.4748L10.6548 10.7622L10.6717 11.0663L10.6891 11.3703L10.7398 11.9955L10.8253 12.6036L10.91 13.1952L10.9615 13.7694L10.9782 14.0395L10.9953 14.3102L10.9782 14.5467L10.9615 14.7832L10.9272 15.0026L10.876 15.2052L10.7912 15.3743L10.6891 15.5432L10.6036 15.4924L10.5013 15.4249L10.3993 15.2901L10.2795 15.1377L10.2289 15.0193L10.1776 14.9011L10.1434 14.766L10.1096 14.6308L10.0752 14.4618L10.0586 14.276V14.0735V13.8535L9.85359 13.8877L9.75169 13.9209L9.66672 13.9552L9.59857 13.9894L9.53049 14.0395L9.47903 14.1075L9.44502 14.1577L9.37693 14.3102L9.3426 14.4618L9.32617 14.6308L9.36005 14.8168L9.39406 15.0026L9.46241 15.1885L9.54718 15.3743L9.63265 15.5767L9.75169 15.7459L9.87098 15.9318L9.99053 16.084L10.1267 16.2191L10.5862 16.0501L10.9782 15.8641L11.1483 15.78L11.2848 15.6784L11.4215 15.5767L11.5406 15.4758L11.6427 15.3743L11.7448 15.2559L11.8129 15.1549L11.881 15.0366L11.9324 14.9184L11.9665 14.8002L12.0346 14.5467L12.052 14.2933L12.0346 14.006L12.0177 13.7185L11.9665 13.3977L11.8644 12.7219L11.8129 12.3502L11.7786 11.9619L11.7622 11.8436L11.7279 11.5055L11.7105 10.9987L11.7279 10.7113L11.7448 10.3904L11.7786 10.0522L11.8467 9.71479L11.9324 9.35979L12.052 9.0223L12.2051 8.68399L12.2903 8.53228L12.3925 8.37981L12.4949 8.22811L12.6137 8.07564L12.7504 7.94068L12.8865 7.80566Z" fill="#FAFAFA"/>
<path d="M15.6284 16.507V16.2704L15.6452 16.0506L15.7131 15.6281L15.7981 15.2228L15.9176 14.8681L16.1567 14.1921L16.275 13.8712L16.3776 13.5673L16.4458 13.2459L16.4624 13.094V12.9421V12.7898L16.4458 12.6207L16.4291 12.4523L16.3776 12.2832L16.3096 12.1141L16.2415 11.9282L16.1388 11.7424L16.0202 11.5568L15.8828 11.3541L15.7298 11.151L15.5424 10.9316L15.3212 10.6952L14.8611 11.0668L14.3668 11.4382L13.788 11.844L13.7709 11.2524L13.788 10.6443L13.8221 9.93504L13.8387 9.58004L13.8902 9.24192L13.9583 8.92105L14.0264 8.63382L14.1285 8.38028L14.18 8.2794L14.2481 8.19437L14.3161 8.12692L14.3843 8.05942L14.4693 8.02528H14.5548L14.6228 8.09362L14.7081 8.16106L14.8097 8.22857L14.9292 8.29608L15.0488 8.34678L15.185 8.38028L15.3381 8.39696L15.4743 8.41422L15.6284 8.39696L15.7812 8.36366L15.9343 8.29608L16.1053 8.21125L16.2581 8.09362L16.4109 7.94115L16.5653 7.73862L16.7015 7.5187L16.5819 7.56953L16.4624 7.62028L16.3428 7.63697L16.2249 7.67111H15.9857L15.7645 7.65359L15.5258 7.58615L15.3046 7.50202L15.0821 7.4005L14.8611 7.28223L14.6054 7.38362L14.3843 7.50202L14.1626 7.63697L13.9583 7.78944L13.788 7.95777L13.6178 8.14355L13.4817 8.36366L13.3454 8.58357L13.2425 8.83667L13.1404 9.10683L13.0723 9.41101L13.0214 9.71525L12.9702 10.0527L12.9533 10.425V10.8133L12.9702 11.2184L13.0895 12.9591L13.1237 13.8712L13.1576 14.7664V15.1889V15.5945L13.1237 15.9831L13.0895 16.3212L13.0383 16.6421L12.9702 16.9122L12.8852 17.132L12.834 17.2161L12.7833 17.3011L12.5616 17.1653L12.3737 17.0471L12.1869 16.963L12.0332 16.8953L11.8971 16.8445L11.7608 16.8111L11.6413 16.7938H11.5392L11.4201 16.8111L11.3346 16.8445L11.147 16.9122L10.7559 17.0978L10.9601 17.1653L11.147 17.233L11.3006 17.3347L11.4368 17.4361L11.6585 17.6386L11.7608 17.723L11.863 17.8077L11.9651 17.8753L12.0671 17.9086L12.2037 17.926L12.3568 17.8919L12.5273 17.8412L12.7152 17.723L12.9533 17.5711L13.2256 17.3513L13.328 17.2503L13.4302 17.1486L13.5157 17.0471L13.6004 16.9295L13.7366 16.6754L13.8387 16.4053L13.9069 16.118L13.9583 15.8312L13.9926 15.5271V15.2228V14.9355L13.9757 14.6481L13.9409 14.108L13.8728 13.6348L13.8387 13.2966L13.8046 12.2998L13.8902 12.2157L13.9757 12.1141L14.0945 12.0466L14.1969 11.979L14.3161 11.9282L14.4352 11.9115L14.5548 11.9282L14.674 11.9624L14.7764 12.0466L14.8959 12.1649L14.9808 12.334L15.0821 12.5532L15.1517 12.824L15.2183 13.1615L15.27 13.5673L15.3046 14.04L15.3212 14.3615V14.682L15.2879 15.2056L15.253 15.6453L15.185 16.0336L15.1517 16.3545L15.1169 16.6754V16.8445L15.1339 16.9969L15.1517 17.1653L15.185 17.3513L15.2879 17.7402L15.3381 17.926L15.4062 18.0778L15.4743 18.2129L15.5603 18.3311L15.6284 18.4328L15.7298 18.5169L15.8148 18.5846L15.9176 18.6186L16.0202 18.6354H16.1219L16.2415 18.6019L16.3607 18.551L16.4972 18.4667L16.6334 18.3484L16.7865 18.2129L16.8547 18.1119L16.8891 18.0778V18.0269V17.9936L16.8713 17.9594L16.821 17.9086L16.735 17.8753L16.4793 17.7738L16.3428 17.7061L16.19 17.6386L16.0538 17.5369L15.9176 17.4021L15.7981 17.2503L15.7466 17.1486L15.6964 17.0471L15.6619 16.9295L15.6452 16.8111L15.6284 16.6587V16.507Z" fill="#FAFAFA"/>
<path d="M19.2917 12.6549H19.2569L18.9512 12.4183L18.7803 12.2665L18.6272 12.0974L18.4565 11.9282L18.3033 11.7424L18.1671 11.5398L18.0476 11.3369L17.9462 11.1343L17.8769 10.9316L17.8267 10.7285V10.5261L17.8433 10.425L17.8602 10.3235L17.8948 10.2385L17.9462 10.1375L18.0143 10.036L18.0822 9.95171L18.1671 9.86682L18.2688 9.78269L18.5079 9.90102L18.7467 10.07L18.9846 10.2726L19.2236 10.5091L19.4446 10.7793L19.5474 10.9316L19.6324 11.0835L19.7172 11.2524L19.7853 11.4216L19.8534 11.59L19.9046 11.7766L19.956 11.6749L20.0075 11.5734L20.0576 11.3708L20.0755 11.151V10.9316L20.0243 10.7285L19.956 10.5091L19.8534 10.2893L19.7172 10.0866L19.564 9.88433L19.4113 9.68104L19.2236 9.49539L19.0194 9.32668L18.8148 9.15765L18.5926 9.00524L18.3716 8.87022L18.1505 8.75195L17.9462 9.03938L17.7752 9.30942L17.6221 9.56277L17.5026 9.79931L17.3833 10.036L17.2985 10.256L17.2123 10.4752L17.1621 10.6783L17.1276 10.8808L17.0941 11.0668L17.0762 11.2358V11.4043L17.0941 11.5568L17.1109 11.7082L17.1442 11.8607L17.1957 11.9959L17.2985 12.2324L17.4348 12.4523L17.571 12.6549L17.7238 12.824L17.8948 12.9591L18.031 13.094L18.2688 13.2799L18.4912 13.4823L18.6786 13.6854L18.8317 13.9048L18.9679 14.108L19.0695 14.3272L19.1724 14.5471L19.2403 14.7664L19.2917 14.9863L19.325 15.1889V15.3915V15.5772L19.3083 15.7631L19.2748 15.9323L19.2236 16.0845L19.1724 16.2195L19.1041 16.3378L19.0194 16.4395L18.9333 16.5236L18.8317 16.5744L18.7288 16.5912H18.6272L18.5079 16.5571L18.3883 16.507L18.2688 16.4053L18.1505 16.287L18.031 16.118L17.9116 15.9154L17.7921 15.6622L17.6723 15.3747L17.554 15.0537L17.4514 14.6654L17.35 14.2429L17.2816 14.4798L17.2305 14.7329L17.2123 15.003V15.2906L17.2472 15.5772L17.2985 15.8645L17.3667 16.152L17.4514 16.4222L17.554 16.6754L17.6723 16.8953L17.8088 17.0978L17.9462 17.267L18.0143 17.3177L18.0991 17.3852L18.1671 17.4194L18.2522 17.4528L18.3369 17.4695H18.4228L18.5079 17.4528L18.5926 17.4194L18.7467 17.3347L18.9164 17.2161L19.121 17.0646L19.325 16.8786L19.5296 16.6587L19.7341 16.4053L19.9215 16.118L20.0924 15.8138L20.1606 15.6453L20.212 15.4762L20.2622 15.3072L20.2967 15.1214L20.3136 14.9355V14.7498L20.2967 14.5638L20.2801 14.3615L20.2287 14.1581L20.1606 13.9557L20.0755 13.7357L19.9729 13.5332L19.8364 13.3138L19.6838 13.094L19.496 12.8742L19.2917 12.6549Z" fill="#FAFAFA"/>
<path d="M12.6582 24.1088V24.0657C12.723 24.0641 12.7871 24.0525 12.8484 24.0313C12.893 24.0162 12.9318 23.9875 12.9592 23.9493C12.9799 23.9054 12.991 23.8576 12.9919 23.8091C12.9981 23.7397 13.0012 23.6266 13.0012 23.47V22.9674C13.0033 22.8738 12.9992 22.7801 12.989 22.6871C12.9852 22.6456 12.9705 22.6059 12.9464 22.572C12.9171 22.5429 12.8804 22.5224 12.8402 22.5127C12.781 22.495 12.7199 22.4845 12.6582 22.4813V22.4357C12.6885 22.4365 12.722 22.4371 12.7586 22.4375C12.7951 22.4379 12.8492 22.4381 12.9208 22.4381C13.0086 22.4381 13.0741 22.4379 13.1173 22.4375C13.1606 22.4371 13.2 22.4361 13.2357 22.4346C13.2303 22.5166 13.2263 22.5886 13.2235 22.6507C13.2208 22.7127 13.2194 22.7629 13.2194 22.8011V23.6085C13.2169 23.6991 13.2214 23.7897 13.2329 23.8796C13.238 23.9185 13.254 23.9552 13.279 23.9854C13.3097 24.0134 13.3471 24.033 13.3876 24.0424C13.4464 24.0571 13.5067 24.065 13.5673 24.0657V24.1089C13.4437 24.1065 13.3508 24.1051 13.2885 24.1047C13.2262 24.1043 13.1682 24.1041 13.1146 24.1042C13.061 24.1042 13.003 24.1044 12.9408 24.1047C12.8785 24.1051 12.7843 24.1064 12.6582 24.1088Z" fill="#FAFAFA"/>
<path d="M13.8379 24.1684L13.8145 24.1183C13.99 24.0357 14.1507 23.9247 14.29 23.7898C14.4061 23.6742 14.4934 23.5329 14.5449 23.3774C14.49 23.4103 14.4313 23.4365 14.37 23.4552C14.3144 23.4718 14.2566 23.4803 14.1985 23.4804C14.1325 23.4836 14.0665 23.4729 14.0049 23.4491C13.9432 23.4252 13.8873 23.3887 13.8406 23.3418C13.794 23.295 13.7577 23.2389 13.7342 23.1771C13.7106 23.1153 13.7002 23.0493 13.7038 22.9833C13.7011 22.9076 13.7142 22.8321 13.7422 22.7617C13.7702 22.6912 13.8125 22.6274 13.8665 22.5742C13.922 22.5209 13.9876 22.4794 14.0595 22.452C14.1314 22.4246 14.208 22.412 14.2849 22.4149C14.363 22.4106 14.4412 22.4226 14.5144 22.45C14.5877 22.4774 14.6545 22.5197 14.7107 22.5742C14.7644 22.6332 14.8057 22.7024 14.8324 22.7776C14.859 22.8529 14.8704 22.9326 14.8659 23.0123C14.8663 23.2683 14.7698 23.515 14.5958 23.7028C14.389 23.9226 14.1274 24.0833 13.8379 24.1684ZM14.5695 23.2969C14.5817 23.248 14.5912 23.1986 14.5981 23.1487C14.6046 23.1011 14.6079 23.0532 14.608 23.0052C14.6148 22.8711 14.5837 22.7379 14.5181 22.6207C14.4941 22.5774 14.4589 22.5414 14.4161 22.5165C14.3734 22.4915 14.3247 22.4786 14.2752 22.479C14.2287 22.4777 14.1827 22.4877 14.1409 22.5081C14.0991 22.5285 14.0629 22.5587 14.0354 22.5962C13.9725 22.6952 13.9411 22.8109 13.9453 22.9281C13.9496 23.0453 13.9894 23.1584 14.0593 23.2525C14.0955 23.2952 14.1408 23.3293 14.1919 23.3521C14.243 23.375 14.2985 23.386 14.3545 23.3844C14.3944 23.3849 14.4341 23.3776 14.4712 23.3628C14.5079 23.3474 14.5413 23.325 14.5695 23.2969Z" fill="#FAFAFA"/>
<path d="M14.9714 24.1132L14.9551 24.0794C15.1831 23.895 15.3894 23.6851 15.57 23.454C15.6999 23.275 15.7648 23.1132 15.7648 22.9686C15.7703 22.8752 15.7417 22.7829 15.6843 22.709C15.6566 22.6775 15.6222 22.6528 15.5836 22.6365C15.545 22.6203 15.5033 22.6129 15.4615 22.6151C15.3906 22.6159 15.3211 22.6355 15.2601 22.6716C15.1858 22.7162 15.1197 22.7732 15.0647 22.8402L15.0286 22.8111C15.0838 22.6959 15.1639 22.5945 15.2631 22.5141C15.348 22.451 15.4514 22.4175 15.5572 22.419C15.6163 22.4177 15.6751 22.4291 15.7295 22.4523C15.7839 22.4755 15.8328 22.5102 15.8727 22.5538C15.9576 22.6449 16.0031 22.7659 15.9993 22.8904C15.9993 23.0344 15.9381 23.189 15.8156 23.3542C15.6477 23.5643 15.4543 23.7527 15.2398 23.9149L15.6645 23.9102C15.7246 23.9118 15.7847 23.9083 15.8441 23.8997C15.8746 23.895 15.9034 23.883 15.9281 23.8647C15.9576 23.8378 15.984 23.8078 16.0069 23.7752C16.0403 23.7284 16.0713 23.6799 16.0997 23.6299L16.1405 23.6498L15.9608 24.1083C15.8535 24.1067 15.7699 24.1056 15.71 24.1048C15.65 24.104 15.5944 24.1036 15.5432 24.1036C15.4381 24.1036 15.3385 24.1044 15.2444 24.106C15.1503 24.1075 15.0593 24.1099 14.9714 24.1132Z" fill="#FAFAFA"/>
<path d="M16.3497 24.1678L16.3264 24.1177C16.5019 24.0351 16.6625 23.9241 16.8018 23.7892C16.9179 23.6736 17.0053 23.5323 17.0568 23.3767C17.0018 23.4096 16.943 23.4356 16.8817 23.4543C16.8261 23.4709 16.7683 23.4793 16.7103 23.4794C16.6442 23.4826 16.5783 23.472 16.5166 23.4481C16.455 23.4242 16.399 23.3877 16.3524 23.3409C16.3058 23.294 16.2695 23.2379 16.2459 23.1761C16.2223 23.1144 16.212 23.0484 16.2155 22.9824C16.2128 22.9066 16.2259 22.8311 16.254 22.7607C16.282 22.6902 16.3244 22.6264 16.3784 22.5732C16.495 22.4706 16.645 22.4141 16.8003 22.4141C16.9556 22.4141 17.1056 22.4706 17.2222 22.5732C17.2759 22.6323 17.3172 22.7014 17.3439 22.7767C17.3705 22.8519 17.3819 22.9317 17.3774 23.0114C17.3779 23.2674 17.2814 23.5141 17.1073 23.7018C16.9007 23.9217 16.6392 24.0826 16.3497 24.1678ZM17.0813 23.2962C17.0935 23.2474 17.1031 23.1979 17.1099 23.1481C17.1164 23.1005 17.1197 23.0525 17.1198 23.0045C17.1266 22.8705 17.0955 22.7372 17.03 22.6201C17.006 22.5768 16.9707 22.5408 16.928 22.5158C16.8852 22.4909 16.8365 22.4779 16.7871 22.4783C16.7406 22.477 16.6945 22.487 16.6527 22.5075C16.611 22.5279 16.5748 22.5581 16.5473 22.5956C16.4843 22.6945 16.4529 22.8103 16.4572 22.9275C16.4615 23.0446 16.5013 23.1578 16.5712 23.2519C16.6074 23.2946 16.6527 23.3287 16.7038 23.3515C16.7549 23.3743 16.8104 23.3854 16.8664 23.3838C16.9063 23.3843 16.946 23.3769 16.9831 23.3622C17.0198 23.3467 17.0531 23.3243 17.0813 23.2962Z" fill="#FAFAFA"/>
<path d="M11.8645 23.3115H10.1387V23.3755H11.8645V23.3115Z" fill="#FAFAFA"/>
<path d="M20.0052 23.3115H18.2793V23.3755H20.0052V23.3115Z" fill="#FAFAFA"/>
<path d="M10.165 21.9247L10.1641 21.8911C10.2308 21.8941 10.2965 21.874 10.3501 21.8342C10.381 21.8023 10.3964 21.7277 10.3964 21.6104V20.9509C10.3964 20.8322 10.3815 20.7563 10.3516 20.7231C10.3019 20.682 10.2391 20.6599 10.1746 20.6606V20.627C10.2333 20.627 10.3147 20.6276 10.4188 20.6288C10.5228 20.63 10.5975 20.6306 10.6429 20.6306C10.721 20.6306 10.801 20.6303 10.8829 20.6297C10.9649 20.6291 11.0597 20.6282 11.1674 20.627L11.1393 20.93H11.1121C11.1147 20.8934 11.1091 20.8566 11.0957 20.8224C11.0822 20.7881 11.0613 20.7573 11.0345 20.7322C10.9864 20.6959 10.8931 20.6778 10.7545 20.6778H10.5712V21.2422H10.7844C10.8535 21.2475 10.9225 21.2317 10.9823 21.1969C11.0042 21.1794 11.0217 21.1572 11.0335 21.1318C11.0453 21.1064 11.0511 21.0787 11.0504 21.0507L11.0803 21.0517C11.0773 21.111 11.075 21.1668 11.0735 21.2191C11.072 21.2715 11.0713 21.3221 11.0712 21.3711C11.0712 21.4123 11.0714 21.4434 11.0717 21.4646C11.0717 21.4858 11.0721 21.5054 11.0721 21.5236H11.0449C11.0477 21.4952 11.0438 21.4665 11.0336 21.4399C11.0233 21.4132 11.007 21.3894 10.9859 21.3701C10.9272 21.3341 10.8585 21.3179 10.7899 21.3238H10.5712V21.601C10.5712 21.7142 10.5894 21.7883 10.6257 21.8232C10.662 21.8581 10.7373 21.8807 10.8516 21.8909V21.9245H10.8408C10.6871 21.9221 10.573 21.9209 10.4986 21.9209C10.4574 21.9209 10.4134 21.9212 10.3666 21.9218L10.165 21.9247Z" fill="#FAFAFA"/>
<path d="M11.2722 21.2707C11.2681 21.1812 11.2831 21.0919 11.3161 21.0087C11.3492 20.9255 11.3996 20.8502 11.464 20.7879C11.6045 20.6629 11.7885 20.598 11.9763 20.6073C12.0686 20.6029 12.1607 20.6172 12.2474 20.6492C12.334 20.6813 12.4132 20.7304 12.4804 20.7938C12.5443 20.859 12.5941 20.9368 12.6267 21.0221C12.6592 21.1074 12.6738 21.1985 12.6696 21.2898C12.6734 21.3787 12.6581 21.4674 12.6248 21.5499C12.5916 21.6325 12.5411 21.707 12.4768 21.7685C12.3366 21.8935 12.1529 21.9585 11.9653 21.9495C11.8732 21.9539 11.7811 21.9397 11.6945 21.9079C11.6079 21.8761 11.5286 21.8272 11.4612 21.7641C11.3974 21.6994 11.3477 21.6221 11.3151 21.5372C11.2826 21.4523 11.268 21.3616 11.2722 21.2707ZM11.4936 21.2444C11.4863 21.4113 11.5348 21.576 11.6315 21.7122C11.6711 21.7687 11.7238 21.8148 11.7852 21.8463C11.8466 21.8778 11.9147 21.894 11.9837 21.8933C12.0488 21.8952 12.1134 21.8816 12.1723 21.8537C12.2311 21.8258 12.2825 21.7843 12.3222 21.7326C12.4127 21.6088 12.4579 21.4575 12.45 21.3043C12.4503 21.2271 12.4402 21.1502 12.4201 21.0756C12.4022 21.007 12.3734 20.9418 12.3348 20.8823C12.2926 20.8145 12.2353 20.7574 12.1674 20.7154C12.0784 20.6659 11.9748 20.6494 11.8749 20.6688C11.7749 20.6882 11.6851 20.7423 11.6211 20.8215C11.5313 20.9436 11.4863 21.093 11.4936 21.2444Z" fill="#FAFAFA"/>
<path d="M12.9102 21.427V20.9501C12.9122 20.8952 12.9087 20.8402 12.8998 20.7859C12.8948 20.7609 12.8815 20.7382 12.8621 20.7216C12.8388 20.7035 12.8123 20.6898 12.7841 20.6812C12.7501 20.6711 12.7151 20.6652 12.6797 20.6635V20.6299C12.719 20.6312 12.7611 20.6321 12.8058 20.6326C12.8506 20.6332 12.9183 20.6335 13.0091 20.6336C13.101 20.6336 13.1699 20.6333 13.2155 20.6326C13.2612 20.632 13.3038 20.6311 13.3434 20.6299L13.3443 20.6635C13.2706 20.6573 13.1972 20.679 13.1388 20.7243C13.1033 20.7618 13.0856 20.8364 13.0856 20.9481V21.4087C13.0835 21.4792 13.0904 21.5496 13.1061 21.6182C13.1183 21.6647 13.1419 21.7073 13.1746 21.7424C13.214 21.7833 13.2625 21.8144 13.3162 21.8331C13.3782 21.8551 13.4437 21.8659 13.5095 21.8651C13.5858 21.8681 13.6616 21.8514 13.7295 21.8165C13.7902 21.7802 13.838 21.7259 13.8662 21.661C13.8863 21.6117 13.8984 21.5595 13.902 21.5064C13.9089 21.439 13.9124 21.3316 13.9124 21.184C13.9143 21.0838 13.9105 20.9836 13.9011 20.8839C13.8975 20.8399 13.8844 20.7972 13.8627 20.7587C13.8405 20.7269 13.8094 20.7024 13.7732 20.6884C13.7264 20.6714 13.6769 20.663 13.6271 20.6634V20.6299C13.6604 20.6311 13.6958 20.632 13.7333 20.6326C13.7709 20.6331 13.8277 20.6334 13.9039 20.6335C13.9806 20.6335 14.0379 20.6332 14.0758 20.6326C14.1138 20.6319 14.1487 20.631 14.1807 20.6299V20.6634H14.177C14.1463 20.6606 14.1155 20.6671 14.0886 20.6822C14.0617 20.6972 14.04 20.7201 14.0264 20.7478C13.9992 20.804 13.9856 20.9458 13.9856 21.1732C13.9856 21.1925 13.9853 21.2215 13.9847 21.2602C13.9822 21.4705 13.9647 21.6135 13.932 21.6891C13.8955 21.7751 13.8295 21.8454 13.746 21.8872C13.6453 21.9353 13.5345 21.9585 13.4229 21.9548C13.3328 21.9569 13.243 21.9428 13.1579 21.9131C13.0901 21.8892 13.0308 21.846 12.9873 21.7888C12.9594 21.7499 12.9395 21.7058 12.9288 21.6591C12.9143 21.5826 12.9081 21.5048 12.9102 21.427Z" fill="#FAFAFA"/>
<path d="M14.2667 21.9249L14.2658 21.8913C14.3037 21.8935 14.3415 21.8861 14.3757 21.8697C14.4099 21.8534 14.4394 21.8286 14.4614 21.7977C14.4962 21.7401 14.5136 21.6211 14.5136 21.4407V21.0842C14.5136 21.0679 14.5136 21.0462 14.5145 21.0191C14.5154 20.992 14.5154 20.9729 14.5154 20.9621C14.5172 20.9161 14.511 20.8702 14.4972 20.8263C14.4842 20.7931 14.4637 20.7634 14.4373 20.7395C14.4125 20.717 14.3837 20.6993 14.3525 20.6874C14.3171 20.674 14.2799 20.6659 14.2422 20.6634V20.6299C14.2622 20.6299 14.2912 20.6305 14.3293 20.6317C14.3674 20.6329 14.3953 20.6335 14.4128 20.6335C14.431 20.6335 14.4573 20.6329 14.4918 20.6317C14.5262 20.6304 14.5513 20.6298 14.5671 20.6299L15.4964 21.6235V21.1955C15.4989 21.0871 15.4945 20.9785 15.4832 20.8706C15.4788 20.8257 15.4627 20.7826 15.4365 20.7458C15.4155 20.7201 15.3879 20.7007 15.3566 20.6897C15.3154 20.675 15.2724 20.6662 15.2287 20.6634V20.6299C15.2615 20.6311 15.2965 20.632 15.334 20.6326C15.3716 20.6331 15.4264 20.6335 15.4983 20.6335C15.5703 20.6335 15.6225 20.6335 15.6567 20.6326C15.6909 20.6316 15.7222 20.6311 15.7506 20.6299V20.6634H15.7361C15.7053 20.6625 15.675 20.6718 15.65 20.6898C15.625 20.7077 15.6066 20.7335 15.5976 20.763C15.5646 20.8834 15.5513 21.0084 15.5582 21.1331V21.5294C15.5582 21.6217 15.5589 21.7036 15.5605 21.7749C15.562 21.8463 15.564 21.9123 15.5664 21.9731H15.5554C15.518 21.9297 15.4773 21.8829 15.4334 21.8328C15.3896 21.7826 15.3652 21.7548 15.3604 21.7494L14.5746 20.9177V21.2841C14.5746 21.4645 14.578 21.5859 14.585 21.6485C14.5875 21.6953 14.5997 21.741 14.6208 21.7828C14.6395 21.8111 14.6659 21.8333 14.697 21.8467C14.7446 21.8673 14.7946 21.8819 14.8459 21.8901V21.9246H14.8404C14.7126 21.9222 14.6173 21.921 14.5546 21.921C14.5195 21.921 14.4817 21.9213 14.4411 21.9219C14.4006 21.9225 14.3424 21.9235 14.2667 21.9249Z" fill="#FAFAFA"/>
<path d="M15.8418 21.9253V21.8916C15.9114 21.8931 15.9795 21.8716 16.0356 21.8304C16.0754 21.7745 16.093 21.7058 16.085 21.6376V20.9034C16.0919 20.8409 16.0754 20.7781 16.0388 20.7271C15.9882 20.6875 15.9261 20.6653 15.8618 20.6638V20.6303C15.9659 20.629 16.0766 20.6274 16.1939 20.6253C16.3111 20.6232 16.3777 20.6221 16.3936 20.6221C16.6645 20.6221 16.8769 20.6811 17.0306 20.799C17.1054 20.8551 17.1654 20.9285 17.2056 21.013C17.2457 21.0974 17.2648 21.1903 17.2612 21.2837C17.2649 21.3745 17.2469 21.465 17.2087 21.5475C17.1704 21.63 17.1129 21.7021 17.041 21.7578C16.8943 21.8729 16.6921 21.9304 16.4344 21.9304C16.3848 21.9304 16.2934 21.9297 16.1599 21.9282C16.0265 21.9267 15.9204 21.9257 15.8418 21.9253ZM16.2637 21.5849C16.2637 21.7054 16.2831 21.7854 16.3218 21.825C16.3606 21.8646 16.4329 21.8844 16.5387 21.8844C16.6062 21.8864 16.6733 21.8733 16.7351 21.8462C16.797 21.819 16.852 21.7784 16.8962 21.7274C16.996 21.5971 17.0448 21.4349 17.0335 21.2712C17.0222 21.1075 16.9517 20.9535 16.835 20.8381C16.7016 20.7225 16.5166 20.6647 16.2801 20.6648H16.2637V21.5849Z" fill="#FAFAFA"/>
<path d="M17.2832 21.9247V21.8911C17.3535 21.8892 17.4218 21.8674 17.4801 21.8281C17.5121 21.7982 17.5281 21.7339 17.5282 21.6352V20.9228C17.5282 20.8186 17.5123 20.7498 17.4806 20.7163C17.4304 20.6763 17.3671 20.6565 17.3031 20.6606V20.627C17.3636 20.6284 17.4281 20.6294 17.4965 20.6299C17.5649 20.6304 17.6641 20.6306 17.7941 20.6306C17.946 20.6306 18.0571 20.6304 18.1276 20.6299C18.198 20.6294 18.2614 20.6288 18.3177 20.6279C18.3123 20.669 18.3076 20.7132 18.3036 20.7604C18.2997 20.8076 18.2959 20.8617 18.2923 20.9228H18.2641C18.2654 20.8875 18.2592 20.8523 18.2459 20.8195C18.2326 20.7867 18.2126 20.7571 18.187 20.7327C18.1144 20.6904 18.0303 20.6719 17.9466 20.6796H17.7033V21.215H17.8903C17.9631 21.2212 18.0363 21.2077 18.1021 21.176C18.1238 21.1589 18.1417 21.1375 18.1546 21.1132C18.1675 21.0888 18.1751 21.062 18.177 21.0344H18.207C18.207 21.0683 18.2056 21.1216 18.2029 21.1943C18.2002 21.2669 18.1988 21.3235 18.1989 21.364V21.4711H18.1716C18.1715 21.4446 18.1652 21.4186 18.1533 21.395C18.1413 21.3715 18.1239 21.351 18.1026 21.3354C18.037 21.3044 17.9644 21.2911 17.8921 21.297H17.7033V21.6273C17.7033 21.7284 17.7239 21.795 17.765 21.827C17.8062 21.8591 17.8863 21.8751 18.0055 21.8751C18.0986 21.8807 18.1904 21.8519 18.2637 21.7943C18.3326 21.7275 18.3766 21.6391 18.3885 21.5439L18.4185 21.5475C18.4151 21.6149 18.4074 21.6821 18.3953 21.7485C18.3842 21.8097 18.3682 21.87 18.3476 21.9287C18.26 21.9263 18.1641 21.9244 18.0599 21.9232C17.9558 21.9219 17.8423 21.9214 17.7196 21.9214C17.6053 21.9214 17.5176 21.9217 17.4565 21.9223C17.3953 21.9229 17.3375 21.9237 17.2832 21.9247Z" fill="#FAFAFA"/>
<path d="M18.5 21.9253V21.8916C18.5696 21.8931 18.6377 21.8716 18.6937 21.8304C18.7335 21.7745 18.7512 21.7058 18.7433 21.6376V20.9034C18.7501 20.8409 18.7336 20.7781 18.6969 20.7271C18.6463 20.6874 18.5842 20.6652 18.5199 20.6638V20.6303C18.624 20.629 18.7348 20.6274 18.8524 20.6253C18.97 20.6232 19.0365 20.6221 19.052 20.6221C19.323 20.6221 19.5354 20.6811 19.6891 20.799C19.7638 20.8551 19.8239 20.9286 19.864 21.013C19.9041 21.0974 19.9232 21.1903 19.9195 21.2837C19.9233 21.3745 19.9053 21.465 19.8671 21.5475C19.8288 21.6299 19.7713 21.7021 19.6995 21.7578C19.5528 21.8729 19.3506 21.9304 19.0928 21.9304C19.0432 21.9304 18.9517 21.9297 18.8184 21.9282C18.685 21.9267 18.5789 21.9257 18.5 21.9253ZM18.9219 21.5849C18.9219 21.7054 18.9413 21.7854 18.98 21.825C19.0188 21.8646 19.0911 21.8844 19.197 21.8844C19.2645 21.8864 19.3316 21.8733 19.3934 21.8462C19.4553 21.819 19.5103 21.7784 19.5545 21.7274C19.6542 21.5971 19.703 21.4349 19.6917 21.2712C19.6804 21.1075 19.6099 20.9535 19.4933 20.8381C19.3598 20.7225 19.1749 20.6647 18.9384 20.6648H18.9219V21.5849Z" fill="#FAFAFA"/>
<path d="M10.7353 18.2021C10.7084 18.1773 10.6936 18.1628 10.6856 18.1544C10.6781 18.1488 10.6692 18.1422 10.6584 18.134C10.5868 18.0797 10.5182 18.0264 10.452 17.9678L3.72033 26.2103L3.72544 26.2154C3.68476 26.2522 3.65276 26.2975 3.63175 26.3481C3.61074 26.3987 3.60125 26.4534 3.60397 26.5082C3.60669 26.5629 3.62154 26.6164 3.64745 26.6647C3.67337 26.713 3.7097 26.7549 3.75381 26.7874C3.79793 26.82 3.84873 26.8423 3.90253 26.8528C3.95633 26.8633 4.01179 26.8617 4.06489 26.8481C4.118 26.8345 4.16742 26.8093 4.20958 26.7742C4.25174 26.7392 4.28559 26.6953 4.30867 26.6455L11.0893 18.3761C10.9567 18.3542 10.8336 18.2937 10.7353 18.2021Z" fill="#FAFAFA"/>
<path d="M10.4246 7.93893C10.5188 7.8478 10.6379 7.7867 10.7669 7.76338L4.42674 0L3.85547 0.493342L10.2467 8.28805C10.2663 8.15539 10.3288 8.03279 10.4246 7.93893Z" fill="#FAFAFA"/>
<path d="M19.2856 7.99132C19.3788 8.08125 19.4407 8.19878 19.4621 8.32657L25.8632 0.519774L25.292 0.0263672L18.9316 7.81456C19.0645 7.83702 19.1878 7.89856 19.2856 7.99132Z" fill="#FAFAFA"/>
<path d="M25.9322 26.2152L25.9374 26.2101L19.2324 18C19.2194 18.0429 19.2016 18.0841 19.1793 18.123C19.1317 18.2081 19.0641 18.2803 18.9824 18.3334C18.9006 18.3865 18.8071 18.4188 18.71 18.4276C18.6863 18.4397 18.6618 18.4502 18.6367 18.459L25.3493 26.6454C25.3724 26.6951 25.4062 26.7391 25.4484 26.7741C25.4905 26.8092 25.54 26.8344 25.5931 26.848C25.6462 26.8616 25.7017 26.8632 25.7555 26.8527C25.8093 26.8422 25.8601 26.8199 25.9042 26.7873C25.9483 26.7548 25.9847 26.7128 26.0106 26.6645C26.0365 26.6162 26.0513 26.5627 26.054 26.508C26.0568 26.4532 26.0472 26.3986 26.0262 26.3479C26.0052 26.2973 25.9732 26.252 25.9325 26.2152H25.9322Z" fill="#FAFAFA"/>
<path d="M46.2681 17.8349C46.2681 19.1959 46.3235 20.1549 46.4343 20.7118C46.5451 21.2687 46.7333 21.6752 46.9988 21.9312C47.2821 22.1965 47.6628 22.4198 48.141 22.6009C48.6192 22.7821 49.2302 22.9301 49.974 23.0449L49.9607 23.5364C48.6236 23.5188 47.6052 23.5056 46.9058 23.4965C46.2063 23.4875 45.5599 23.4831 44.9666 23.4832C43.8597 23.4832 42.2082 23.5009 40.0121 23.5364H39.9324V23.0449C40.6849 22.9302 41.3026 22.7822 41.7852 22.6009C42.2679 22.4197 42.6464 22.1965 42.9209 21.9312C43.1953 21.6752 43.3879 21.2687 43.4987 20.7118C43.6094 20.1548 43.6648 19.1959 43.6649 17.8349V5.49914H41.779C40.0788 5.49914 38.8392 5.76036 38.0599 6.28279C37.2807 6.80522 36.7184 7.72169 36.3731 9.0322L35.9082 8.95248L36.426 3.70605H36.7448L37.5683 4.58265C38.4183 4.58265 39.6714 4.58709 41.3273 4.59595C42.9832 4.60482 44.2229 4.60918 45.0463 4.60906C45.8608 4.60906 47.0828 4.60462 48.7122 4.59576C50.3415 4.58689 51.559 4.58246 52.3648 4.58246L53.2676 3.70605H53.4801L53.945 9.0058L53.5067 9.09849C53.1879 7.80614 52.6323 6.88317 51.8398 6.32959C51.0473 5.776 49.8718 5.49919 48.3135 5.49914H46.2678L46.2681 17.8349Z" fill="#FAFAFA"/>
<path d="M54.0777 23.5364L54.0645 23.0449C54.8879 23.0096 55.4347 22.8417 55.7048 22.5413C55.9749 22.2409 56.1099 21.4592 56.1099 20.1963L56.0833 7.67766C56.0833 7.11982 56.0324 6.69705 55.9306 6.40937C55.8219 6.11125 55.6417 5.84432 55.4059 5.63193L54.702 5.03425V4.79516L58.0358 3.44043L58.3147 3.5734L58.1554 12.737C59.0851 12.1088 59.9441 11.6354 60.7321 11.3166C61.5201 10.9979 62.2197 10.8386 62.8307 10.8388C64.0969 10.8388 65.0222 11.1968 65.6067 11.9128C66.1912 12.6288 66.5055 13.7957 66.5497 15.4134L66.6693 20.5277C66.7046 21.623 66.8507 22.2966 67.1076 22.5483C67.3645 22.8001 67.8869 22.9657 68.6749 23.0451V23.5365C68.3382 23.519 67.9596 23.5058 67.5392 23.4967C67.1188 23.4877 66.4746 23.4832 65.6067 23.4834C64.7388 23.4834 64.0791 23.4879 63.6276 23.4967C63.1762 23.5056 62.76 23.5189 62.3791 23.5365L62.3658 23.0451C63.207 22.9569 63.767 22.7715 64.046 22.4889C64.3249 22.2063 64.4644 21.6234 64.4644 20.7402C64.4644 20.6696 64.46 20.537 64.4511 20.3426C64.4422 20.1481 64.4378 19.9936 64.4378 19.8788L64.3847 16.7253C64.3492 15.1795 64.0636 14.06 63.528 13.3669C62.9924 12.6738 62.1534 12.3271 61.011 12.3266C60.553 12.3291 60.0982 12.4029 59.6629 12.5454C59.1534 12.7159 58.6653 12.9448 58.2085 13.2276V20.1703C58.2085 21.3363 58.3524 22.0982 58.6401 22.4559C58.9279 22.8137 59.5013 23.0102 60.3602 23.0454L60.3469 23.5369C59.975 23.5193 59.5677 23.5061 59.125 23.497C58.6822 23.488 58.0226 23.4836 57.1459 23.4837C56.2959 23.4837 55.6583 23.4882 55.2333 23.497C54.8082 23.5059 54.4231 23.519 54.0777 23.5364Z" fill="#FAFAFA"/>
<path d="M79.2109 20.2692L79.5961 20.6013C78.8965 21.6199 78.104 22.3903 77.2186 22.9124C76.3471 23.4311 75.3505 23.702 74.3363 23.696C72.7247 23.696 71.3699 23.105 70.2719 21.923C69.174 20.741 68.625 19.2644 68.625 17.4933C68.625 15.6338 69.2116 14.0598 70.3849 12.7713C71.5582 11.4828 72.9859 10.8387 74.6682 10.8389C76.023 10.8389 77.1143 11.2196 77.9422 11.9812C78.7702 12.7427 79.2196 13.7831 79.2904 15.1024C77.7762 15.0493 76.3395 15.0094 74.9803 14.9829C73.6212 14.9563 72.3305 14.9431 71.1085 14.9431C71.0471 15.1876 71.0028 15.4362 70.9757 15.6869C70.9486 15.9472 70.9353 16.2088 70.9359 16.4705C70.9359 18.0556 71.3963 19.3705 72.3172 20.4153C73.2381 21.4602 74.3848 21.9826 75.7573 21.9826C76.4153 21.9881 77.0656 21.8403 77.6567 21.5511C78.2638 21.2449 78.7948 20.807 79.2109 20.2692ZM76.5412 14.2657C76.364 13.3625 76.0673 12.6695 75.6513 12.1869C75.2352 11.7042 74.7261 11.463 74.1238 11.4631C73.4331 11.4631 72.8243 11.7266 72.2975 12.2536C71.7706 12.7805 71.4098 13.4955 71.215 14.3985L76.5412 14.2657Z" fill="#FAFAFA"/>
<path d="M107.622 21.4138V21.9044C106.117 22.5855 104.687 23.092 103.332 23.4237C102.051 23.7462 100.735 23.9133 99.4138 23.9213C96.1465 23.9213 93.5211 23.038 91.5377 21.2714C89.5543 19.5048 88.5626 17.1782 88.5625 14.2918C88.5625 12.8308 88.8326 11.4914 89.3727 10.2738C89.9129 9.05613 90.7231 7.9736 91.8034 7.02617C92.8538 6.10212 94.0741 5.39152 95.3962 4.93408C96.7465 4.46066 98.2141 4.22385 99.7993 4.22363C100.899 4.22599 101.996 4.31928 103.08 4.50256C104.224 4.69551 105.352 4.97524 106.454 5.33933C106.409 6.06556 106.372 6.82933 106.341 7.63062C106.31 8.43191 106.285 9.28856 106.268 10.2006H105.856C105.448 8.48301 104.698 7.17033 103.604 6.26253C102.511 5.35473 101.123 4.90096 99.4405 4.90122C97.1205 4.90122 95.2477 5.67828 93.8222 7.2324C92.3966 8.78652 91.6838 10.8387 91.6837 13.3888C91.6784 14.6267 91.906 15.8545 92.3545 17.0083C92.8018 18.1555 93.462 19.2077 94.3003 20.1096C95.1504 21.0305 96.1952 21.7412 97.4349 22.2415C98.7065 22.7478 100.064 23.0026 101.433 22.9918C102.318 22.9918 102.909 22.8549 103.206 22.5809C103.503 22.307 103.651 21.7191 103.651 20.8172V18.2182C103.651 17.1399 103.394 16.3775 102.881 15.9309C102.367 15.4843 101.411 15.2035 100.012 15.0887V14.5972C100.738 14.6114 101.448 14.6237 102.143 14.6343C102.839 14.6448 103.532 14.6502 104.222 14.6504C104.93 14.6504 105.628 14.646 106.314 14.6371C107 14.6283 107.671 14.615 108.326 14.5972L108.34 15.0887C107.516 15.1949 106.965 15.4315 106.686 15.7983C106.407 16.1651 106.268 16.9408 106.268 18.1253V21.4139L107.622 21.4138Z" fill="#FAFAFA"/>
<path d="M111.563 16.2496V9.26851C111.563 8.08301 111.512 7.28232 111.41 6.86643C111.309 6.45055 111.125 6.13638 110.859 5.92393C110.517 5.65986 110.13 5.45979 109.717 5.33335C109.22 5.1854 108.707 5.09846 108.189 5.07443V4.58301C108.765 4.60082 109.38 4.6141 110.036 4.62284C110.691 4.63157 111.683 4.636 113.011 4.63613C114.357 4.63613 115.364 4.6317 116.033 4.62284C116.701 4.61397 117.323 4.60069 117.899 4.58301L117.912 5.07443C116.425 5.1188 115.422 5.41526 114.904 5.96382C114.385 6.51237 114.126 7.6051 114.127 9.24198V15.9842C114.127 17.3116 114.226 18.3336 114.425 19.0501C114.604 19.7298 114.949 20.3544 115.428 20.8681C115.968 21.4435 116.659 21.8859 117.5 22.1955C118.342 22.5051 119.285 22.66 120.329 22.6601C121.64 22.6601 122.713 22.4236 123.55 21.9505C124.387 21.4774 125.054 20.7186 125.549 19.6742C125.797 19.1522 125.972 18.3979 126.074 17.4111C126.176 16.4242 126.226 14.8516 126.226 12.6931C126.226 10.5874 126.171 9.12318 126.06 8.30037C125.949 7.47756 125.761 6.86695 125.496 6.46854C125.17 6.00255 124.712 5.6445 124.181 5.44017C123.623 5.21463 122.91 5.09291 122.043 5.07501V4.58301C122.529 4.60082 123.047 4.6141 123.596 4.62284C124.145 4.63157 124.977 4.636 126.093 4.63613C127.218 4.63613 128.057 4.6317 128.61 4.62284C129.163 4.61397 129.675 4.60069 130.144 4.58301V5.07443H130.091C129.02 5.07443 128.285 5.4859 127.886 6.30884C127.488 7.13178 127.289 9.20682 127.288 12.534C127.288 12.8169 127.284 13.2415 127.275 13.8079C127.24 16.8874 126.983 18.9802 126.505 20.0862C125.956 21.3605 125.048 22.3272 123.782 22.9862C122.516 23.6452 120.939 23.9749 119.053 23.9751C117.539 23.9751 116.246 23.7715 115.175 23.3644C114.104 22.9572 113.271 22.351 112.678 21.5458C112.27 20.976 111.979 20.3309 111.821 19.6478C111.649 18.9309 111.563 17.7982 111.563 16.2496Z" fill="#FAFAFA"/>
<path d="M131.162 23.5367V23.0453C132.543 22.9659 133.478 22.6809 133.965 22.1904C134.452 21.6999 134.695 20.611 134.695 18.9236V9.18291C134.695 7.50426 134.456 6.42189 133.978 5.93582C133.5 5.44974 132.561 5.16261 131.162 5.07443V4.58301C131.711 4.58301 132.532 4.59187 133.626 4.6096C134.72 4.62733 135.537 4.63618 136.077 4.63613C136.617 4.63613 137.42 4.62729 138.487 4.6096C139.555 4.59192 140.349 4.58305 140.871 4.58301V5.07443C139.472 5.16291 138.534 5.45447 138.056 5.94911C137.578 6.44376 137.338 7.52169 137.338 9.18291V18.9236C137.338 20.6025 137.58 21.6914 138.062 22.1904C138.545 22.6893 139.481 22.9743 140.871 23.0452L140.858 23.5366C139.512 23.5101 138.509 23.4946 137.85 23.4903C137.19 23.4859 136.573 23.4837 135.997 23.4835C135.421 23.4835 134.804 23.4858 134.144 23.4903C133.484 23.4948 132.49 23.5103 131.162 23.5367Z" fill="#FAFAFA"/>
<path d="M141.951 23.5361V23.0447C143.359 22.9305 144.304 22.6316 144.787 22.148C145.27 21.6643 145.511 20.7236 145.511 19.3257V8.58039C145.511 7.32763 145.285 6.46759 144.833 6.00027C144.381 5.53295 143.518 5.22415 142.243 5.07387V4.58245C143.766 4.56493 145.386 4.54053 147.104 4.50925C148.822 4.47796 149.796 4.46251 150.026 4.4629C153.993 4.4629 157.101 5.32624 159.351 7.05293C161.6 8.77962 162.724 11.1439 162.724 14.1456C162.724 17.0855 161.651 19.3988 159.503 21.0855C157.356 22.7721 154.397 23.6156 150.624 23.6159C149.898 23.6159 148.559 23.6047 146.606 23.5825C144.654 23.5602 143.102 23.5448 141.951 23.5361ZM148.127 18.5553C148.127 20.3176 148.411 21.4886 148.978 22.0683C149.544 22.648 150.603 22.9381 152.152 22.9385C154.286 22.9385 156.03 22.1725 157.385 20.6407C158.74 19.1088 159.417 17.1076 159.417 14.6371C159.417 11.6531 158.441 9.31543 156.489 7.62407C154.536 5.93272 151.829 5.08708 148.367 5.08717H148.128L148.127 18.5553Z" fill="#FAFAFA"/>
<path d="M164.455 13.9603C164.455 11.0116 165.391 8.65624 167.264 6.89413C169.137 5.13203 171.636 4.25098 174.762 4.25098C177.835 4.25098 180.294 5.16075 182.14 6.98031C183.987 8.79987 184.91 11.2195 184.91 14.2392C184.91 17.1437 183.969 19.4791 182.087 21.2454C180.205 23.0117 177.711 23.895 174.603 23.8954C171.53 23.8954 169.07 22.9922 167.225 21.1858C165.379 19.3794 164.456 16.9709 164.455 13.9603ZM167.696 13.5751C167.696 16.3734 168.369 18.6557 169.715 20.4219C171.061 22.1881 172.779 23.0716 174.868 23.0722C176.922 23.0722 178.574 22.2885 179.823 20.7212C181.071 19.1539 181.696 17.0642 181.696 14.452C181.7 13.3218 181.552 12.1961 181.257 11.1049C180.965 10.0336 180.549 9.09053 180.009 8.27577C179.283 7.17794 178.466 6.36331 177.559 5.83188C176.651 5.30063 175.621 5.03498 174.47 5.03494C172.442 5.03494 170.806 5.81859 169.563 7.38588C168.319 8.95317 167.697 11.0162 167.696 13.5751H167.696Z" fill="#FAFAFA"/>
<path d="M184.847 23.5367L184.834 23.0453C186.232 22.9746 187.187 22.5178 187.696 21.6747C188.205 20.8316 188.46 19.0901 188.46 16.4502V11.2325C188.46 10.9943 188.464 10.6766 188.473 10.2793C188.482 9.88204 188.486 9.60387 188.486 9.44477C188.486 8.5885 188.398 7.92636 188.221 7.45836C188.031 6.97232 187.731 6.53705 187.344 6.18693C186.981 5.8583 186.56 5.60015 186.102 5.42566C185.585 5.22828 185.041 5.10994 184.488 5.07462V4.58301C184.78 4.58301 185.206 4.59187 185.763 4.6096C186.321 4.62733 186.729 4.63618 186.985 4.63613C187.251 4.63613 187.636 4.62729 188.141 4.6096C188.646 4.59192 189.013 4.58305 189.243 4.58301L202.844 19.1253V12.8612C202.844 10.5129 202.78 8.92815 202.651 8.10705C202.523 7.28594 202.295 6.67684 201.967 6.27976C201.693 5.92648 201.303 5.65274 200.799 5.45852C200.294 5.2643 199.67 5.13627 198.926 5.07443V4.58301C199.404 4.60082 199.917 4.6141 200.466 4.62284C201.015 4.63157 201.817 4.636 202.87 4.63613C203.915 4.63613 204.688 4.6317 205.188 4.62284C205.689 4.61397 206.147 4.60069 206.563 4.58301V5.07443H206.35C205.385 5.07443 204.71 5.56004 204.325 6.53125C203.939 7.50247 203.747 9.30792 203.747 11.9476V17.7479C203.747 19.0989 203.758 20.2966 203.78 21.3407C203.802 22.3849 203.831 23.3515 203.866 24.2405H203.707C203.158 23.6052 202.563 22.9208 201.921 22.1874C201.279 21.454 200.922 21.0469 200.851 20.966L189.35 8.79576V14.1594C189.35 16.7995 189.4 18.5762 189.502 19.4898C189.604 20.4033 189.779 21.0589 190.027 21.4564C190.257 21.8358 190.629 22.1491 191.143 22.3966C191.656 22.644 192.382 22.8559 193.321 23.0322V23.5372H193.241C191.373 23.5019 189.978 23.4842 189.057 23.4841C188.544 23.4841 187.99 23.4885 187.397 23.4974C186.804 23.5063 185.954 23.5194 184.847 23.5367Z" fill="#FAFAFA"/>
</svg>
