<svg width="2048" height="2150" viewBox="0 0 2048 2150" fill="none" xmlns="http://www.w3.org/2000/svg">
<g clip-path="url(#clip0_411_1421)">
<path d="M53.4898 916.6C61.8798 923.14 69.1698 928.03 75.0298 931.96C94.3598 944.91 100.87 949.27 102.72 981.38C103.16 989.02 103.37 996.99 103.6 1005.42C104.7 1046.76 105.95 1093.61 135.36 1125.28C165.19 1157.4 164.98 1205.48 163.5 1224.65C163.22 1228.32 165.12 1229.96 166.28 1230.61C167.1 1231.07 168 1231.3 168.9 1231.3C170.01 1231.3 171.13 1230.95 172.1 1230.25C177 1226.74 185.18 1198.46 189.17 1180.45C194.41 1156.79 199.47 1122.26 193.79 1092.12C191.28 1078.8 188.69 1068.05 186.41 1058.57C178.37 1025.18 174.33 1008.42 190.23 949.45C211.13 871.93 211.16 868.02 190.86 844.82C189.25 842.98 187.67 841.26 186.14 839.59C171.01 823.09 161.87 813.13 199.83 761.03C206.93 751.28 214.6 740.98 222.71 730.07C265.72 672.26 314.46 606.73 313.69 577.24C312.81 543.89 297.37 532.23 286.1 523.71C285.35 523.14 284.6 522.58 283.88 522.02C282.97 521.32 282.11 520.69 281.3 520.11C282.86 519.77 284.52 519.43 286.11 519.1C298.92 516.43 341.32 488.13 382.64 454.67C413.13 429.97 468.09 382.05 499.55 334.17L693.41 570.6C691.48 572.47 689.55 574.35 687.65 576.26C645.45 618.46 612.31 667.61 589.16 722.34C565.19 779.01 553.04 839.19 553.04 901.23C553.04 963.27 565.19 1023.45 589.16 1080.12C612.31 1134.85 645.44 1183.99 687.65 1226.2C693.25 1231.8 698.97 1237.23 704.81 1242.51L265.96 1779.86L266.31 1780.21C263.59 1782.67 261.45 1785.7 260.05 1789.08C258.65 1792.47 258.01 1796.12 258.2 1799.78C258.38 1803.44 259.38 1807.01 261.11 1810.24C262.84 1813.47 265.27 1816.27 268.22 1818.45C271.17 1820.62 274.56 1822.12 278.16 1822.82C281.76 1823.52 285.46 1823.42 289.01 1822.51C292.56 1821.6 295.86 1819.92 298.68 1817.58C301.5 1815.24 303.76 1812.3 305.31 1808.98L743.86 1274.12C771.74 1294.26 801.78 1311.19 833.74 1324.7C890.41 1348.67 950.59 1360.82 1012.63 1360.82C1074.67 1360.82 1134.85 1348.67 1191.52 1324.7C1221.6 1311.98 1249.99 1296.23 1276.47 1277.62L1712.13 1808.97C1713.67 1812.3 1715.94 1815.24 1718.75 1817.58C1721.57 1819.92 1724.88 1821.61 1728.43 1822.52C1731.98 1823.43 1735.69 1823.54 1739.29 1822.84C1742.89 1822.14 1746.29 1820.65 1749.24 1818.47C1752.19 1816.29 1754.62 1813.49 1756.35 1810.26C1758.08 1807.03 1759.08 1803.45 1759.26 1799.79C1759.44 1796.13 1758.81 1792.47 1757.4 1789.09C1755.99 1785.7 1753.85 1782.68 1751.13 1780.22L1751.48 1779.87L1315.93 1246.54C1323.34 1240.02 1330.57 1233.25 1337.6 1226.22C1379.8 1184.02 1412.94 1134.87 1436.09 1080.14C1460.06 1023.47 1472.21 963.29 1472.21 901.25C1472.21 839.21 1460.06 779.02 1436.09 722.36C1412.94 667.63 1379.81 618.49 1337.6 576.28C1335.26 573.94 1332.9 571.64 1330.52 569.36L1520.37 337.82C1568.87 392.65 1603.25 425.1 1631.51 442.76C1659.04 459.97 1681.32 463.88 1710.51 464.82C1734.13 465.58 1747.98 473.36 1756.82 490.83C1765.6 508.18 1768.97 533.79 1773.23 566.21C1779.07 610.61 1785.02 628.89 1790.27 645.02C1792.88 653.05 1795.35 660.64 1797.62 670.85C1801.03 686.21 1797.11 704.97 1792.57 726.7C1788.37 746.78 1783.61 769.54 1783.61 794.74C1783.61 827.85 1816.38 869.74 1854.32 918.24C1879.03 949.83 1904.59 982.5 1923.79 1016.11C1970.95 1098.64 1941.98 1295.54 1941.68 1297.52L1951.42 1300.76C1951.76 1300.12 1986.17 1235.81 2011.39 1158.42C2026.25 1112.82 2035.08 1071.62 2037.64 1035.96C2040.88 990.78 2034.02 954.26 2017.24 927.41C1978.01 864.64 1999.32 789.12 2010.31 759.57L2010.78 758.31C2024.69 720.05 2041.13 664.8 2023.33 626.97C1997.34 571.74 1977.99 448.21 1963.86 358.01C1960.01 333.44 1956.69 312.22 1953.71 295.46C1947.09 258.24 1941.33 235.86 1929.83 224.24C1918.47 212.75 1903.29 212.21 1878.15 211.31L1877.57 211.29C1840.03 209.95 1767.87 107.7 1743.03 68.1C1750.77 71.17 1756.73 71.67 1758.84 68.84C1761.39 65.42 1757.65 57.97 1749.93 49.66C1752.97 48.41 1755.75 46.59 1758.09 44.25C1761.57 40.77 1763.94 36.33 1764.9 31.51C1765.86 26.68 1765.37 21.68 1763.48 17.13C1761.59 12.58 1758.41 8.69 1754.31 5.96C1750.22 3.23 1745.41 1.77 1740.48 1.77C1733.88 1.77 1727.55 4.39 1722.88 9.06C1718.66 13.28 1716.12 18.86 1715.67 24.77C1706.5 20.61 1699.25 19.58 1696.89 22.76C1694.85 25.5 1696.85 30.83 1701.71 37.13L1293.28 537.25C1262.12 513.16 1228.07 493.25 1191.54 477.8C1134.87 453.83 1074.69 441.68 1012.65 441.68C950.61 441.68 890.43 453.83 833.76 477.8C796.66 493.49 762.12 513.78 730.58 538.37L321 36.87C325.73 30.67 327.67 25.43 325.65 22.72C323.19 19.43 315.5 20.65 305.86 25.2C305.86 25.1 305.87 24.99 305.87 24.89C305.87 18.29 303.25 11.96 298.58 7.29C293.91 2.62 287.58 0 280.98 0C276.06 0 271.24 1.46 267.15 4.19C263.06 6.92 259.87 10.81 257.98 15.36C256.1 19.91 255.6 24.91 256.56 29.74C257.52 34.57 259.89 39 263.37 42.48C266.23 45.34 269.73 47.43 273.56 48.62C265.21 57.33 261.05 65.24 263.7 68.8C265.93 71.79 272.48 71.06 280.88 67.49L284.06 71.37C263.28 97.22 152.64 236.9 111.81 329.55C107.58 339.19 86.4798 387.83 86.4798 398.79C86.4798 400.17 86.3598 401.94 86.2398 403.82C85.5198 414.72 84.0098 437.41 108.37 439.29C110.19 439.43 110.44 440 110.59 440.34C111.1 441.49 112.96 448.45 99.6898 472.63C92.0098 486.63 80.5598 503.81 69.0598 518.59C48.4798 545.05 32.6398 602.29 21.9898 688.72C18.5898 716.29 16.1498 765.84 20.4498 814.73C23.7298 852 32.1198 899.93 53.4698 916.6H53.4898ZM1729.98 82.1C1724.26 98.5 1708.58 133.72 1665.83 198.51C1665.21 199.19 1664.7 199.96 1664.33 200.78C1661.47 205.1 1658.49 209.54 1655.39 214.13C1621.51 264.14 1566.59 299.94 1537.92 316.34L1729.99 82.1H1729.98ZM1675.53 254.56C1676.04 255.22 1676.55 255.89 1677.07 256.55C1673.54 256.88 1669.56 255.65 1666.24 252.97C1661.06 248.63 1656.63 243.47 1653.13 237.69C1652.78 237.13 1652.39 236.65 1651.98 236.22C1656.19 230.99 1660.22 225.57 1664.01 219.97C1665.8 217.33 1667.54 214.74 1669.25 212.19C1677.62 220.92 1685.78 232.38 1686.28 244.33C1679.72 240.86 1670.21 247.62 1675.53 254.56ZM1877.14 221.68L1877.72 221.7C1901.05 222.53 1913.91 222.99 1922.36 231.54C1930.77 240.05 1936.28 257.24 1943.39 297.26C1946.35 313.91 1949.67 335.09 1953.51 359.6C1967.74 450.42 1987.22 574.8 2013.84 631.38C2031.85 669.66 2008.57 733.68 2000.92 754.72L2000.48 755.91C1992.29 777.94 1987.09 800.2 1985.01 822.08C1980.99 864.4 1988.84 901.69 2008.35 932.9C2023.93 957.83 2030.27 992.22 2027.2 1035.11C2024.71 1069.91 2016.05 1110.25 2001.48 1155.02C1986.36 1201.45 1967.89 1243.12 1955.63 1268.86C1957.78 1248.45 1960.21 1219.52 1960.97 1187.9C1962.91 1106.57 1953.43 1047.02 1932.79 1010.9C1913.21 976.64 1887.42 943.67 1862.48 911.78C1827.26 866.75 1793.99 824.22 1793.99 794.7C1793.99 770.58 1798.63 748.38 1802.73 728.79C1807.52 705.89 1811.66 686.1 1807.76 668.55C1805.38 657.86 1802.84 650.04 1800.15 641.76C1795.04 626.06 1789.25 608.27 1783.53 564.81C1774.93 499.44 1769.25 456.25 1710.81 454.36C1661.53 452.77 1630.74 446.56 1529.77 332.71C1547.68 323.48 1600.25 294.15 1641.55 248.45C1652.15 263.66 1672.34 280.14 1688.32 269.84C1692.48 274.32 1696.93 278.58 1701.67 282.35C1701.65 282.41 1701.61 282.47 1701.59 282.53C1693.07 303.85 1716.7 328.49 1735 334.57C1739.85 335.86 1744.98 335.71 1749.75 334.14C1752.55 333.22 1755.14 331.81 1757.45 330.03C1763.51 333.81 1769.54 337.63 1775.52 341.54C1775.26 342.31 1775.03 343.1 1774.84 343.9C1770.46 363.32 1786.09 387.77 1804.71 393.82C1812.46 396.34 1819.42 395.47 1824.96 392.4C1828.19 396.54 1831.24 400.81 1834.12 405.2C1832.95 406.78 1831.9 408.55 1831.01 410.5C1822.8 428.52 1829.62 453.63 1842.23 468.03C1845.06 471.06 1848.76 473.14 1852.82 473.99C1856.88 474.84 1861.1 474.43 1864.92 472.8C1865.16 472.69 1865.37 472.56 1865.6 472.44C1870.89 481.02 1874.61 490.81 1877.21 500.62C1876.26 501.9 1875.42 503.35 1874.74 505C1868.69 519.62 1866.98 542.15 1871.04 559.84C1868.5 577.03 1864.5 597.65 1859.2 605.42C1855.53 591.91 1848.93 577.49 1848.61 574.49C1848.29 571.49 1846.66 550.66 1846.66 550.66C1846.66 550.66 1860.67 534.08 1862.87 528.25C1865.07 522.42 1869.49 505.68 1865.38 509.47C1861.27 513.26 1853.8 522.48 1850.81 520.8C1847.82 519.12 1843.79 512.76 1833.47 521.81C1833.47 521.81 1829.61 511.88 1824.02 512.28C1825.52 526.54 1825.69 528.04 1826.64 537.04C1827.59 546.04 1827.68 562.76 1831.35 592.21C1835.02 621.67 1847.88 695.38 1835.01 765.26C1826.53 775.63 1820.34 780.89 1820.79 758.56C1821.24 736.23 1826.23 629.02 1820.15 614.03C1814.07 599.04 1802.6 591.76 1796.35 591.23C1805.81 604.31 1811.18 619.9 1811.78 636.03C1812.08 644.1 1810.68 748.1 1811.63 757.1C1812.58 766.1 1813.93 794.81 1828.18 780.5C1830.5 797.2 1831.17 798.13 1837.62 805.99C1844.07 813.85 1838.64 831.71 1834.09 841.86C1829.54 852.01 1848.23 887.05 1851.27 894.55C1854.31 902.05 1873.41 917.56 1884.26 897.15C1890.94 880.41 1869.01 893.92 1867.76 892.81C1866.51 891.7 1855.17 891.94 1841.82 861.72C1854.18 840.28 1858.9 815.66 1856.2 806.1C1853.5 796.54 1841.05 785.33 1841.05 785.33C1841.05 785.33 1856.04 772.69 1859.94 777.55C1863.83 782.42 1868.12 791.03 1863.46 805.51C1870.18 810.55 1884.32 816.49 1887.02 826.06C1889.72 835.62 1898.58 829.02 1898.73 819.63C1898.43 814.88 1896.85 810.3 1894.15 806.38C1891.46 802.46 1887.75 799.34 1883.42 797.36C1876.43 795.14 1878.37 792.12 1880.43 779.72C1882.49 767.32 1877.68 732.43 1846.33 765.98C1848.53 752.78 1869.34 685.1 1864.08 629.75C1867.78 632.03 1871.58 634.17 1875.45 636.16C1876.98 639.54 1879.06 642.33 1879.06 642.33C1879.06 642.33 1870.81 662.73 1872.69 702.09C1874.96 749.55 1901.05 740.29 1901.05 740.29C1920.73 732.19 1931.15 716.56 1930.72 654.92C1929.94 640.33 1927.56 625.87 1923.63 611.8C1923.63 611.8 1926.42 602.25 1926.25 597.34C1926.9 594.84 1927.42 592.17 1927.84 589.44C1938.91 615.46 1955.95 623 1959.11 627.46C1928.08 664 1930.87 701.17 1934.84 706.78C1938.81 712.4 1940.92 710.88 1935.83 726.66C1930.74 742.44 1926.12 767.81 1927.98 774.93C1929.84 782.05 1938.08 769.45 1938.4 756.49C1938.72 743.54 1948.73 710.46 1953.08 692.98C1946.67 690.94 1948.42 675.54 1950.57 663.89C1952.72 652.24 1966.92 632.1 1966.92 632.1C1966.92 632.1 1959.26 665.91 1958.93 678.88C1958.6 691.85 1966.97 701.75 1980.77 693.81C1981.12 718.67 1976.86 743.38 1968.21 766.69C1967.44 770.07 1953.57 793.23 1961.99 792.99C1981.05 781.65 1985.6 744.65 1986.56 732.64C1987.52 720.63 1988.59 661.48 1983.09 662.63C1977.59 663.78 1969.93 660.63 1973.53 641.46C1977.13 622.3 1977.48 620.23 1976.16 602.41C1990.09 585.07 1985.73 559.75 1984.78 550.74C1983.83 541.73 1963.08 462.62 1961.78 455.67C1960.48 448.72 1956.65 434.1 1958.96 397.63C1952.09 415.98 1949.38 435.63 1951.02 455.15C1952.82 479.19 1973.24 553.6 1977.82 570.3C1982.4 586.99 1976.52 595.27 1967.89 604.13C1944.54 574.95 1940.74 491.05 1938.07 460.47C1935.4 429.89 1932.31 416.57 1931.36 407.57C1930.41 398.56 1930.24 397.06 1928.74 382.8C1925.72 391.35 1923.82 400.25 1923.1 409.29C1913.28 422.85 1911.29 436 1909.25 443.33C1907.21 450.66 1899.59 458.4 1895.64 463.67C1891.69 468.94 1898.32 473.22 1901.17 473.39C1904.02 473.56 1918.19 458.49 1918.19 458.49C1918.19 458.49 1920.83 478.2 1921.15 481.2C1921.47 484.2 1919 508.8 1918.66 526.83C1915.29 529.52 1911.5 530.55 1907.93 530.72C1906.6 522.28 1904.86 513.9 1902.7 505.62C1900.73 499.08 1896.44 495.41 1891.72 494.46C1888.29 482.36 1883.23 470.41 1876.14 460.14C1877.89 455.61 1878.7 450.56 1879.09 445.69C1879.21 444.17 1878.96 442.89 1878.44 441.83C1875.95 429.76 1873.86 413.42 1865.86 404.14C1860.22 397.6 1853.42 395.38 1847.14 396.56C1843.54 391.07 1839.67 385.76 1835.56 380.64C1838.18 374.81 1838.91 367.84 1837.12 360.86C1837.07 359.63 1836.66 358.33 1835.76 357.01C1828.94 346.99 1820.13 330.82 1808.1 326.54C1804.79 325.22 1801.24 324.62 1797.68 324.8C1794.12 324.98 1790.64 325.93 1787.48 327.57C1786.62 328.02 1785.79 328.53 1784.98 329.07C1778.82 325.03 1772.6 321.06 1766.35 317.16C1768.06 310.96 1767.11 304.28 1764.91 297.97C1764.84 296.75 1764.39 295.45 1763.41 294.15C1762.88 292.92 1762.17 292 1761.37 291.35C1754.22 281.41 1743.4 265.71 1731.49 265.11C1724.27 264.74 1717.31 266.41 1711.71 270.1C1707.85 267.09 1704.24 263.76 1700.93 260.12C1700.16 259.34 1699.4 258.55 1698.65 257.75C1708.75 237.36 1692.73 213.36 1678.06 198.89C1719.93 134.81 1735.07 100.04 1740.54 83.49C1749.33 96.84 1766.13 121.55 1785.56 146.14C1824.57 195.5 1855.39 220.92 1877.15 221.7L1877.14 221.68ZM1717.11 292.09C1725.05 295.79 1732.13 285.93 1727.65 280.56C1730.38 280.43 1731.76 281.81 1734.36 284.18C1740.09 289.62 1745.29 295.59 1749.9 302.01C1749.9 302.01 1749.9 302.03 1749.91 302.04C1750.89 304.3 1751.48 306.59 1751.58 308.75C1745.84 307.85 1741.36 314.56 1743.44 319.72C1737.25 321.27 1730.28 314.97 1726.31 311.22C1722.29 307.44 1716.33 298.65 1715.9 291.49C1716.3 291.69 1716.7 291.9 1717.11 292.09ZM1792.35 352.87C1799.78 358.03 1806.8 347.72 1802.3 341.4C1810.74 344.74 1817.38 357.59 1821.83 364.31C1821.98 364.85 1822.12 365.39 1822.24 365.93C1815.32 361.53 1806.29 371.54 1812.77 378.27C1813.21 378.73 1813.63 379.21 1814.06 379.67C1808.34 380.27 1802.97 375.16 1799.29 371.49C1795.92 368.12 1789.95 358.44 1789.29 350.77C1790.31 351.47 1791.33 352.16 1792.35 352.87ZM1863.11 448.72C1858.69 449.16 1854.83 453.97 1855.97 458.67C1855.54 458.56 1855.09 458.4 1854.6 458.16C1850.56 456.16 1848.12 448.88 1846.67 445.06C1844.6 439.45 1843.41 433.56 1843.17 427.58C1843.09 425.87 1843.3 422.7 1843.99 419.62C1847.99 421.81 1853.36 419.4 1855.07 415.3C1859.83 422.89 1862.21 439.54 1863.4 446.12C1863.34 446.86 1863.24 447.75 1863.11 448.71V448.72ZM1918.06 599.3C1914.78 601.77 1910.39 604.72 1905.7 607.74C1902.89 597.48 1900.95 587 1899.91 576.4C1905.68 570.74 1908.52 562.91 1909.82 554.8C1910.29 553.76 1910.5 552.5 1910.33 551.01C1910.45 549.84 1910.33 548.81 1910.05 547.91C1909.96 546.93 1909.88 545.95 1909.78 544.97C1912.51 543.19 1915.43 541.04 1918.25 539.01C1918.6 553.74 1920.47 565.91 1923.23 576.02C1921.88 583.85 1920.16 591.62 1918.07 599.3H1918.06ZM1877.33 624.96C1876.16 625.43 1875.35 626.09 1874.8 626.87C1870.32 625.61 1865.85 623.57 1863.21 622.27C1862.82 619.55 1862.36 616.86 1861.82 614.22C1868.47 603.86 1875.51 586.35 1877.86 576.27C1879.64 578.45 1881.85 580.24 1884.32 581.24C1885.59 593.21 1888.68 605.18 1891.9 616.31C1883.79 621.22 1877.32 624.95 1877.32 624.95L1877.33 624.96ZM1892.09 531.64C1893.1 538.07 1893.95 544.53 1894.69 550.99C1894.63 551.6 1894.47 552.59 1894.24 553.76C1891.57 552.66 1888.53 552.82 1886.55 554.65C1885.72 549.64 1885.34 544.56 1885.45 539.48C1885.33 534.7 1885.55 529.91 1885.9 525.14C1886.07 523.4 1886.31 521.66 1886.62 519.94C1888 519.96 1889.42 519.62 1890.71 518.97C1891.43 523.91 1891.69 529.19 1892.08 531.62L1892.09 531.64ZM1012.59 462.46C1254.51 462.46 1451.32 659.28 1451.32 901.19C1451.32 1143.1 1254.5 1339.92 1012.59 1339.92C917.4 1339.92 829.19 1309.44 757.21 1257.73L758.68 1255.94C756.71 1255.61 754.77 1255.15 752.88 1254.58C644.38 1174.63 573.86 1045.99 573.86 901.19C573.86 659.27 770.68 462.46 1012.59 462.46ZM142.99 1118.18C134.6 1109.14 128.73 1098.53 124.58 1087.01C135.03 1093.66 149.81 1101.62 161.74 1109.57C174.48 1118.07 180.73 1137.6 183.66 1151.5C181.35 1168.83 177.53 1185.13 173.93 1197.76C172.2 1173.59 165.18 1142.08 142.98 1118.18H142.99ZM183.54 1094.04C183.68 1094.77 183.8 1095.51 183.92 1096.24C175.04 1082.35 160 1059.21 149.59 1045.32C139.48 1031.84 123.55 1006.73 113.57 990.68C113.45 987.33 113.31 984.02 113.12 980.78C111.26 948.5 103.45 939.11 88.3698 928.44C105.34 936.57 123.11 944.58 133.96 951.56C150.39 962.12 162.85 988.54 169.2 1004.56C167.84 1026.07 171.41 1040.86 176.26 1061C178.52 1070.36 181.07 1080.98 183.53 1094.04H183.54ZM180.74 944.57C176.82 936.93 170.89 925.51 163.48 911.62C149.59 885.57 97.4998 869.95 81.8698 861.26C69.7098 854.5 41.7598 818.29 29.9798 802.57C28.7098 783.73 28.3898 765.07 28.6798 747.92C63.1898 766.03 82.6898 784.21 97.4998 803.96C113.13 824.8 125.28 845.63 149.59 861.26C167.02 872.46 185.33 883.66 194.31 889.11C192.35 900.93 187.9 917.97 180.74 944.57ZM164.14 825.8C145.98 802.27 111.31 755.47 97.4998 724.08C82.7398 690.54 53.4898 649.76 40.9398 632.94C44.4798 613.56 48.3998 596.33 52.6498 581.35C123.37 578.77 120.33 657.3 130.49 694.56C139.03 725.87 169.72 759.5 180.52 770.62C168.43 789.31 162.78 803.24 162.51 814.63C162.41 818.78 163.03 822.44 164.14 825.79V825.8ZM303.26 578.18C292.75 579.56 266.51 581.71 225.99 576.49C172.16 569.54 177.37 494.88 168.69 427.16C161.85 373.77 135.58 338.73 124.76 326.29C136.64 300.89 153.3 272.35 171.6 243.84C228.61 328.79 203.47 450.56 206.88 500.09C210.35 550.45 231.19 538.29 257.24 534.82C264.79 533.79 272.47 534.5 279.7 536.91C284.23 538.42 288.5 540.57 292.39 543.28C298.26 550.36 302.81 560.45 303.26 577.5C303.26 577.72 303.26 577.96 303.26 578.19V578.18ZM283.97 508.87C276.77 510.37 272.31 511.31 269.56 512.6C279.8 318.19 242.93 181.09 234.58 152.94C257.53 121.77 277.44 96.39 287.84 83.34C294.71 117.29 320.64 249.7 322.64 322.96C324.6 394.48 310.81 474.28 306.52 497.12C295.63 503.93 287.62 508.1 283.96 508.86L283.97 508.87ZM365.91 454.65C387.78 320.9 381.12 260.2 375.55 236.47C417.43 292.95 452.21 310.3 482.45 325.39C485.12 326.72 487.71 328.01 490.25 329.31C461.34 372.9 410.27 419.73 365.91 454.66V454.65ZM313.83 107.66L483.05 314.04C439.33 292.12 385.84 261.87 313.83 107.66ZM120.76 437.9C163.04 457.97 151.77 536.5 177.38 597.33C198.53 647.57 245.85 651.5 267.23 650.52C255.32 668.18 241.7 686.92 228.37 704.94C210.38 697.42 145.16 665.16 139.18 590.38C133.63 521.03 112.58 493.79 104.33 485.62C114.87 467.94 123.75 448.75 120.76 437.9ZM605.28 983.63C621.41 1064.7 660.82 1138.44 719.27 1196.88C777.71 1255.32 851.46 1294.74 932.52 1310.86C959.56 1316.24 986.83 1318.91 1014.01 1318.91C1068.32 1318.91 1122.26 1308.24 1173.16 1287.16C1249.52 1255.53 1314.16 1202.48 1360.07 1133.76C1405.99 1065.04 1430.26 985.02 1430.26 902.37C1430.26 847.4 1419.59 793.78 1398.55 742.99C1377.51 692.2 1347.13 646.74 1308.26 607.87C1269.39 569 1223.93 538.62 1173.14 517.59C1122.35 496.55 1068.73 485.89 1013.75 485.89C931.09 485.89 851.08 510.16 782.36 556.08C713.63 602 660.59 666.64 628.96 743C597.33 819.36 589.14 902.57 605.26 983.64L605.28 983.63ZM786.23 561.85C853.81 516.69 932.49 492.83 1013.76 492.83C1067.82 492.83 1120.55 503.32 1170.49 524.01C1220.43 544.7 1265.14 574.56 1303.36 612.79C1341.58 651.01 1371.45 695.71 1392.14 745.66C1412.83 795.61 1423.32 848.34 1423.32 902.39C1423.32 983.67 1399.45 1062.35 1354.3 1129.93C1309.15 1197.51 1245.59 1249.67 1170.5 1280.77C1095.41 1311.87 1013.58 1319.93 933.87 1304.08C854.15 1288.22 781.64 1249.47 724.17 1192C666.7 1134.53 627.94 1062.02 612.08 982.31C596.22 902.6 604.28 820.77 635.38 745.68C666.48 670.59 718.64 607.04 786.22 561.88L786.23 561.85ZM210.88 1902.86L216.46 1966.46L211.2 1967.57C207.38 1952.06 200.71 1940.98 191.2 1934.34C181.69 1927.7 167.58 1924.38 148.88 1924.38H124.33V2072.42C124.01 2083.96 124.68 2095.51 126.32 2106.94C127.05 2112.39 129.42 2117.49 133.1 2121.57C137.1 2125.12 141.76 2127.85 146.81 2129.61C153.94 2132.13 161.31 2133.91 168.81 2134.94L168.65 2140.84L131.99 2140.36C123.59 2140.26 115.84 2140.2 108.72 2140.2C95.4298 2140.2 75.6098 2140.41 49.2598 2140.84H48.2998V2134.94C55.8698 2133.92 63.3198 2132.13 70.5298 2129.61C75.5698 2127.88 80.2098 2125.15 84.1598 2121.57C87.9398 2117.53 90.3698 2112.42 91.1098 2106.94C92.7498 2095.51 93.4198 2083.96 93.0998 2072.42V1924.38H70.4598C50.0598 1924.38 35.1798 1927.52 25.8298 1933.78C16.4798 1940.05 9.72977 1951.05 5.58977 1966.77L0.00976562 1965.81L6.22977 1902.85H10.0498L19.9298 1913.37C30.1298 1913.37 45.1698 1913.42 65.0398 1913.53C84.9098 1913.64 99.7898 1913.69 109.67 1913.69C119.55 1913.69 134.11 1913.64 153.66 1913.53C173.21 1913.42 187.82 1913.37 197.49 1913.37L208.33 1902.85H210.88V1902.86ZM374.4 2129C377.48 2132.02 383.75 2134.01 393.21 2134.96V2140.86C389.17 2140.65 384.63 2140.49 379.58 2140.38C374.53 2140.27 366.8 2140.22 356.39 2140.22C345.97 2140.22 338.06 2140.27 332.64 2140.38C327.23 2140.48 322.23 2140.64 317.65 2140.86L317.49 2134.96C327.59 2133.9 334.31 2131.67 337.66 2128.28C341.01 2124.89 342.68 2117.89 342.68 2107.29C342.68 2106.44 342.63 2104.85 342.52 2102.52C342.41 2100.19 342.36 2098.34 342.36 2096.96L341.72 2059.11C341.3 2040.56 337.87 2027.13 331.44 2018.81C325.02 2010.49 314.94 2006.33 301.23 2006.33C295.73 2006.36 290.27 2007.25 285.05 2008.96C278.94 2011.01 273.08 2013.75 267.6 2017.15V2100.47C267.6 2114.47 269.33 2123.61 272.78 2127.91C276.23 2132.21 283.12 2134.56 293.42 2134.98L293.26 2140.88C288.8 2140.67 283.91 2140.51 278.59 2140.4C273.28 2140.29 265.36 2140.24 254.84 2140.24C244.64 2140.24 236.99 2140.29 231.88 2140.4C226.78 2140.5 222.16 2140.65 218.03 2140.85L217.87 2134.95C227.75 2134.53 234.32 2132.51 237.55 2128.91C240.79 2125.31 242.41 2115.93 242.41 2100.78L242.09 1950.54C242.29 1945.4 241.68 1940.26 240.26 1935.32C238.95 1931.74 236.79 1928.54 233.96 1925.99L225.51 1918.82V1915.95L265.52 1899.69L268.87 1901.28L266.96 2011.25C276.64 2004.51 287 1998.8 297.87 1994.21C305.82 1990.72 314.37 1988.77 323.05 1988.47C338.25 1988.47 349.35 1992.77 356.36 2001.36C363.38 2009.96 367.15 2023.96 367.67 2043.38L369.11 2104.76C369.53 2117.9 371.29 2125.99 374.37 2129.01L374.4 2129ZM501.03 2117.02C493.94 2120.49 486.13 2122.26 478.24 2122.2C470.39 2122.33 462.62 2120.71 455.47 2117.46C448.33 2114.21 442 2109.4 436.95 2103.4C425.68 2090.26 419.76 2073.36 420.37 2056.06C420.36 2052.92 420.52 2049.78 420.85 2046.66C421.17 2043.65 421.71 2040.67 422.44 2037.73C437.11 2037.73 452.59 2037.89 468.91 2038.21C485.22 2038.53 502.46 2039.01 520.63 2039.64C519.78 2023.81 514.38 2011.32 504.45 2002.18C494.51 1993.04 481.42 1988.47 465.16 1988.47C455.42 1988.37 445.77 1990.39 436.9 1994.39C428.02 1998.39 420.13 2004.29 413.76 2011.66C399.67 2027.12 392.11 2047.42 392.64 2068.33C392.03 2087.95 399.12 2107.04 412.41 2121.49C418.53 2128.33 426.06 2133.77 434.48 2137.44C442.9 2141.11 452.01 2142.93 461.19 2142.76C473.36 2142.83 485.32 2139.58 495.78 2133.36C507.21 2126.32 516.95 2116.85 524.31 2105.63L519.69 2101.64C514.7 2108.1 508.32 2113.35 501.03 2117.02ZM436.72 2005.44C439.53 2002.45 442.93 2000.06 446.7 1998.43C450.47 1996.8 454.53 1995.95 458.64 1995.95C462.15 1995.93 465.62 1996.69 468.8 1998.19C471.97 1999.69 474.77 2001.9 476.98 2004.63C482.62 2011.89 486.3 2020.48 487.66 2029.58L423.74 2031.18C425.47 2021.52 429.99 2012.57 436.73 2005.44H436.72ZM844.37 2075.94V2115.41L860.64 2115.38V2121.28C844.07 2128.92 826.84 2135.03 809.16 2139.51C793.78 2143.38 777.98 2145.38 762.12 2145.47C722.91 2145.47 691.4 2134.87 667.6 2113.67C643.79 2092.47 631.89 2064.55 631.9 2029.91C631.71 2013.33 635.02 1996.9 641.62 1981.69C648.37 1966.72 658.33 1953.41 670.79 1942.72C683.4 1931.63 698.04 1923.11 713.91 1917.61C730.91 1911.8 748.78 1908.91 766.75 1909.08C779.94 1909.11 793.11 1910.23 806.12 1912.43C819.85 1914.75 833.39 1918.1 846.61 1922.47C846.08 1931.19 845.62 1940.35 845.26 1949.97C844.89 1959.59 844.6 1969.87 844.38 1980.81H839.44C834.55 1960.21 825.54 1944.45 812.42 1933.55C799.3 1922.65 782.64 1917.21 762.45 1917.23C734.61 1917.23 712.13 1926.55 695.02 1945.2C677.91 1963.85 669.36 1988.48 669.36 2019.08C669.29 2033.94 672.03 2048.67 677.41 2062.52C682.78 2076.29 690.7 2088.91 700.76 2099.73C711.23 2110.97 724.08 2119.71 738.38 2125.32C753.64 2131.39 769.93 2134.45 786.36 2134.32C796.99 2134.32 804.08 2132.68 807.64 2129.39C811.2 2126.1 812.98 2119.05 812.98 2108.23V2077.04C812.98 2064.1 809.9 2054.96 803.74 2049.6C797.58 2044.25 786.1 2040.88 769.31 2039.49V2033.59C778.02 2033.76 786.55 2033.9 794.89 2034.03C803.23 2034.16 811.55 2034.22 819.84 2034.22C828.34 2034.22 836.71 2034.17 844.95 2034.06C853.18 2033.95 861.23 2033.8 869.1 2033.58L869.26 2039.48C859.38 2040.75 852.76 2043.6 849.41 2048C846.06 2052.4 844.39 2061.71 844.39 2075.93L844.37 2075.94ZM1112.52 1913.88C1119.16 1913.77 1125.3 1913.61 1130.93 1913.4V1919.3H1130.29C1117.43 1919.3 1108.61 1924.24 1103.83 1934.12C1099.05 1944 1096.66 1968.9 1096.66 2008.83C1096.66 2012.22 1096.61 2017.32 1096.5 2024.11C1096.07 2061.07 1092.99 2086.19 1087.26 2099.47C1080.84 2114.58 1069.26 2126.92 1054.58 2134.27C1039.39 2142.18 1020.47 2146.13 997.83 2146.14C982 2146.52 966.24 2144.04 951.29 2138.81C939.38 2134.63 928.96 2127.04 921.32 2116.99C916.42 2110.15 912.93 2102.41 911.04 2094.22C908.55 2080.77 907.51 2067.08 907.94 2053.41V1969.63C908.28 1959.99 907.67 1950.33 906.11 1940.81C905.24 1936.4 902.91 1932.42 899.49 1929.5C895.39 1926.33 890.74 1923.93 885.78 1922.41C879.82 1920.64 873.67 1919.59 867.45 1919.3V1913.4C874.35 1913.62 881.74 1913.78 889.6 1913.88C897.47 1913.98 909.37 1914.04 925.31 1914.04C941.46 1914.04 953.55 1913.99 961.57 1913.88C969.6 1913.77 977.06 1913.61 983.96 1913.4L984.12 1919.3C966.27 1919.83 954.23 1923.39 948 1929.98C941.77 1936.56 938.67 1949.67 938.68 1969.32V2050.24C938.3 2062.61 939.51 2074.97 942.27 2087.03C944.41 2095.19 948.55 2102.68 954.3 2108.85C961.22 2116.04 969.74 2121.5 979.17 2124.78C990.07 2128.63 1001.57 2130.52 1013.12 2130.36C1026.53 2130.89 1039.84 2127.96 1051.77 2121.84C1062.43 2115.47 1070.82 2105.91 1075.76 2094.52C1079.32 2085.87 1081.44 2076.69 1082.06 2067.36C1083.28 2055.52 1083.89 2036.65 1083.89 2010.75C1084.23 1993.15 1083.56 1975.55 1081.9 1958.03C1081.27 1950.3 1078.96 1942.79 1075.13 1936.05C1071.22 1930.46 1065.72 1926.16 1059.35 1923.71C1051.13 1920.73 1042.44 1919.24 1033.69 1919.33V1913.43C1039.53 1913.65 1045.75 1913.81 1052.34 1913.91C1058.93 1914.01 1068.92 1914.07 1082.31 1914.07C1095.81 1914.07 1105.88 1914.02 1112.52 1913.91V1913.88ZM1231.06 1913.69C1243.87 1913.48 1253.4 1913.37 1259.67 1913.37V1919.27C1242.88 1920.33 1231.62 1923.83 1225.88 1929.77C1220.14 1935.7 1217.27 1948.64 1217.27 1968.58V2085.48C1217.27 2105.62 1220.17 2118.69 1225.95 2124.68C1231.74 2130.67 1242.98 2134.09 1259.66 2134.94L1259.5 2140.84C1243.34 2140.52 1231.31 2140.34 1223.38 2140.28C1215.46 2140.23 1208.05 2140.2 1201.15 2140.2C1194.24 2140.2 1186.83 2140.23 1178.92 2140.28C1171.02 2140.33 1159.09 2140.52 1143.14 2140.84V2134.94C1159.72 2133.99 1170.93 2130.57 1176.77 2124.68C1182.62 2118.79 1185.54 2105.73 1185.54 2085.48V1968.58C1185.54 1948.44 1182.67 1935.45 1176.93 1929.61C1171.19 1923.77 1159.93 1920.33 1143.14 1919.27V1913.37C1149.72 1913.37 1159.58 1913.48 1172.71 1913.69C1185.84 1913.9 1195.64 1914.01 1202.12 1914.01C1208.6 1914.01 1218.25 1913.9 1231.05 1913.69H1231.06ZM1481.45 1943.03C1454.46 1922.31 1417.16 1911.95 1369.55 1911.95C1366.79 1911.95 1355.1 1912.13 1334.47 1912.51C1313.85 1912.89 1294.4 1913.18 1276.13 1913.39V1919.29C1291.43 1921.11 1301.79 1924.81 1307.21 1930.4C1312.63 1935.99 1315.34 1946.32 1315.34 1961.36V2090.3C1315.34 2107.07 1312.45 2118.36 1306.66 2124.17C1300.87 2129.98 1289.53 2133.56 1272.63 2134.94V2140.84C1286.43 2140.93 1305.05 2141.12 1328.48 2141.39C1351.91 2141.66 1367.98 2141.79 1376.7 2141.79C1421.97 2141.79 1457.49 2131.66 1483.26 2111.42C1509.03 2091.18 1521.91 2063.42 1521.91 2028.14C1521.93 1992.12 1508.45 1963.75 1481.45 1943.03ZM1457.85 2106.09C1450.08 2115.06 1440.42 2122.18 1429.56 2126.95C1418.7 2131.72 1406.91 2134.01 1395.05 2133.67C1376.45 2133.67 1363.75 2130.18 1356.95 2123.23C1350.15 2116.27 1346.75 2102.22 1346.75 2081.07L1346.73 1919.44H1349.6C1391.16 1919.44 1423.65 1929.59 1447.09 1949.89C1470.52 1970.19 1482.24 1998.24 1482.24 2034.05C1482.24 2063.7 1474.11 2087.72 1457.85 2106.1V2106.09ZM1754.93 1942.15C1732.76 1920.32 1703.24 1909.4 1666.37 1909.4C1628.86 1909.4 1598.86 1919.97 1576.39 1941.12C1553.92 1962.27 1542.68 1990.54 1542.68 2025.92C1542.68 2062.05 1553.75 2090.96 1575.92 2112.63C1598.08 2134.31 1627.6 2145.15 1664.48 2145.15C1701.77 2145.15 1731.71 2134.54 1754.3 2113.35C1776.88 2092.16 1788.17 2064.13 1788.17 2029.27C1788.18 1993.03 1777.1 1963.99 1754.93 1942.16V1942.15ZM1727.11 2107.05C1720.14 2116.12 1711.12 2123.41 1700.78 2128.32C1690.44 2133.22 1679.09 2135.6 1667.65 2135.26C1642.57 2135.27 1621.95 2124.67 1605.8 2103.46C1589.65 2082.25 1581.57 2054.86 1581.57 2021.29C1581.57 1990.58 1589.04 1965.82 1603.97 1947.01C1615.21 1933.1 1631 1923.6 1648.55 1920.19C1666.1 1916.78 1684.3 1919.67 1699.93 1928.36C1711.85 1935.75 1721.92 1945.79 1729.34 1957.69C1736.12 1968.13 1741.18 1979.6 1744.32 1991.64C1747.86 2004.74 1749.63 2018.25 1749.58 2031.81C1749.58 2063.16 1742.09 2088.24 1727.1 2107.05H1727.11ZM2048.01 1913.37V1919.27H2045.46C2033.88 1919.27 2025.78 1925.1 2021.15 1936.76C2016.52 1948.42 2014.2 1970.08 2014.2 2001.76V2071.37C2014.2 2087.58 2014.33 2101.95 2014.6 2114.49C2014.86 2127.03 2015.21 2138.63 2015.64 2149.29H2013.73C2007.14 2141.66 1999.99 2133.45 1992.29 2124.65L1979.44 2109.99L1841.4 1963.94V2028.31C1841.4 2059.99 1842.01 2081.32 1843.23 2092.28C1844.45 2103.24 1846.55 2111.11 1849.53 2115.9C1852.79 2120.89 1857.45 2124.81 1862.92 2127.18C1871.28 2130.81 1880.06 2133.38 1889.06 2134.82V2140.88H1888.1C1865.68 2140.46 1848.94 2140.24 1837.89 2140.24C1831.72 2140.24 1825.08 2140.29 1817.97 2140.4L1787.39 2140.85L1787.23 2134.95C1804.02 2134.1 1815.46 2128.62 1821.58 2118.5C1827.69 2108.38 1830.74 2087.48 1830.75 2055.8V1993.19C1830.75 1990.33 1830.8 1986.52 1830.91 1981.75C1831.01 1976.99 1831.07 1973.65 1831.07 1971.73C1831.39 1963.66 1830.31 1955.6 1827.88 1947.89C1825.6 1942.06 1822 1936.83 1817.36 1932.63C1813 1928.68 1807.95 1925.59 1802.45 1923.49C1796.24 1921.12 1789.72 1919.7 1783.09 1919.28V1913.38C1786.6 1913.38 1791.7 1913.49 1798.4 1913.7C1805.1 1913.91 1809.98 1914.02 1813.06 1914.02C1816.14 1914.02 1820.87 1913.91 1826.93 1913.7C1832.99 1913.49 1837.4 1913.38 1840.16 1913.38L2003.38 2087.9V2012.73C2003.38 1984.54 2002.61 1965.53 2001.07 1955.67C2000.29 1947.77 1997.47 1940.21 1992.86 1933.74C1989.18 1929.23 1984.32 1925.82 1978.83 1923.88C1971.59 1921.3 1964.02 1919.75 1956.35 1919.27V1913.37C1962.09 1913.59 1968.25 1913.74 1974.84 1913.85C1981.43 1913.95 1991.04 1914.01 2003.69 1914.01C2016.23 1914.01 2025.5 1913.96 2031.5 1913.85C2037.5 1913.74 2043 1913.58 2048 1913.37H2048.01ZM642.95 1018L640.69 1005.56L641.79 994.26L644.09 984.12L648.64 973.92L650.91 970.57L654.35 966.03L658.9 962.67L663.46 960.38L669.14 958.09L675.95 955.86L689.66 953.58V981.83L690.77 994.25L693.07 1005.55L695.33 1014.59L697.63 1023.62L701.05 1031.53L704.44 1039.44L712.45 1049.64L719.26 1058.65L726.11 1063.16L731.83 1066.56L738.66 1055.26L744.32 1043.95L747.74 1030.41L750.03 1015.74L751.14 999.92L752.29 984.1L751.14 966.01L750.03 947.94L746.59 909.54L740.92 869.98L735.2 829.31L731.81 787.51L730.64 767.18L729.51 746.84L730.64 727.62L731.81 707.28L734.08 689.23L737.47 671.16L743.17 654.18L750.01 637.24L759.12 621.41L769.36 607.87L781.89 594.33L795.57 581.9L812.67 571.7L832.05 562.68L853.65 554.77L878.74 549.14L869.64 558.17L860.5 567.2L852.56 577.39L845.72 587.54L838.89 597.74L833.19 607.88L822.95 630.5L814.96 653.07L809.23 676.81L804.68 699.38L802.42 721.99L801.29 743.46L800.13 762.67L801.29 796.56L803.59 819.17L804.69 827.08L806.98 853.04L810.42 877.9L817.25 923.09L820.67 944.55L821.8 963.77L822.97 982.98L821.8 999.92L817.25 1016.87L814.97 1024.78L811.53 1032.68L806.98 1040.59L802.43 1047.34L795.6 1055.25L788.77 1062.04L780.81 1068.79L771.67 1075.59L762.55 1082.38L751.17 1088.01L724.96 1100.45L694.23 1111.75L685.13 1102.72L677.14 1092.54L669.16 1080.11L661.2 1068.8L655.48 1055.26L649.81 1042.83L645.24 1030.4L642.96 1017.97L642.95 1018ZM884.44 777.35L883.31 750.26V724.29L884.44 699.4L887.86 676.83L891.27 656.49L895.82 636.15L902.65 618.08L909.53 601.15L918.64 586.44L927.74 571.73L939.12 559.31L950.51 548.05L964.17 537.85L979 528.83L993.78 520.91L1010.88 514.13L1025.65 522.04L1040.52 528.83L1055.31 534.46L1071.27 538.97L1086.06 540.14H1102.05L1109.94 537.85L1117.93 536.74L1125.92 533.34L1133.92 529.94L1124.81 544.64L1114.49 558.18L1104.27 568.38L1094.05 576.25L1082.62 581.92L1072.38 586.44L1062.16 588.67L1051.86 589.83L1042.75 588.67L1032.51 587.56L1023.4 585.32L1015.41 581.93L1007.42 577.42L1000.62 572.91L994.92 568.4L990.37 563.83H984.65L978.97 566.12L974.41 570.63L969.85 575.14L965.3 580.83L961.86 587.58L955.03 604.53L950.48 623.74L945.92 645.19L942.48 667.8L941.37 691.54L939.1 738.97L937.95 779.63L939.1 819.19L977.8 792.05L1010.85 767.21L1041.61 742.36L1056.4 758.17L1068.93 772.84L1079.17 786.43L1088.36 799.98L1096.28 812.4L1103.15 824.82L1107.7 837.25L1112.25 848.56L1115.69 859.87L1116.8 871.13L1117.91 882.44V902.78L1116.8 912.93L1112.25 934.43L1105.39 954.75L1097.48 976.2L1081.49 1021.41L1073.5 1045.13L1067.81 1072.23L1063.27 1100.48L1062.14 1115.18V1141.15L1063.27 1151.35L1064.38 1159.26L1066.69 1167.13L1070.04 1173.92L1073.49 1180.72L1081.48 1190.87L1090.59 1199.89L1099.7 1206.69L1109.92 1211.2L1119.04 1215.73L1136.14 1222.52L1141.89 1224.75L1145.25 1228.15L1146.44 1230.44V1236.07L1144.13 1238.36L1139.58 1245.11L1129.34 1254.17L1120.23 1262.08L1111.11 1267.72L1103.14 1271.12L1095.14 1273.36H1088.34L1081.48 1272.23L1074.6 1269.96L1068.91 1265.43L1062.13 1259.8L1057.58 1253L1051.83 1245.1L1047.28 1236.06L1042.72 1225.91L1039.36 1213.49L1032.48 1187.48L1030.25 1175.04L1029.06 1163.78L1027.92 1153.59V1142.29L1030.25 1120.83L1032.48 1099.37L1037.03 1073.41L1039.36 1044L1041.59 1008.99V987.56L1040.48 966.07L1038.17 934.46L1034.71 907.32L1030.25 884.75L1025.6 866.64L1018.82 851.98L1013.15 840.67L1005.16 832.76L998.31 827.13L990.34 824.84L982.35 823.73L974.39 824.84L966.41 828.24L959.56 832.76L951.61 837.27L945.9 844.07L940.18 849.69L942.46 916.34L944.74 938.96L949.29 970.6L951.61 1006.72L952.75 1025.94V1065.49L950.46 1085.83L947.02 1105.01L942.46 1124.22L935.63 1142.28L926.52 1159.27L920.85 1167.14L915.13 1173.93L908.3 1180.73L901.45 1187.48L883.24 1202.18L867.32 1212.33L854.76 1220.24L843.36 1223.63L833.13 1225.9L823.99 1224.74L817.18 1222.51L810.35 1217.99L803.52 1212.33L796.68 1206.69L781.85 1193.15L772.74 1186.37L762.47 1179.57L749.97 1175.04L736.31 1170.53L762.47 1158.11L775.01 1153.58L780.73 1151.35L788.69 1150.19H795.52L803.51 1151.35L812.62 1153.58L821.73 1156.98L832 1161.51L844.5 1167.13L857.06 1175.03L871.88 1184.11L875.27 1178.43L878.69 1172.8L884.37 1158.1L888.93 1140.04L892.35 1118.58L894.64 1095.97L896.9 1069.99V1014.62L894.64 954.76L892.35 893.76L884.37 777.36L884.44 777.35ZM1160.16 799.98L1158.96 789.79V778.52L1160.16 767.22L1162.4 754.78L1164.71 741.24L1168.06 727.66L1173.82 713L1179.49 698.29L1187.47 682.47L1195.46 666.65L1205.69 649.71L1217.13 631.65L1230.79 612.43L1245.58 620.34L1260.36 629.37L1275.21 639.56L1288.89 650.86L1302.55 662.14L1315.1 674.55L1325.32 688.15L1335.56 701.68L1344.67 715.23L1351.53 729.93L1356.1 744.6L1359.52 758.19V772.86L1358.33 787.56L1354.97 801.11L1351.53 807.9L1348.09 814.7L1344.67 802.23L1340.11 790.96L1335.56 779.65L1329.89 768.35L1324.21 758.2L1317.33 748.01L1302.56 729.94L1286.57 714.13L1270.66 700.58L1254.7 689.28L1238.71 681.37L1231.91 687L1226.23 692.67L1221.69 698.3L1217.13 705.09L1213.69 711.84L1211.38 717.53L1210.25 724.32L1209.14 731.08V744.61L1212.49 758.2L1217.13 771.75L1223.91 785.29L1231.9 798.87L1241.01 812.41L1251.25 824.83L1262.67 836.15L1272.91 847.46L1284.34 857.6L1304.78 873.42H1307.11L1320.77 888.09L1333.33 902.79L1343.54 917.49L1352.67 932.16L1359.53 945.7L1365.22 960.41L1369.78 973.95L1373.21 987.55L1374.32 1001.08L1375.45 1013.52V1025.94L1374.32 1038.37L1372.01 1050.79L1368.66 1062.09L1365.22 1073.4L1360.66 1084.67L1349.23 1105.01L1336.7 1124.22L1323.03 1141.16L1309.35 1155.87L1295.71 1168.3L1282.03 1178.44L1270.68 1186.37L1260.38 1192.04L1254.71 1194.27L1249.02 1195.38H1243.27L1237.6 1194.27L1231.91 1192.04L1227.36 1189.75L1221.69 1185.24L1217.13 1181.84L1207.94 1170.53L1198.81 1156.99L1190.9 1142.29L1184.03 1125.36L1178.36 1107.29L1173.8 1088.06L1170.37 1068.85L1168.04 1049.68V1030.45L1169.26 1012.38L1172.68 995.45L1177.25 979.61L1184.03 1007.86L1190.9 1033.83L1198.81 1055.3L1206.82 1074.52L1214.81 1091.45L1222.79 1105L1230.78 1116.3L1238.69 1124.21L1246.68 1131.01L1254.68 1134.36L1262.65 1136.64H1269.45L1276.33 1135.52L1283.13 1132.12L1288.88 1126.49L1294.54 1119.7L1299.11 1111.79L1302.54 1102.76L1305.96 1092.58L1308.2 1081.27L1309.31 1068.84V1042.87L1307.09 1029.32L1303.65 1014.62L1299.11 999.95L1292.23 985.25L1285.44 970.59L1276.33 957L1266.09 942.33L1253.56 928.74L1238.69 915.2L1222.79 902.77L1213.68 893.74L1202.25 884.71L1192.03 873.4L1182.92 859.86L1173.81 845.15L1166.93 829.34L1163.49 820.3L1161.26 810.1L1160.13 799.97L1160.16 799.98ZM882.56 1639.14C878.4 1639.16 872.1 1639.25 863.66 1639.4V1636.51C867.99 1636.4 872.28 1635.63 876.38 1634.21C879.36 1633.2 881.95 1631.29 883.79 1628.73C885.17 1625.8 885.92 1622.6 885.97 1619.35C886.39 1614.71 886.6 1607.15 886.6 1596.68V1563.07C886.74 1556.81 886.46 1550.54 885.78 1544.32C885.53 1541.55 884.54 1538.89 882.93 1536.62C880.97 1534.68 878.51 1533.3 875.83 1532.65C871.87 1531.48 867.79 1530.78 863.68 1530.57V1527.52C865.71 1527.57 867.94 1527.61 870.39 1527.64C872.83 1527.67 876.45 1527.68 881.23 1527.68C887.11 1527.68 891.49 1527.67 894.38 1527.64C897.27 1527.62 899.91 1527.55 902.3 1527.44C901.93 1532.92 901.66 1537.74 901.48 1541.89C901.3 1546.04 901.21 1549.39 901.21 1551.96V1605.95C901.04 1612.01 901.34 1618.07 902.11 1624.08C902.45 1626.68 903.52 1629.13 905.19 1631.16C907.24 1633.03 909.74 1634.35 912.45 1634.98C916.38 1635.97 920.41 1636.49 924.47 1636.54V1639.43C916.2 1639.27 909.98 1639.18 905.82 1639.15C901.66 1639.12 897.78 1639.11 894.2 1639.12C890.61 1639.12 886.73 1639.13 882.57 1639.15L882.56 1639.14ZM940.98 1640.02L942.54 1643.37C964.28 1636.19 981.18 1625.81 993.23 1612.24C1004.87 1599.68 1011.33 1583.18 1011.29 1566.05C1011.29 1553.62 1007.83 1543.86 1000.91 1536.75C997.16 1533.11 992.69 1530.28 987.79 1528.45C982.89 1526.62 977.66 1525.82 972.44 1526.1C967.3 1525.91 962.18 1526.75 957.37 1528.58C952.56 1530.41 948.17 1533.19 944.47 1536.75C940.86 1540.31 938.03 1544.57 936.16 1549.28C934.29 1553.99 933.41 1559.03 933.59 1564.1C933.35 1568.51 934.04 1572.93 935.62 1577.06C937.2 1581.19 939.62 1584.94 942.74 1588.08C945.86 1591.21 949.6 1593.66 953.72 1595.25C957.84 1596.85 962.26 1597.56 966.67 1597.34C970.55 1597.34 974.41 1596.77 978.13 1595.66C982.22 1594.41 986.15 1592.67 989.83 1590.48C986.39 1600.88 980.55 1610.33 972.79 1618.06C963.47 1627.08 952.73 1634.5 941 1640.02H940.98ZM984.9 1589.51C982.42 1590.5 979.77 1590.99 977.1 1590.95C973.36 1591.06 969.64 1590.32 966.23 1588.79C962.81 1587.27 959.78 1584.99 957.37 1582.13C952.69 1575.84 950.04 1568.27 949.75 1560.44C949.47 1552.6 951.57 1544.86 955.77 1538.25C957.61 1535.75 960.03 1533.72 962.82 1532.36C965.61 1531 968.69 1530.32 971.8 1530.41C975.11 1530.39 978.36 1531.25 981.21 1532.92C984.06 1534.59 986.42 1536.99 988.02 1539.89C992.4 1547.72 994.48 1556.63 994.03 1565.59C994.03 1568.8 993.8 1572 993.37 1575.19C992.92 1578.52 992.28 1581.83 991.46 1585.1C989.58 1586.98 987.36 1588.48 984.91 1589.52L984.9 1589.51ZM1071.42 1563.17C1071.79 1556.92 1069.88 1550.75 1066.04 1545.81C1064.19 1543.71 1061.89 1542.05 1059.31 1540.97C1056.73 1539.88 1053.94 1539.39 1051.14 1539.54C1046.4 1539.6 1041.76 1540.9 1037.68 1543.33C1032.7 1546.3 1028.28 1550.12 1024.61 1554.6L1022.18 1552.65C1025.87 1544.95 1031.22 1538.16 1037.86 1532.79C1043.54 1528.57 1050.45 1526.33 1057.52 1526.43C1061.48 1526.35 1065.41 1527.11 1069.05 1528.66C1072.69 1530.22 1075.95 1532.54 1078.62 1535.46C1084.3 1541.55 1087.34 1549.64 1087.09 1557.97C1087.09 1567.6 1083 1577.94 1074.8 1588.99C1063.58 1603.05 1050.64 1615.65 1036.3 1626.5L1064.7 1626.19C1068.72 1626.3 1072.74 1626.07 1076.71 1625.5C1078.75 1625.18 1080.67 1624.38 1082.33 1623.16C1084.3 1621.37 1086.06 1619.37 1087.59 1617.19C1089.83 1614.06 1091.9 1610.81 1093.8 1607.47L1096.53 1608.79L1084.51 1639.46C1077.33 1639.35 1071.74 1639.27 1067.74 1639.22C1063.74 1639.17 1060.02 1639.15 1056.59 1639.14C1049.56 1639.14 1042.91 1639.19 1036.61 1639.3C1030.32 1639.4 1024.24 1639.55 1018.37 1639.74L1017.28 1637.48C1032.53 1625.15 1046.32 1611.12 1058.39 1595.66C1067.08 1583.7 1071.42 1572.88 1071.42 1563.2V1563.17ZM1108.93 1640.02L1110.49 1643.37C1132.23 1636.19 1149.13 1625.81 1161.17 1612.24C1172.81 1599.68 1179.27 1583.18 1179.23 1566.05C1179.23 1553.62 1175.77 1543.86 1168.86 1536.75C1165.11 1533.11 1160.64 1530.28 1155.74 1528.45C1150.84 1526.62 1145.61 1525.82 1140.39 1526.1C1135.25 1525.91 1130.13 1526.75 1125.32 1528.58C1120.52 1530.41 1116.13 1533.19 1112.42 1536.75C1108.81 1540.31 1105.98 1544.57 1104.11 1549.28C1102.23 1553.99 1101.36 1559.04 1101.54 1564.1C1101.3 1568.51 1101.99 1572.93 1103.58 1577.06C1105.16 1581.19 1107.58 1584.94 1110.7 1588.08C1113.82 1591.21 1117.56 1593.65 1121.68 1595.25C1125.8 1596.84 1130.21 1597.56 1134.63 1597.34C1138.51 1597.34 1142.37 1596.77 1146.09 1595.66C1150.19 1594.41 1154.12 1592.67 1157.8 1590.48C1154.35 1600.88 1148.51 1610.33 1140.75 1618.06C1131.44 1627.08 1120.69 1634.5 1108.96 1640.02H1108.93ZM1152.85 1589.51C1150.37 1590.5 1147.72 1590.99 1145.05 1590.95C1141.31 1591.06 1137.59 1590.32 1134.17 1588.79C1130.75 1587.27 1127.72 1584.99 1125.31 1582.13C1120.63 1575.84 1117.98 1568.27 1117.69 1560.44C1117.4 1552.6 1119.5 1544.86 1123.71 1538.25C1125.55 1535.75 1127.97 1533.72 1130.76 1532.36C1133.55 1531 1136.63 1530.32 1139.74 1530.41C1143.05 1530.39 1146.3 1531.25 1149.15 1532.92C1152.01 1534.59 1154.36 1536.99 1155.96 1539.89C1160.34 1547.72 1162.42 1556.63 1161.97 1565.59C1161.97 1568.8 1161.74 1572 1161.31 1575.19C1160.86 1578.52 1160.22 1581.83 1159.4 1585.1C1157.52 1586.98 1155.3 1588.48 1152.85 1589.52V1589.51ZM695.13 1586.47H810.54V1589.94H695.13V1586.47ZM1354.88 1589.94H1239.47V1586.47H1354.88V1589.94ZM712.36 1472.31V1428.24C712.36 1420.3 711.37 1415.22 709.39 1413C706.06 1410.26 701.87 1408.78 697.55 1408.83V1406.59C701.47 1406.59 706.91 1406.63 713.87 1406.71C720.83 1406.79 725.82 1406.83 728.86 1406.83C734.08 1406.83 739.42 1406.81 744.91 1406.77C750.39 1406.73 756.73 1406.67 763.93 1406.59L762.05 1426.85H760.23C760 1420.46 758.27 1416.05 755.04 1413.63C751.81 1411.2 745.57 1409.99 736.32 1409.99H724.06V1447.73H738.32C742.94 1448.08 747.55 1447.03 751.55 1444.7C753.01 1443.53 754.18 1442.04 754.97 1440.35C755.76 1438.66 756.14 1436.8 756.1 1434.93L758.1 1434.99C757.9 1438.96 757.74 1442.69 757.65 1446.19C757.55 1449.69 757.5 1453.08 757.5 1456.35C757.5 1459.1 757.51 1461.19 757.53 1462.6C757.53 1464.02 757.56 1465.33 757.56 1466.55H755.74C755.92 1464.65 755.66 1462.74 754.98 1460.96C754.3 1459.18 753.21 1457.58 751.8 1456.3C747.87 1453.89 743.28 1452.81 738.69 1453.21H724.07V1471.75C724.07 1479.32 725.28 1484.27 727.71 1486.61C730.14 1488.95 735.17 1490.45 742.82 1491.12V1493.37H742.09C731.81 1493.21 724.18 1493.12 719.21 1493.13C716.46 1493.13 713.51 1493.15 710.38 1493.19L696.88 1493.37L696.82 1491.12C703.05 1490.72 707.2 1489.44 709.26 1487.3C711.32 1485.16 712.35 1480.16 712.35 1472.33L712.36 1472.31ZM817.25 1494.98C831.45 1494.98 842.85 1490.94 851.44 1482.87C855.74 1478.76 859.12 1473.78 861.34 1468.26C863.56 1462.74 864.58 1456.81 864.33 1450.86C864.61 1444.76 863.64 1438.67 861.46 1432.96C859.29 1427.25 855.96 1422.06 851.68 1417.7C847.19 1413.46 841.89 1410.17 836.1 1408.03C830.31 1405.89 824.15 1404.93 817.98 1405.23C803.7 1405.23 792.28 1409.26 783.72 1417.31C779.41 1421.47 776.03 1426.51 773.82 1432.08C771.6 1437.65 770.6 1443.62 770.87 1449.61C770.59 1455.69 771.58 1461.75 773.75 1467.43C775.93 1473.11 779.26 1478.28 783.53 1482.61C788.04 1486.82 793.34 1490.09 799.13 1492.22C804.92 1494.35 811.08 1495.29 817.24 1494.99L817.25 1494.98ZM794.91 1479.12C788.44 1470.01 785.19 1459 785.69 1447.84C785.21 1437.71 788.22 1427.74 794.22 1419.58C798.5 1414.28 804.51 1410.67 811.19 1409.37C817.88 1408.07 824.8 1409.17 830.75 1412.48C835.29 1415.29 839.12 1419.11 841.95 1423.65C844.53 1427.63 846.46 1431.99 847.65 1436.57C849 1441.55 849.67 1446.69 849.65 1451.85C850.17 1462.1 847.15 1472.21 841.09 1480.49C838.44 1483.95 835 1486.72 831.07 1488.59C827.14 1490.46 822.82 1491.36 818.46 1491.24C813.85 1491.29 809.29 1490.21 805.19 1488.1C801.09 1485.99 797.56 1482.91 794.91 1479.13V1479.12ZM936.22 1490.83C929.49 1494.05 922.08 1495.59 914.62 1495.34C908.6 1495.49 902.6 1494.55 896.91 1492.56C892.38 1490.97 888.41 1488.08 885.5 1484.25C883.64 1481.64 882.3 1478.69 881.59 1475.57C880.64 1470.45 880.24 1465.25 880.4 1460.05V1428.16C880.54 1424.49 880.3 1420.81 879.71 1417.19C879.38 1415.51 878.49 1413.99 877.19 1412.88C875.63 1411.67 873.87 1410.76 871.98 1410.18C869.71 1409.5 867.37 1409.11 865 1409V1406.75C867.63 1406.83 870.44 1406.89 873.44 1406.93C876.44 1406.97 880.97 1406.99 887.03 1406.99C893.18 1406.99 897.78 1406.97 900.83 1406.93C903.89 1406.89 906.73 1406.83 909.36 1406.75L909.42 1409C902.63 1409.2 898.04 1410.55 895.67 1413.06C893.3 1415.57 892.12 1420.56 892.12 1428.03V1458.83C891.97 1463.54 892.43 1468.24 893.48 1472.84C894.29 1475.95 895.86 1478.8 898.05 1481.15C900.69 1483.89 903.93 1485.97 907.52 1487.21C911.67 1488.68 916.05 1489.4 920.45 1489.34C925.56 1489.54 930.62 1488.43 935.16 1486.1C939.22 1483.67 942.42 1480.03 944.29 1475.68C945.64 1472.39 946.45 1468.89 946.69 1465.34C947.16 1460.83 947.38 1453.65 947.38 1443.78C947.51 1437.08 947.26 1430.38 946.62 1423.71C946.38 1420.77 945.5 1417.91 944.04 1415.34C942.55 1413.21 940.46 1411.57 938.03 1410.64C934.9 1409.51 931.59 1408.95 928.26 1408.98V1406.73C930.48 1406.81 932.85 1406.87 935.36 1406.91C937.87 1406.95 941.67 1406.97 946.77 1406.97C951.91 1406.97 955.74 1406.95 958.27 1406.91C960.8 1406.87 963.14 1406.81 965.28 1406.73V1408.98H965.04C962.99 1408.79 960.92 1409.22 959.13 1410.23C957.34 1411.24 955.88 1412.77 954.97 1414.62C953.15 1418.38 952.24 1427.86 952.24 1443.06C952.24 1444.35 952.22 1446.29 952.18 1448.88C952.02 1462.95 950.85 1472.51 948.66 1477.56C946.22 1483.31 941.81 1488.01 936.22 1490.81V1490.83ZM991.78 1426.05V1450.55C991.78 1462.61 992.01 1470.73 992.47 1474.91C992.64 1478.04 993.45 1481.1 994.87 1483.89C996.11 1485.79 997.88 1487.28 999.97 1488.19C1003.15 1489.57 1006.5 1490.54 1009.92 1491.09V1493.4H1009.56C1001.02 1493.24 994.65 1493.15 990.46 1493.16C988.11 1493.16 985.58 1493.18 982.87 1493.22C980.16 1493.26 976.28 1493.31 971.22 1493.36L971.16 1491.11C977.55 1490.79 981.91 1488.71 984.24 1484.86C986.56 1481.01 987.72 1473.06 987.71 1460.99V1437.15C987.71 1436.06 987.73 1434.61 987.77 1432.8C987.81 1430.99 987.83 1429.72 987.83 1428.98C987.95 1425.91 987.54 1422.84 986.62 1419.9C985.75 1417.68 984.38 1415.69 982.62 1414.09C980.96 1412.59 979.04 1411.41 976.95 1410.62C974.59 1409.72 972.1 1409.18 969.58 1409.02V1406.77C970.91 1406.77 972.86 1406.81 975.4 1406.89C977.94 1406.97 979.81 1407.01 980.98 1407.01C982.15 1407.01 983.95 1406.97 986.26 1406.89C988.57 1406.81 990.24 1406.77 991.3 1406.77L1053.44 1473.21V1444.59C1053.61 1437.34 1053.31 1430.08 1052.56 1422.87C1052.26 1419.87 1051.18 1416.99 1049.43 1414.54C1048.03 1412.82 1046.18 1411.52 1044.09 1410.79C1041.33 1409.81 1038.45 1409.23 1035.53 1409.05V1406.8C1037.72 1406.88 1040.07 1406.94 1042.57 1406.98C1045.08 1407.02 1048.74 1407.04 1053.55 1407.04C1058.32 1407.04 1061.85 1407.02 1064.14 1406.98C1066.43 1406.94 1068.52 1406.88 1070.42 1406.8V1409.05H1069.45C1067.39 1408.99 1065.37 1409.61 1063.69 1410.81C1062.02 1412.02 1060.79 1413.73 1060.19 1415.71C1058.43 1420.14 1057.55 1428.4 1057.55 1440.46V1466.96C1057.55 1473.13 1057.6 1478.6 1057.7 1483.37C1057.8 1488.14 1057.93 1492.56 1058.1 1496.62H1057.37C1054.86 1493.72 1052.14 1490.59 1049.21 1487.24C1046.28 1483.89 1044.65 1482.03 1044.33 1481.66L991.78 1426.06V1426.05ZM1116.15 1493.7C1133.38 1493.7 1146.91 1489.85 1156.72 1482.14C1161.52 1478.41 1165.36 1473.59 1167.92 1468.07C1170.48 1462.56 1171.68 1456.51 1171.43 1450.43C1171.67 1444.19 1170.4 1437.97 1167.71 1432.33C1165.03 1426.69 1161.01 1421.78 1156.01 1418.03C1145.73 1410.14 1131.53 1406.2 1113.41 1406.2C1112.35 1406.19 1107.9 1406.26 1100.06 1406.41C1092.21 1406.56 1084.81 1406.68 1077.85 1406.76V1409.01C1082.15 1409.1 1086.3 1410.59 1089.68 1413.24C1092.13 1416.65 1093.23 1420.85 1092.78 1425.03V1474.13C1092.78 1480.52 1091.67 1484.82 1089.47 1487.02C1087.26 1489.23 1082.94 1490.59 1076.51 1491.11V1493.36C1081.77 1493.39 1088.86 1493.46 1097.78 1493.56C1106.7 1493.66 1112.82 1493.71 1116.13 1493.71L1116.15 1493.7ZM1104.74 1409.06H1105.84C1121.66 1409.06 1134.03 1412.93 1142.94 1420.65C1150.74 1428.37 1155.46 1438.66 1156.21 1449.61C1156.96 1460.56 1153.7 1471.41 1147.03 1480.12C1144.07 1483.53 1140.39 1486.25 1136.26 1488.07C1132.13 1489.89 1127.64 1490.76 1123.12 1490.63C1116.04 1490.63 1111.21 1489.3 1108.62 1486.65C1106.03 1484 1104.73 1478.65 1104.73 1470.6V1409.07L1104.74 1409.06ZM1184.44 1493.17C1180.35 1493.21 1176.49 1493.27 1172.86 1493.35V1491.1C1177.56 1490.98 1182.13 1489.52 1186.03 1486.88C1188.17 1484.87 1189.25 1480.57 1189.25 1473.99V1426.35C1189.25 1419.38 1188.19 1414.78 1186.07 1412.54C1182.72 1409.87 1178.49 1408.54 1174.21 1408.81V1406.57C1178.25 1406.67 1182.56 1406.73 1187.14 1406.76C1191.71 1406.79 1198.35 1406.81 1207.04 1406.81C1217.19 1406.81 1224.63 1406.8 1229.34 1406.76C1234.05 1406.73 1238.29 1406.68 1242.05 1406.62C1241.68 1409.37 1241.37 1412.32 1241.11 1415.48C1240.85 1418.64 1240.6 1422.26 1240.35 1426.34H1238.47C1238.56 1423.98 1238.14 1421.62 1237.25 1419.43C1236.36 1417.24 1235.02 1415.26 1233.31 1413.62C1230.27 1411.26 1224.92 1410.07 1217.23 1410.07H1200.96V1445.87H1213.46C1218.33 1446.28 1223.23 1445.38 1227.63 1443.26C1229.08 1442.12 1230.27 1440.69 1231.13 1439.06C1231.99 1437.43 1232.5 1435.64 1232.63 1433.8H1234.63C1234.63 1436.07 1234.54 1439.63 1234.36 1444.48C1234.18 1449.33 1234.09 1453.12 1234.09 1455.83V1462.99H1232.27C1232.27 1461.22 1231.84 1459.48 1231.04 1457.91C1230.24 1456.33 1229.08 1454.96 1227.65 1453.92C1223.26 1451.84 1218.41 1450.95 1213.57 1451.34H1200.95V1473.43C1200.95 1480.19 1202.33 1484.64 1205.08 1486.78C1207.83 1488.92 1213.19 1490 1221.16 1490C1227.38 1490.37 1233.52 1488.45 1238.42 1484.6C1243.02 1480.13 1245.96 1474.22 1246.75 1467.85L1248.75 1468.09C1248.52 1472.6 1248.01 1477.09 1247.2 1481.53C1246.46 1485.62 1245.39 1489.65 1244.01 1493.58C1238.15 1493.42 1231.73 1493.3 1224.77 1493.22C1217.81 1493.14 1210.22 1493.1 1202.02 1493.1C1194.38 1493.1 1188.51 1493.12 1184.42 1493.16L1184.44 1493.17ZM1270.49 1474.12C1270.48 1480.51 1269.38 1484.81 1267.18 1487.01C1264.98 1489.22 1260.66 1490.58 1254.22 1491.1V1493.35C1259.5 1493.38 1266.59 1493.45 1275.51 1493.55C1284.43 1493.65 1290.55 1493.7 1293.87 1493.7C1311.1 1493.7 1324.63 1489.85 1334.44 1482.14C1339.24 1478.41 1343.08 1473.59 1345.64 1468.07C1348.2 1462.56 1349.4 1456.51 1349.15 1450.43C1349.39 1444.19 1348.12 1437.97 1345.43 1432.33C1342.75 1426.69 1338.73 1421.78 1333.73 1418.03C1323.45 1410.14 1309.25 1406.2 1291.13 1406.2C1290.1 1406.19 1285.65 1406.26 1277.78 1406.41C1269.91 1406.56 1262.5 1406.68 1255.56 1406.76V1409.01C1259.86 1409.1 1264.01 1410.59 1267.39 1413.24C1269.84 1416.65 1270.94 1420.85 1270.49 1425.03V1474.13V1474.12ZM1282.44 1409.07H1283.53C1299.35 1409.07 1311.72 1412.94 1320.64 1420.66C1328.44 1428.38 1333.16 1438.67 1333.92 1449.62C1334.68 1460.57 1331.41 1471.42 1324.74 1480.13C1321.78 1483.54 1318.1 1486.26 1313.97 1488.07C1309.83 1489.89 1305.35 1490.76 1300.83 1490.63C1293.75 1490.63 1288.92 1489.3 1286.33 1486.65C1283.74 1484 1282.44 1478.65 1282.44 1470.6V1409.07Z" fill="#1C4480"/>
</g>
<defs>
<clipPath id="clip0_411_1421">
<rect width="2048" height="2149.29" fill="white"/>
</clipPath>
</defs>
</svg>
